<?xml version="1.0" encoding="UTF-8" standalone="no"?>
<!DOCTYPE svg PUBLIC "-//W3C//DTD SVG 1.1//EN"
 "http://www.w3.org/Graphics/SVG/1.1/DTD/svg11.dtd">
<!-- Generated by graphviz version 2.43.0 (0)
 -->
<!-- Title: system_context Pages: 1 -->
<svg width="1111pt" height="648pt"
 viewBox="0.00 0.00 1110.86 648.00" xmlns="http://www.w3.org/2000/svg" xmlns:xlink="http://www.w3.org/1999/xlink">
<g id="graph0" class="graph" transform="scale(0.92 0.92) rotate(0) translate(28.8 676.8)">
<title>system_context</title>
<polygon fill="white" stroke="transparent" points="-28.8,28.8 -28.8,-676.8 1180.8,-676.8 1180.8,28.8 -28.8,28.8"/>
<g id="clust1" class="cluster">
<title>cluster_client</title>
<polygon fill="none" stroke="gray" stroke-dasharray="5,2" points="9.33,-243 9.33,-580.06 401.68,-580.06 401.68,-243 9.33,-243"/>
<text text-anchor="middle" x="205.51" y="-564.86" font-family="Times,serif" font-size="14.00">Client and Partner Zone</text>
</g>
<g id="clust2" class="cluster">
<title>cluster_axme</title>
<polygon fill="none" stroke="steelblue" stroke-dasharray="5,2" points="617.39,-237.77 617.39,-627.1 1142.67,-627.1 1142.67,-237.77 617.39,-237.77"/>
<text text-anchor="middle" x="880.03" y="-611.9" font-family="Times,serif" font-size="14.00">AXME Cloud Platform</text>
</g>
<g id="clust3" class="cluster">
<title>cluster_recipient</title>
<polygon fill="none" stroke="gray" stroke-dasharray="5,2" points="233.78,-20.9 233.78,-216.87 766.06,-216.87 766.06,-20.9 233.78,-20.9"/>
<text text-anchor="middle" x="499.92" y="-201.67" font-family="Times,serif" font-size="14.00">Recipient Enterprise Zone</text>
</g>
<!-- USER -->
<g id="node1" class="node">
<title>USER</title>
<polygon fill="none" stroke="black" points="155.67,-469.87 51.67,-469.87 51.67,-433.87 155.67,-433.87 155.67,-469.87"/>
<text text-anchor="middle" x="103.67" y="-455.07" font-family="monospace" font-size="11.00">Business User</text>
<text text-anchor="middle" x="103.67" y="-443.07" font-family="monospace" font-size="11.00">/ Operator</text>
</g>
<!-- SDK -->
<g id="node2" class="node">
<title>SDK</title>
<polygon fill="none" stroke="black" points="380.67,-464.87 242.67,-464.87 242.67,-428.87 380.67,-428.87 380.67,-464.87"/>
<text text-anchor="middle" x="311.67" y="-444.07" font-family="monospace" font-size="11.00">Business App / SDK</text>
</g>
<!-- USER&#45;&gt;SDK -->
<g id="edge1" class="edge">
<title>USER&#45;&gt;SDK</title>
<path fill="none" stroke="black" d="M155.86,-450.63C179,-450.07 206.86,-449.39 232.53,-448.77"/>
<polygon fill="black" stroke="black" points="232.71,-452.26 242.62,-448.52 232.54,-445.27 232.71,-452.26"/>
</g>
<!-- GW -->
<g id="node4" class="node">
<title>GW</title>
<polygon fill="none" stroke="black" points="732.67,-412.87 634.67,-412.87 634.67,-376.87 732.67,-376.87 732.67,-412.87"/>
<text text-anchor="middle" x="683.67" y="-398.07" font-family="monospace" font-size="11.00">AXME Gateway</text>
<text text-anchor="middle" x="683.67" y="-386.07" font-family="monospace" font-size="11.00">/ API</text>
</g>
<!-- SDK&#45;&gt;GW -->
<g id="edge2" class="edge">
<title>SDK&#45;&gt;GW</title>
<path fill="none" stroke="black" d="M380.97,-437.27C450.83,-427.45 558.24,-412.36 624.27,-403.08"/>
<polygon fill="black" stroke="black" points="625.09,-406.5 634.51,-401.64 624.12,-399.57 625.09,-406.5"/>
<text text-anchor="middle" x="501.67" y="-432.87" font-family="monospace" font-size="10.00">HTTPS API</text>
</g>
<!-- INTG -->
<g id="node3" class="node">
<title>INTG</title>
<polygon fill="none" stroke="black" points="176.17,-328.87 31.17,-328.87 31.17,-292.87 176.17,-292.87 176.17,-328.87"/>
<text text-anchor="middle" x="103.67" y="-314.07" font-family="monospace" font-size="11.00">External Integrator</text>
<text text-anchor="middle" x="103.67" y="-302.07" font-family="monospace" font-size="11.00">Systems</text>
</g>
<!-- INTG&#45;&gt;GW -->
<g id="edge3" class="edge">
<title>INTG&#45;&gt;GW</title>
<path fill="none" stroke="black" d="M176.42,-321.3C292.25,-338.13 518.22,-370.97 624.62,-386.43"/>
<polygon fill="black" stroke="black" points="624.14,-389.9 634.54,-387.88 625.15,-382.97 624.14,-389.9"/>
<text text-anchor="middle" x="311.67" y="-353.87" font-family="monospace" font-size="10.00">Webhook/API integration</text>
</g>
<!-- WF -->
<g id="node5" class="node">
<title>WF</title>
<polygon fill="none" stroke="black" points="942.17,-323.87 811.17,-323.87 811.17,-287.87 942.17,-287.87 942.17,-323.87"/>
<text text-anchor="middle" x="876.67" y="-309.07" font-family="monospace" font-size="11.00">Workflow +</text>
<text text-anchor="middle" x="876.67" y="-297.07" font-family="monospace" font-size="11.00">Scheduler Runtime</text>
</g>
<!-- GW&#45;&gt;WF -->
<g id="edge4" class="edge">
<title>GW&#45;&gt;WF</title>
<path fill="none" stroke="black" d="M723.32,-376.86C753.38,-362.85 795.26,-343.34 827.5,-328.32"/>
<polygon fill="black" stroke="black" points="829.16,-331.4 836.75,-324.01 826.21,-325.06 829.16,-331.4"/>
</g>
<!-- DB -->
<g id="node6" class="node">
<title>DB</title>
<polygon fill="none" stroke="black" points="1123.67,-372.87 1005.67,-372.87 1005.67,-336.87 1123.67,-336.87 1123.67,-372.87"/>
<text text-anchor="middle" x="1064.67" y="-358.07" font-family="monospace" font-size="11.00">Intent / Policy</text>
<text text-anchor="middle" x="1064.67" y="-346.07" font-family="monospace" font-size="11.00">/ Event Stores</text>
</g>
<!-- GW&#45;&gt;DB -->
<g id="edge5" class="edge">
<title>GW&#45;&gt;DB</title>
<path fill="none" stroke="black" d="M732.67,-389.8C799.07,-382.8 919.3,-370.11 995.13,-362.1"/>
<polygon fill="black" stroke="black" points="995.95,-365.54 1005.53,-361.01 995.21,-358.58 995.95,-365.54"/>
</g>
<!-- OBS -->
<g id="node7" class="node">
<title>OBS</title>
<polygon fill="none" stroke="black" points="928.67,-516.87 824.67,-516.87 824.67,-480.87 928.67,-480.87 928.67,-516.87"/>
<text text-anchor="middle" x="876.67" y="-502.07" font-family="monospace" font-size="11.00">Audit +</text>
<text text-anchor="middle" x="876.67" y="-490.07" font-family="monospace" font-size="11.00">Observability</text>
</g>
<!-- GW&#45;&gt;OBS -->
<g id="edge6" class="edge">
<title>GW&#45;&gt;OBS</title>
<path fill="none" stroke="black" d="M717.94,-412.99C750.02,-430.46 798.7,-456.96 833.49,-475.9"/>
<polygon fill="black" stroke="black" points="832.01,-479.08 842.46,-480.79 835.36,-472.93 832.01,-479.08"/>
</g>
<!-- WF&#45;&gt;DB -->
<g id="edge7" class="edge">
<title>WF&#45;&gt;DB</title>
<path fill="none" stroke="black" d="M942.2,-322.87C959.4,-327.4 978.02,-332.31 995.41,-336.89"/>
<polygon fill="black" stroke="black" points="994.92,-340.38 1005.48,-339.54 996.7,-333.61 994.92,-340.38"/>
</g>
<!-- AGENT -->
<g id="node8" class="node">
<title>AGENT</title>
<polygon fill="none" stroke="black" points="370.67,-106.87 252.67,-106.87 252.67,-70.87 370.67,-70.87 370.67,-106.87"/>
<text text-anchor="middle" x="311.67" y="-92.07" font-family="monospace" font-size="11.00">Recipient Agent</text>
<text text-anchor="middle" x="311.67" y="-80.07" font-family="monospace" font-size="11.00">Runtime</text>
</g>
<!-- WF&#45;&gt;AGENT -->
<g id="edge8" class="edge">
<title>WF&#45;&gt;AGENT</title>
<path fill="none" stroke="black" d="M873.51,-287.73C866.6,-238.98 840.22,-105.19 754.17,-50.87 630.64,27.11 447.47,-31.5 361.09,-66.97"/>
<polygon fill="black" stroke="black" points="359.67,-63.77 351.79,-70.85 362.37,-70.23 359.67,-63.77"/>
<text text-anchor="middle" x="683.67" y="-53.87" font-family="monospace" font-size="10.00">route via registry</text>
</g>
<!-- AGENT&#45;&gt;GW -->
<g id="edge9" class="edge">
<title>AGENT&#45;&gt;GW</title>
<path fill="none" stroke="black" d="M338.67,-107.06C387.07,-141.27 493.64,-218.31 577.17,-290.87 606.35,-316.22 637.63,-347.65 658.49,-369.28"/>
<polygon fill="black" stroke="black" points="655.96,-371.7 665.41,-376.5 661.01,-366.86 655.96,-371.7"/>
<text text-anchor="middle" x="501.67" y="-293.87" font-family="monospace" font-size="10.00">status/progress callbacks</text>
</g>
<!-- TOOLS -->
<g id="node9" class="node">
<title>TOOLS</title>
<polygon fill="none" stroke="black" points="746.17,-106.87 621.17,-106.87 621.17,-70.87 746.17,-70.87 746.17,-106.87"/>
<text text-anchor="middle" x="683.67" y="-86.07" font-family="monospace" font-size="11.00">Enterprise Tools</text>
</g>
<!-- AGENT&#45;&gt;TOOLS -->
<g id="edge10" class="edge">
<title>AGENT&#45;&gt;TOOLS</title>
<path fill="none" stroke="black" d="M370.89,-88.87C435.87,-88.87 541.06,-88.87 611.03,-88.87"/>
<polygon fill="black" stroke="black" points="611.09,-92.37 621.09,-88.87 611.09,-85.37 611.09,-92.37"/>
</g>
</g>
</svg>
