<?xml version="1.0" encoding="UTF-8" standalone="no"?>
<!DOCTYPE svg PUBLIC "-//W3C//DTD SVG 1.1//EN"
 "http://www.w3.org/Graphics/SVG/1.1/DTD/svg11.dtd">
<!-- Generated by graphviz version 2.43.0 (0)
 -->
<!-- Title: container_runtime Pages: 1 -->
<svg width="1104pt" height="648pt"
 viewBox="0.00 0.00 1104.31 648.00" xmlns="http://www.w3.org/2000/svg" xmlns:xlink="http://www.w3.org/1999/xlink">
<g id="graph0" class="graph" transform="scale(0.91 0.91) rotate(0) translate(28.8 680.98)">
<title>container_runtime</title>
<polygon fill="white" stroke="transparent" points="-28.8,28.8 -28.8,-680.98 1180.8,-680.98 1180.8,28.8 -28.8,28.8"/>
<!-- C -->
<g id="node1" class="node">
<title>C</title>
<polygon fill="none" stroke="black" points="118,-116.92 20,-116.92 20,-80.92 118,-80.92 118,-116.92"/>
<text text-anchor="middle" x="69" y="-96.12" font-family="monospace" font-size="11.00">Client / SDK</text>
</g>
<!-- GW -->
<g id="node2" class="node">
<title>GW</title>
<polygon fill="none" stroke="black" points="299.5,-116.92 208.5,-116.92 208.5,-80.92 299.5,-80.92 299.5,-116.92"/>
<text text-anchor="middle" x="254" y="-96.12" font-family="monospace" font-size="11.00">Gateway API</text>
</g>
<!-- C&#45;&gt;GW -->
<g id="edge1" class="edge">
<title>C&#45;&gt;GW</title>
<path fill="none" stroke="black" d="M118.08,-98.92C142.65,-98.92 172.66,-98.92 198.14,-98.92"/>
<polygon fill="black" stroke="black" points="198.38,-102.42 208.38,-98.92 198.38,-95.42 198.38,-102.42"/>
</g>
<!-- WR -->
<g id="node3" class="node">
<title>WR</title>
<polygon fill="none" stroke="black" points="553.5,-330.92 428.5,-330.92 428.5,-294.92 553.5,-294.92 553.5,-330.92"/>
<text text-anchor="middle" x="491" y="-310.12" font-family="monospace" font-size="11.00">Workflow Runtime</text>
</g>
<!-- GW&#45;&gt;WR -->
<g id="edge2" class="edge">
<title>GW&#45;&gt;WR</title>
<path fill="none" stroke="black" d="M275.04,-117.17C317.09,-155.47 414.63,-244.29 462.5,-287.88"/>
<polygon fill="black" stroke="black" points="460.26,-290.58 470.01,-294.72 464.98,-285.4 460.26,-290.58"/>
</g>
<!-- EV -->
<g id="node7" class="node">
<title>EV</title>
<polygon fill="none" stroke="black" points="868.5,-142.92 777.5,-142.92 777.5,-106.92 868.5,-106.92 868.5,-142.92"/>
<text text-anchor="middle" x="823" y="-128.12" font-family="monospace" font-size="11.00">Event +</text>
<text text-anchor="middle" x="823" y="-116.12" font-family="monospace" font-size="11.00">Audit Store</text>
</g>
<!-- GW&#45;&gt;EV -->
<g id="edge3" class="edge">
<title>GW&#45;&gt;EV</title>
<path fill="none" stroke="black" d="M299.97,-100.99C402.96,-105.71 655.67,-117.3 767.38,-122.42"/>
<polygon fill="black" stroke="black" points="767.27,-125.92 777.42,-122.88 767.59,-118.93 767.27,-125.92"/>
</g>
<!-- OBS -->
<g id="node10" class="node">
<title>OBS</title>
<polygon fill="none" stroke="black" points="577,-63.92 405,-63.92 405,-27.92 577,-27.92 577,-63.92"/>
<text text-anchor="middle" x="491" y="-49.12" font-family="monospace" font-size="11.00">Observability</text>
<text text-anchor="middle" x="491" y="-37.12" font-family="monospace" font-size="11.00">logs / metrics / traces</text>
</g>
<!-- GW&#45;&gt;OBS -->
<g id="edge4" class="edge">
<title>GW&#45;&gt;OBS</title>
<path fill="none" stroke="black" d="M299.75,-88.83C328,-82.46 365.48,-74.01 399.71,-66.29"/>
<polygon fill="black" stroke="black" points="400.75,-69.64 409.73,-64.03 399.21,-62.81 400.75,-69.64"/>
</g>
<!-- DL -->
<g id="node4" class="node">
<title>DL</title>
<polygon fill="none" stroke="black" points="882,-393.92 764,-393.92 764,-357.92 882,-357.92 882,-393.92"/>
<text text-anchor="middle" x="823" y="-379.12" font-family="monospace" font-size="11.00">Delivery /</text>
<text text-anchor="middle" x="823" y="-367.12" font-family="monospace" font-size="11.00">Transport Layer</text>
</g>
<!-- WR&#45;&gt;DL -->
<g id="edge5" class="edge">
<title>WR&#45;&gt;DL</title>
<path fill="none" stroke="black" d="M553.68,-324.7C610.64,-335.57 695.09,-351.7 753.98,-362.94"/>
<polygon fill="black" stroke="black" points="753.46,-366.4 763.94,-364.84 754.77,-359.53 753.46,-366.4"/>
</g>
<!-- DB -->
<g id="node6" class="node">
<title>DB</title>
<polygon fill="none" stroke="black" points="872,-267.92 774,-267.92 774,-231.92 872,-231.92 872,-267.92"/>
<text text-anchor="middle" x="823" y="-253.12" font-family="monospace" font-size="11.00">Intent +</text>
<text text-anchor="middle" x="823" y="-241.12" font-family="monospace" font-size="11.00">Policy Store</text>
</g>
<!-- WR&#45;&gt;DB -->
<g id="edge6" class="edge">
<title>WR&#45;&gt;DB</title>
<path fill="none" stroke="black" d="M553.68,-301.15C613.91,-289.65 704.86,-272.29 763.84,-261.03"/>
<polygon fill="black" stroke="black" points="764.58,-264.45 773.75,-259.14 763.27,-257.57 764.58,-264.45"/>
</g>
<!-- WR&#45;&gt;EV -->
<g id="edge7" class="edge">
<title>WR&#45;&gt;EV</title>
<path fill="none" stroke="black" d="M523.64,-294.9C583.73,-260.67 714.3,-186.28 781,-148.28"/>
<polygon fill="black" stroke="black" points="783.01,-151.16 789.97,-143.17 779.55,-145.08 783.01,-151.16"/>
</g>
<!-- SJ -->
<g id="node8" class="node">
<title>SJ</title>
<polygon fill="none" stroke="black" points="878.5,-627.92 767.5,-627.92 767.5,-591.92 878.5,-591.92 878.5,-627.92"/>
<text text-anchor="middle" x="823" y="-607.12" font-family="monospace" font-size="11.00">Scheduled Jobs</text>
</g>
<!-- WR&#45;&gt;SJ -->
<g id="edge8" class="edge">
<title>WR&#45;&gt;SJ</title>
<path fill="none" stroke="black" d="M502.51,-331.13C525.18,-369.16 582.01,-458.2 648.5,-514.92 684.59,-545.72 732.26,-570.94 768.5,-587.64"/>
<polygon fill="black" stroke="black" points="767.37,-590.97 777.92,-591.91 770.26,-584.59 767.37,-590.97"/>
</g>
<!-- AG -->
<g id="node9" class="node">
<title>AG</title>
<polygon fill="none" stroke="black" points="1117.5,-116.92 992.5,-116.92 992.5,-80.92 1117.5,-80.92 1117.5,-116.92"/>
<text text-anchor="middle" x="1055" y="-96.12" font-family="monospace" font-size="11.00">Recipient Agents</text>
</g>
<!-- DL&#45;&gt;AG -->
<g id="edge11" class="edge">
<title>DL&#45;&gt;AG</title>
<path fill="none" stroke="black" d="M839.09,-357.75C878.73,-310.01 985.93,-180.91 1032.22,-125.15"/>
<polygon fill="black" stroke="black" points="1035.16,-127.1 1038.85,-117.17 1029.77,-122.62 1035.16,-127.1"/>
</g>
<!-- SC -->
<g id="node5" class="node">
<title>SC</title>
<polygon fill="none" stroke="black" points="1124,-546.92 986,-546.92 986,-510.92 1124,-510.92 1124,-546.92"/>
<text text-anchor="middle" x="1055" y="-526.12" font-family="monospace" font-size="11.00">Internal Scheduler</text>
</g>
<!-- SC&#45;&gt;WR -->
<g id="edge10" class="edge">
<title>SC&#45;&gt;WR</title>
<path fill="none" stroke="black" d="M1006.79,-510.78C903.76,-471.18 659.12,-377.15 548.29,-334.56"/>
<polygon fill="black" stroke="black" points="549.54,-331.29 538.95,-330.97 547.03,-337.82 549.54,-331.29"/>
<text text-anchor="middle" x="823" y="-464.92" font-family="monospace" font-size="10.00">tick due run</text>
</g>
<!-- SJ&#45;&gt;SC -->
<g id="edge9" class="edge">
<title>SJ&#45;&gt;SC</title>
<path fill="none" stroke="black" d="M875.33,-591.85C910.21,-579.56 956.5,-563.26 993.23,-550.33"/>
<polygon fill="black" stroke="black" points="994.56,-553.57 1002.83,-546.95 992.23,-546.97 994.56,-553.57"/>
</g>
<!-- AG&#45;&gt;GW -->
<g id="edge12" class="edge">
<title>AG&#45;&gt;GW</title>
<path fill="none" stroke="black" d="M1004.81,-80.79C895.45,-43.06 624.45,35.94 405,-18.92 361.8,-29.73 317.41,-55.59 288.25,-75"/>
<polygon fill="black" stroke="black" points="286.01,-72.29 279.7,-80.8 289.94,-78.08 286.01,-72.29"/>
<text text-anchor="middle" x="676" y="-10.92" font-family="monospace" font-size="10.00">callbacks</text>
</g>
</g>
</svg>
