<?xml version="1.0" encoding="UTF-8" standalone="no"?>
<!DOCTYPE svg PUBLIC "-//W3C//DTD SVG 1.1//EN"
 "http://www.w3.org/Graphics/SVG/1.1/DTD/svg11.dtd">
<!-- Generated by graphviz version 2.43.0 (0)
 -->
<!-- Title: conformance Pages: 1 -->
<svg width="1112pt" height="648pt"
 viewBox="0.00 0.00 1111.77 648.00" xmlns="http://www.w3.org/2000/svg" xmlns:xlink="http://www.w3.org/1999/xlink">
<g id="graph0" class="graph" transform="scale(0.92 0.92) rotate(0) translate(28.8 676.8)">
<title>conformance</title>
<polygon fill="white" stroke="transparent" points="-28.8,28.8 -28.8,-676.8 1181.79,-676.8 1181.79,28.8 -28.8,28.8"/>
<!-- SPEC -->
<g id="node1" class="node">
<title>SPEC</title>
<polygon fill="#1e40af" stroke="black" points="174.49,-338.64 37.49,-338.64 37.49,-302.64 174.49,-302.64 174.49,-338.64"/>
<text text-anchor="middle" x="105.99" y="-323.84" font-family="Helvetica,sans-Serif" font-size="11.00" fill="white">axme&#45;spec</text>
<text text-anchor="middle" x="105.99" y="-311.84" font-family="Helvetica,sans-Serif" font-size="11.00" fill="white">(schemas + OpenAPI)</text>
</g>
<!-- SDK -->
<g id="node2" class="node">
<title>SDK</title>
<polygon fill="#dbeafe" stroke="black" points="409.99,-606.64 329.99,-606.64 329.99,-570.64 409.99,-570.64 409.99,-606.64"/>
<text text-anchor="middle" x="369.99" y="-591.84" font-family="Helvetica,sans-Serif" font-size="11.00">axme&#45;sdk&#45;*</text>
<text text-anchor="middle" x="369.99" y="-579.84" font-family="Helvetica,sans-Serif" font-size="11.00">(SDK tests)</text>
</g>
<!-- SPEC&#45;&gt;SDK -->
<g id="edge1" class="edge">
<title>SPEC&#45;&gt;SDK</title>
<path fill="none" stroke="black" d="M124.59,-338.64C169.97,-385.06 291.1,-508.96 343.86,-562.92"/>
<polygon fill="black" stroke="black" points="341.64,-565.66 351.13,-570.36 346.64,-560.76 341.64,-565.66"/>
</g>
<!-- CONF -->
<g id="node3" class="node">
<title>CONF</title>
<polygon fill="#dbeafe" stroke="black" points="433.99,-430.64 305.99,-430.64 305.99,-394.64 433.99,-394.64 433.99,-430.64"/>
<text text-anchor="middle" x="369.99" y="-415.84" font-family="Helvetica,sans-Serif" font-size="11.00">axme&#45;conformance</text>
<text text-anchor="middle" x="369.99" y="-403.84" font-family="Helvetica,sans-Serif" font-size="11.00">(conformance suite)</text>
</g>
<!-- SPEC&#45;&gt;CONF -->
<g id="edge2" class="edge">
<title>SPEC&#45;&gt;CONF</title>
<path fill="none" stroke="black" d="M158.44,-338.7C201.35,-353.77 262.57,-375.26 307.94,-391.2"/>
<polygon fill="black" stroke="black" points="307.07,-394.6 317.66,-394.61 309.39,-388 307.07,-394.6"/>
</g>
<!-- CP -->
<g id="node4" class="node">
<title>CP</title>
<polygon fill="#dbeafe" stroke="black" points="431.49,-253.64 308.49,-253.64 308.49,-217.64 431.49,-217.64 431.49,-253.64"/>
<text text-anchor="middle" x="369.99" y="-238.84" font-family="Helvetica,sans-Serif" font-size="11.00">axme&#45;control&#45;plane</text>
<text text-anchor="middle" x="369.99" y="-226.84" font-family="Helvetica,sans-Serif" font-size="11.00">(runtime)</text>
</g>
<!-- SPEC&#45;&gt;CP -->
<g id="edge3" class="edge">
<title>SPEC&#45;&gt;CP</title>
<path fill="none" stroke="black" d="M162.56,-302.61C203.89,-289.2 260.43,-270.86 303.89,-256.76"/>
<polygon fill="black" stroke="black" points="305.08,-260.05 313.51,-253.64 302.92,-253.39 305.08,-260.05"/>
</g>
<!-- DOCS -->
<g id="node5" class="node">
<title>DOCS</title>
<polygon fill="#dbeafe" stroke="black" points="423.99,-76.64 315.99,-76.64 315.99,-40.64 423.99,-40.64 423.99,-76.64"/>
<text text-anchor="middle" x="369.99" y="-61.84" font-family="Helvetica,sans-Serif" font-size="11.00">axme&#45;docs</text>
<text text-anchor="middle" x="369.99" y="-49.84" font-family="Helvetica,sans-Serif" font-size="11.00">(documentation)</text>
</g>
<!-- SPEC&#45;&gt;DOCS -->
<g id="edge4" class="edge">
<title>SPEC&#45;&gt;DOCS</title>
<path fill="none" stroke="black" d="M125,-302.63C170.62,-257.01 290.85,-136.78 343.59,-84.05"/>
<polygon fill="black" stroke="black" points="346.26,-86.32 350.86,-76.77 341.31,-81.37 346.26,-86.32"/>
</g>
<!-- E2E -->
<g id="node6" class="node">
<title>E2E</title>
<polygon fill="#fef3c7" stroke="black" points="612.99,-430.64 544.99,-430.64 544.99,-394.64 612.99,-394.64 612.99,-430.64"/>
<text text-anchor="middle" x="578.99" y="-409.84" font-family="Helvetica,sans-Serif" font-size="11.00">E2E tests</text>
</g>
<!-- SDK&#45;&gt;E2E -->
<g id="edge5" class="edge">
<title>SDK&#45;&gt;E2E</title>
<path fill="none" stroke="black" d="M392.37,-570.46C429.73,-538.7 506.94,-473.05 549.05,-437.24"/>
<polygon fill="black" stroke="black" points="551.39,-439.85 556.74,-430.71 546.85,-434.52 551.39,-439.85"/>
</g>
<!-- CONF&#45;&gt;E2E -->
<g id="edge6" class="edge">
<title>CONF&#45;&gt;E2E</title>
<path fill="none" stroke="black" d="M434.23,-412.64C466.73,-412.64 505.52,-412.64 534.61,-412.64"/>
<polygon fill="black" stroke="black" points="534.86,-416.14 544.86,-412.64 534.86,-409.14 534.86,-416.14"/>
</g>
<!-- CP&#45;&gt;E2E -->
<g id="edge7" class="edge">
<title>CP&#45;&gt;E2E</title>
<path fill="none" stroke="black" d="M392.37,-253.91C429.73,-285.86 506.94,-351.88 549.05,-387.89"/>
<polygon fill="black" stroke="black" points="546.86,-390.62 556.74,-394.46 551.41,-385.3 546.86,-390.62"/>
</g>
<!-- RES -->
<g id="node7" class="node">
<title>RES</title>
<polygon fill="#fef3c7" stroke="black" points="752.99,-430.64 712.35,-412.64 752.99,-394.64 793.64,-412.64 752.99,-430.64"/>
<text text-anchor="middle" x="752.99" y="-409.84" font-family="Helvetica,sans-Serif" font-size="11.00">pass?</text>
</g>
<!-- E2E&#45;&gt;RES -->
<g id="edge8" class="edge">
<title>E2E&#45;&gt;RES</title>
<path fill="none" stroke="black" d="M613.16,-412.64C638.37,-412.64 673.48,-412.64 702.08,-412.64"/>
<polygon fill="black" stroke="black" points="702.29,-416.14 712.29,-412.64 702.29,-409.14 702.29,-416.14"/>
</g>
<!-- CERT -->
<g id="node8" class="node">
<title>CERT</title>
<polygon fill="#dcfce7" stroke="black" points="1094.49,-518.64 957.49,-518.64 957.49,-482.64 1094.49,-482.64 1094.49,-518.64"/>
<text text-anchor="middle" x="1025.99" y="-497.84" font-family="Helvetica,sans-Serif" font-size="11.00">conformance certified</text>
</g>
<!-- RES&#45;&gt;CERT -->
<g id="edge9" class="edge">
<title>RES&#45;&gt;CERT</title>
<path fill="none" stroke="black" d="M777.1,-420.14C817.11,-433.13 900.67,-460.27 959.69,-479.43"/>
<polygon fill="black" stroke="black" points="958.71,-482.79 969.3,-482.55 960.87,-476.14 958.71,-482.79"/>
<text text-anchor="middle" x="857.99" y="-451.64" font-family="Helvetica,sans-Serif" font-size="10.00">yes</text>
</g>
<!-- GAP -->
<g id="node9" class="node">
<title>GAP</title>
<polygon fill="#fee2e2" stroke="black" points="1107.49,-341.64 944.49,-341.64 944.49,-305.64 1107.49,-305.64 1107.49,-341.64"/>
<text text-anchor="middle" x="1025.99" y="-320.84" font-family="Helvetica,sans-Serif" font-size="11.00">gap → spec issue / impl fix</text>
</g>
<!-- RES&#45;&gt;GAP -->
<g id="edge10" class="edge">
<title>RES&#45;&gt;GAP</title>
<path fill="none" stroke="black" d="M777.1,-405.05C817.29,-391.85 901.43,-364.22 960.49,-344.82"/>
<polygon fill="black" stroke="black" points="961.7,-348.11 970.11,-341.66 959.52,-341.46 961.7,-348.11"/>
<text text-anchor="middle" x="857.99" y="-383.64" font-family="Helvetica,sans-Serif" font-size="10.00">no</text>
</g>
</g>
</svg>
