<?xml version="1.0" encoding="UTF-8" standalone="no"?>
<!DOCTYPE svg PUBLIC "-//W3C//DTD SVG 1.1//EN"
 "http://www.w3.org/Graphics/SVG/1.1/DTD/svg11.dtd">
<!-- Generated by graphviz version 2.43.0 (0)
 -->
<!-- Title: rate_limit Pages: 1 -->
<svg width="1111pt" height="648pt"
 viewBox="0.00 0.00 1111.43 648.00" xmlns="http://www.w3.org/2000/svg" xmlns:xlink="http://www.w3.org/1999/xlink">
<g id="graph0" class="graph" transform="scale(0.92 0.92) rotate(0) translate(28.8 676.8)">
<title>rate_limit</title>
<polygon fill="white" stroke="transparent" points="-28.8,28.8 -28.8,-676.8 1181.43,-676.8 1181.43,28.8 -28.8,28.8"/>
<!-- REQ -->
<g id="node1" class="node">
<title>REQ</title>
<polygon fill="#1e40af" stroke="black" points="95.13,-114.22 12.13,-114.22 12.13,-78.22 95.13,-78.22 95.13,-114.22"/>
<text text-anchor="middle" x="53.63" y="-93.42" font-family="Helvetica,sans-Serif" font-size="11.00" fill="white">API Request</text>
</g>
<!-- CHK -->
<g id="node2" class="node">
<title>CHK</title>
<polygon fill="#fef3c7" stroke="black" points="265.63,-263.22 178.64,-245.22 265.63,-227.22 352.61,-245.22 265.63,-263.22"/>
<text text-anchor="middle" x="265.63" y="-242.42" font-family="Helvetica,sans-Serif" font-size="11.00">rate limit check</text>
</g>
<!-- REQ&#45;&gt;CHK -->
<g id="edge1" class="edge">
<title>REQ&#45;&gt;CHK</title>
<path fill="none" stroke="black" d="M80.38,-114.49C120.05,-142.64 195.81,-196.39 236.74,-225.43"/>
<polygon fill="black" stroke="black" points="234.74,-228.3 244.92,-231.23 238.79,-222.59 234.74,-228.3"/>
</g>
<!-- ALLOW -->
<g id="node3" class="node">
<title>ALLOW</title>
<polygon fill="#dcfce7" stroke="black" points="650.13,-499.22 545.13,-499.22 545.13,-463.22 650.13,-463.22 650.13,-499.22"/>
<text text-anchor="middle" x="597.63" y="-478.42" font-family="Helvetica,sans-Serif" font-size="11.00">process request</text>
</g>
<!-- CHK&#45;&gt;ALLOW -->
<g id="edge2" class="edge">
<title>CHK&#45;&gt;ALLOW</title>
<path fill="none" stroke="black" d="M286.28,-259.27C340.84,-298.29 494.62,-408.27 563.06,-457.21"/>
<polygon fill="black" stroke="black" points="561.19,-460.17 571.36,-463.14 565.26,-454.48 561.19,-460.17"/>
<text text-anchor="middle" x="440.63" y="-394.22" font-family="Helvetica,sans-Serif" font-size="10.00">within quota</text>
</g>
<!-- DENY -->
<g id="node4" class="node">
<title>DENY</title>
<polygon fill="#fee2e2" stroke="black" points="671.13,-263.22 524.13,-263.22 524.13,-227.22 671.13,-227.22 671.13,-263.22"/>
<text text-anchor="middle" x="597.63" y="-248.42" font-family="Helvetica,sans-Serif" font-size="11.00">429 Too Many Requests</text>
<text text-anchor="middle" x="597.63" y="-236.42" font-family="Helvetica,sans-Serif" font-size="11.00">(Retry&#45;After header)</text>
</g>
<!-- CHK&#45;&gt;DENY -->
<g id="edge3" class="edge">
<title>CHK&#45;&gt;DENY</title>
<path fill="none" stroke="black" d="M352.47,-245.22C402.21,-245.22 464.53,-245.22 513.76,-245.22"/>
<polygon fill="black" stroke="black" points="514.06,-248.72 524.06,-245.22 514.06,-241.72 514.06,-248.72"/>
<text text-anchor="middle" x="440.63" y="-248.22" font-family="Helvetica,sans-Serif" font-size="10.00">exceeded</text>
</g>
<!-- RESP -->
<g id="node5" class="node">
<title>RESP</title>
<polygon fill="#dcfce7" stroke="black" points="875.13,-587.22 808.13,-587.22 808.13,-551.22 875.13,-551.22 875.13,-587.22"/>
<text text-anchor="middle" x="841.63" y="-566.42" font-family="Helvetica,sans-Serif" font-size="11.00">response</text>
</g>
<!-- ALLOW&#45;&gt;RESP -->
<g id="edge4" class="edge">
<title>ALLOW&#45;&gt;RESP</title>
<path fill="none" stroke="black" d="M648.18,-499.24C692.35,-515.3 756.3,-538.55 798.16,-553.78"/>
<polygon fill="black" stroke="black" points="797.19,-557.15 807.79,-557.27 799.58,-550.57 797.19,-557.15"/>
</g>
<!-- DED -->
<g id="node7" class="node">
<title>DED</title>
<polygon fill="#dbeafe" stroke="black" points="921.13,-351.22 762.13,-351.22 762.13,-315.22 921.13,-315.22 921.13,-351.22"/>
<text text-anchor="middle" x="841.63" y="-330.42" font-family="Helvetica,sans-Serif" font-size="11.00">deduct from quota bucket</text>
</g>
<!-- ALLOW&#45;&gt;DED -->
<g id="edge5" class="edge">
<title>ALLOW&#45;&gt;DED</title>
<path fill="none" stroke="black" d="M628.3,-463.07C672.14,-436.26 754.23,-386.05 802.49,-356.54"/>
<polygon fill="black" stroke="black" points="804.38,-359.48 811.09,-351.28 800.73,-353.51 804.38,-359.48"/>
</g>
<!-- CLI -->
<g id="node6" class="node">
<title>CLI</title>
<polygon fill="#dbeafe" stroke="black" points="891.63,-97.22 791.63,-97.22 791.63,-61.22 891.63,-61.22 891.63,-97.22"/>
<text text-anchor="middle" x="841.63" y="-76.42" font-family="Helvetica,sans-Serif" font-size="11.00">client backs off</text>
</g>
<!-- DENY&#45;&gt;CLI -->
<g id="edge7" class="edge">
<title>DENY&#45;&gt;CLI</title>
<path fill="none" stroke="black" d="M624.98,-227.14C668.9,-197.01 757.03,-136.56 805.93,-103.01"/>
<polygon fill="black" stroke="black" points="808.03,-105.82 814.3,-97.27 804.07,-100.05 808.03,-105.82"/>
</g>
<!-- CLI&#45;&gt;REQ -->
<g id="edge8" class="edge">
<title>CLI&#45;&gt;REQ</title>
<path fill="none" stroke="black" d="M791.41,-80.28C650.77,-83.32 248.05,-92.03 105.44,-95.12"/>
<polygon fill="black" stroke="black" points="105.15,-91.62 95.23,-95.34 105.3,-98.62 105.15,-91.62"/>
</g>
<!-- REF -->
<g id="node8" class="node">
<title>REF</title>
<polygon fill="#dbeafe" stroke="black" points="1135.13,-351.22 1010.13,-351.22 1010.13,-315.22 1135.13,-315.22 1135.13,-351.22"/>
<text text-anchor="middle" x="1072.63" y="-330.42" font-family="Helvetica,sans-Serif" font-size="11.00">sliding window refill</text>
</g>
<!-- DED&#45;&gt;REF -->
<g id="edge6" class="edge">
<title>DED&#45;&gt;REF</title>
<path fill="none" stroke="black" d="M921.43,-333.22C946.91,-333.22 974.99,-333.22 999.92,-333.22"/>
<polygon fill="black" stroke="black" points="1000.03,-336.72 1010.03,-333.22 1000.03,-329.72 1000.03,-336.72"/>
</g>
</g>
</svg>
