<?xml version="1.0" encoding="UTF-8" standalone="no"?>
<!DOCTYPE svg PUBLIC "-//W3C//DTD SVG 1.1//EN"
 "http://www.w3.org/Graphics/SVG/1.1/DTD/svg11.dtd">
<!-- Generated by graphviz version 2.43.0 (0)
 -->
<!-- Title: policy_anatomy Pages: 1 -->
<svg width="1112pt" height="648pt"
 viewBox="0.00 0.00 1111.94 648.00" xmlns="http://www.w3.org/2000/svg" xmlns:xlink="http://www.w3.org/1999/xlink">
<g id="graph0" class="graph" transform="scale(0.92 0.92) rotate(0) translate(28.8 676.8)">
<title>policy_anatomy</title>
<polygon fill="white" stroke="transparent" points="-28.8,28.8 -28.8,-676.8 1181.98,-676.8 1181.98,28.8 -28.8,28.8"/>
<!-- CORE -->
<g id="node1" class="node">
<title>CORE</title>
<polygon fill="none" stroke="black" points="213.68,-132.47 46.68,-132.47 46.68,-136.47 34.68,-136.47 34.68,-96.47 213.68,-96.47 213.68,-132.47"/>
<polyline fill="none" stroke="black" points="34.68,-132.47 46.68,-132.47 "/>
<text text-anchor="middle" x="124.18" y="-117.67" font-family="monospace" font-size="11.00">Intent Core</text>
<text text-anchor="middle" x="124.18" y="-105.67" font-family="monospace" font-size="11.00">(immutable after create)</text>
</g>
<!-- C_id -->
<g id="node2" class="node">
<title>C_id</title>
<polygon fill="none" stroke="black" points="518.68,-225.47 441.68,-225.47 441.68,-189.47 518.68,-189.47 518.68,-225.47"/>
<text text-anchor="middle" x="480.18" y="-204.67" font-family="monospace" font-size="11.00">intent_id</text>
</g>
<!-- CORE&#45;&gt;C_id -->
<g id="edge1" class="edge">
<title>CORE&#45;&gt;C_id</title>
<path fill="none" stroke="black" d="M193.85,-132.51C263.75,-150.87 370.28,-178.86 431.46,-194.93"/>
<polygon fill="black" stroke="black" points="430.68,-198.34 441.24,-197.5 432.46,-191.57 430.68,-198.34"/>
</g>
<!-- C_type -->
<g id="node3" class="node">
<title>C_type</title>
<polygon fill="none" stroke="black" points="525.68,-163.47 434.68,-163.47 434.68,-127.47 525.68,-127.47 525.68,-163.47"/>
<text text-anchor="middle" x="480.18" y="-142.67" font-family="monospace" font-size="11.00">intent_type</text>
</g>
<!-- CORE&#45;&gt;C_type -->
<g id="edge2" class="edge">
<title>CORE&#45;&gt;C_type</title>
<path fill="none" stroke="black" d="M214.05,-122.25C280.18,-128.04 368.35,-135.76 424.46,-140.67"/>
<polygon fill="black" stroke="black" points="424.28,-144.17 434.55,-141.56 424.9,-137.2 424.28,-144.17"/>
</g>
<!-- C_agents -->
<g id="node4" class="node">
<title>C_agents</title>
<polygon fill="none" stroke="black" points="559.18,-101.47 401.18,-101.47 401.18,-65.47 559.18,-65.47 559.18,-101.47"/>
<text text-anchor="middle" x="480.18" y="-80.67" font-family="monospace" font-size="11.00">from_agent / to_agent</text>
</g>
<!-- CORE&#45;&gt;C_agents -->
<g id="edge3" class="edge">
<title>CORE&#45;&gt;C_agents</title>
<path fill="none" stroke="black" d="M214.05,-106.68C268.12,-101.95 336.91,-95.92 390.88,-91.2"/>
<polygon fill="black" stroke="black" points="391.46,-94.66 401.12,-90.3 390.85,-87.69 391.46,-94.66"/>
</g>
<!-- C_payload -->
<g id="node5" class="node">
<title>C_payload</title>
<polygon fill="none" stroke="black" points="552.68,-38.47 407.68,-38.47 407.68,-2.47 552.68,-2.47 552.68,-38.47"/>
<text text-anchor="middle" x="480.18" y="-17.67" font-family="monospace" font-size="11.00">payload (free JSON)</text>
</g>
<!-- CORE&#45;&gt;C_payload -->
<g id="edge4" class="edge">
<title>CORE&#45;&gt;C_payload</title>
<path fill="none" stroke="black" d="M193.02,-96.45C252.57,-80.64 339.17,-57.64 401.49,-41.1"/>
<polygon fill="black" stroke="black" points="402.51,-44.45 411.27,-38.5 400.71,-37.68 402.51,-44.45"/>
</g>
<!-- POLICY -->
<g id="node6" class="node">
<title>POLICY</title>
<polygon fill="none" stroke="black" points="566.18,-470.47 406.18,-470.47 406.18,-474.47 394.18,-474.47 394.18,-434.47 566.18,-434.47 566.18,-470.47"/>
<polyline fill="none" stroke="black" points="394.18,-470.47 406.18,-470.47 "/>
<text text-anchor="middle" x="480.18" y="-455.67" font-family="monospace" font-size="11.00">workflow_control_policy</text>
<text text-anchor="middle" x="480.18" y="-443.67" font-family="monospace" font-size="11.00">(mutable)</text>
</g>
<!-- GRANTS -->
<g id="node7" class="node">
<title>GRANTS</title>
<polygon fill="none" stroke="black" points="734.68,-594.47 677.68,-594.47 677.68,-558.47 734.68,-558.47 734.68,-594.47"/>
<text text-anchor="middle" x="706.18" y="-573.67" font-family="monospace" font-size="11.00">grants</text>
</g>
<!-- POLICY&#45;&gt;GRANTS -->
<g id="edge5" class="edge">
<title>POLICY&#45;&gt;GRANTS</title>
<path fill="none" stroke="black" d="M513.75,-470.5C554.9,-493.28 625.52,-532.37 668.52,-556.17"/>
<polygon fill="black" stroke="black" points="667.07,-559.37 677.51,-561.15 670.46,-553.25 667.07,-559.37"/>
</g>
<!-- CONTROLS -->
<g id="node8" class="node">
<title>CONTROLS</title>
<polygon fill="none" stroke="black" points="741.68,-486.47 670.68,-486.47 670.68,-450.47 741.68,-450.47 741.68,-486.47"/>
<text text-anchor="middle" x="706.18" y="-465.67" font-family="monospace" font-size="11.00">controls</text>
</g>
<!-- POLICY&#45;&gt;CONTROLS -->
<g id="edge7" class="edge">
<title>POLICY&#45;&gt;CONTROLS</title>
<path fill="none" stroke="black" d="M566.18,-458.54C598.2,-460.82 633.34,-463.33 660.28,-465.26"/>
<polygon fill="black" stroke="black" points="660.32,-468.77 670.55,-465.99 660.82,-461.79 660.32,-468.77"/>
</g>
<!-- ENVELOPE -->
<g id="node9" class="node">
<title>ENVELOPE</title>
<polygon fill="none" stroke="black" points="741.68,-418.47 670.68,-418.47 670.68,-382.47 741.68,-382.47 741.68,-418.47"/>
<text text-anchor="middle" x="706.18" y="-397.67" font-family="monospace" font-size="11.00">envelope</text>
</g>
<!-- POLICY&#45;&gt;ENVELOPE -->
<g id="edge9" class="edge">
<title>POLICY&#45;&gt;ENVELOPE</title>
<path fill="none" stroke="black" d="M558.89,-434.43C592.92,-426.53 631.61,-417.54 660.66,-410.8"/>
<polygon fill="black" stroke="black" points="661.55,-414.19 670.5,-408.52 659.97,-407.37 661.55,-414.19"/>
</g>
<!-- G1 -->
<g id="node10" class="node">
<title>G1</title>
<polygon fill="none" stroke="black" points="1125.18,-644.47 899.18,-644.47 899.18,-600.47 1125.18,-600.47 1125.18,-644.47"/>
<text text-anchor="middle" x="1012.18" y="-631.67" font-family="monospace" font-size="11.00">delegate:agent://ops</text>
<text text-anchor="middle" x="1012.18" y="-619.67" font-family="monospace" font-size="11.00">allow=[resume, update_controls,</text>
<text text-anchor="middle" x="1012.18" y="-607.67" font-family="monospace" font-size="11.00">update_policy]</text>
</g>
<!-- GRANTS&#45;&gt;G1 -->
<g id="edge6" class="edge">
<title>GRANTS&#45;&gt;G1</title>
<path fill="none" stroke="black" d="M734.69,-580.63C769.58,-585.91 832.02,-595.36 888.74,-603.94"/>
<polygon fill="black" stroke="black" points="888.48,-607.44 898.89,-605.48 889.53,-600.52 888.48,-607.44"/>
</g>
<!-- CT1 -->
<g id="node11" class="node">
<title>CT1</title>
<polygon fill="none" stroke="black" points="1071.18,-573.47 953.18,-573.47 953.18,-537.47 1071.18,-537.47 1071.18,-573.47"/>
<text text-anchor="middle" x="1012.18" y="-552.67" font-family="monospace" font-size="11.00">timeout_seconds</text>
</g>
<!-- CONTROLS&#45;&gt;CT1 -->
<g id="edge8" class="edge">
<title>CONTROLS&#45;&gt;CT1</title>
<path fill="none" stroke="black" d="M741.88,-485.87C757.69,-493.29 776.83,-501.58 794.68,-507.47 843.25,-523.49 899.71,-535.81 942.8,-543.96"/>
<polygon fill="black" stroke="black" points="942.42,-547.45 952.89,-545.83 943.7,-540.56 942.42,-547.45"/>
</g>
<!-- E1 -->
<g id="node12" class="node">
<title>E1</title>
<polygon fill="none" stroke="black" points="1071.18,-324.47 953.18,-324.47 953.18,-288.47 1071.18,-288.47 1071.18,-324.47"/>
<text text-anchor="middle" x="1012.18" y="-303.67" font-family="monospace" font-size="11.00">max_retry_count</text>
</g>
<!-- ENVELOPE&#45;&gt;E1 -->
<g id="edge10" class="edge">
<title>ENVELOPE&#45;&gt;E1</title>
<path fill="none" stroke="black" d="M741.76,-389.77C790.58,-374.68 880.72,-346.81 943.22,-327.48"/>
<polygon fill="black" stroke="black" points="944.48,-330.75 953,-324.46 942.41,-324.07 944.48,-330.75"/>
</g>
<!-- E2 -->
<g id="node13" class="node">
<title>E2</title>
<polygon fill="none" stroke="black" points="1091.18,-262.47 933.18,-262.47 933.18,-226.47 1091.18,-226.47 1091.18,-262.47"/>
<text text-anchor="middle" x="1012.18" y="-241.67" font-family="monospace" font-size="11.00">retry_backoff_seconds</text>
</g>
<!-- ENVELOPE&#45;&gt;E2 -->
<g id="edge11" class="edge">
<title>ENVELOPE&#45;&gt;E2</title>
<path fill="none" stroke="black" d="M731.17,-382.45C766.41,-356.68 834.97,-309.12 899.18,-279.47 910.09,-274.43 921.92,-269.85 933.66,-265.8"/>
<polygon fill="black" stroke="black" points="935.11,-269 943.48,-262.51 932.89,-262.36 935.11,-269"/>
</g>
<!-- E3 -->
<g id="node14" class="node">
<title>E3</title>
<polygon fill="none" stroke="black" points="1104.68,-511.47 919.68,-511.47 919.68,-475.47 1104.68,-475.47 1104.68,-511.47"/>
<text text-anchor="middle" x="1012.18" y="-490.67" font-family="monospace" font-size="11.00">execution_timeout_seconds</text>
</g>
<!-- ENVELOPE&#45;&gt;E3 -->
<g id="edge12" class="edge">
<title>ENVELOPE&#45;&gt;E3</title>
<path fill="none" stroke="black" d="M741.76,-411.04C790.36,-425.91 879.9,-453.31 942.37,-472.42"/>
<polygon fill="black" stroke="black" points="941.56,-475.83 952.15,-475.41 943.61,-469.14 941.56,-475.83"/>
</g>
<!-- E4 -->
<g id="node15" class="node">
<title>E4</title>
<polygon fill="none" stroke="black" points="1057.68,-449.47 966.68,-449.47 966.68,-413.47 1057.68,-413.47 1057.68,-449.47"/>
<text text-anchor="middle" x="1012.18" y="-428.67" font-family="monospace" font-size="11.00">ttl_seconds</text>
</g>
<!-- ENVELOPE&#45;&gt;E4 -->
<g id="edge13" class="edge">
<title>ENVELOPE&#45;&gt;E4</title>
<path fill="none" stroke="black" d="M741.76,-403.99C794.16,-409.34 894.18,-419.54 956.51,-425.89"/>
<polygon fill="black" stroke="black" points="956.25,-429.38 966.56,-426.92 956.96,-422.42 956.25,-429.38"/>
</g>
<!-- E5 -->
<g id="node16" class="node">
<title>E5</title>
<polygon fill="none" stroke="black" points="1054.18,-387.47 970.18,-387.47 970.18,-351.47 1054.18,-351.47 1054.18,-387.47"/>
<text text-anchor="middle" x="1012.18" y="-366.67" font-family="monospace" font-size="11.00">expires_at</text>
</g>
<!-- ENVELOPE&#45;&gt;E5 -->
<g id="edge14" class="edge">
<title>ENVELOPE&#45;&gt;E5</title>
<path fill="none" stroke="black" d="M741.76,-396.94C795.12,-391.5 897.86,-381.02 959.89,-374.7"/>
<polygon fill="black" stroke="black" points="960.27,-378.18 969.86,-373.68 959.56,-371.21 960.27,-378.18"/>
</g>
<!-- GEN -->
<g id="node17" class="node">
<title>GEN</title>
<polygon fill="none" stroke="black" points="562.68,-404.47 397.68,-404.47 397.68,-368.47 562.68,-368.47 562.68,-404.47"/>
<text text-anchor="middle" x="480.18" y="-389.67" font-family="monospace" font-size="11.00">policy_generation</text>
<text text-anchor="middle" x="480.18" y="-377.67" font-family="monospace" font-size="11.00">(integer, starts at 0)</text>
</g>
<!-- CAS -->
<g id="node19" class="node">
<title>CAS</title>
<polygon fill="none" stroke="black" points="706.18,-344.47 657.73,-326.47 706.18,-308.47 754.63,-326.47 706.18,-344.47"/>
<text text-anchor="middle" x="706.18" y="-323.67" font-family="monospace" font-size="11.00">match?</text>
</g>
<!-- GEN&#45;&gt;CAS -->
<g id="edge18" class="edge">
<title>GEN&#45;&gt;CAS</title>
<path fill="none" stroke="black" d="M548.39,-368.46C587.34,-358.03 634.95,-345.28 667.42,-336.58"/>
<polygon fill="black" stroke="black" points="668.64,-339.88 677.4,-333.91 666.83,-333.11 668.64,-339.88"/>
</g>
<!-- EXP -->
<g id="node18" class="node">
<title>EXP</title>
<polygon fill="none" stroke="black" points="576.18,-287.47 384.18,-287.47 384.18,-251.47 576.18,-251.47 576.18,-287.47"/>
<text text-anchor="middle" x="480.18" y="-272.67" font-family="monospace" font-size="11.00">expected_policy_generation</text>
<text text-anchor="middle" x="480.18" y="-260.67" font-family="monospace" font-size="11.00">(sent by caller)</text>
</g>
<!-- EXP&#45;&gt;CAS -->
<g id="edge17" class="edge">
<title>EXP&#45;&gt;CAS</title>
<path fill="none" stroke="black" d="M552.05,-287.5C590.06,-297.17 635.39,-308.71 666.83,-316.71"/>
<polygon fill="black" stroke="black" points="666.37,-320.2 676.92,-319.28 668.09,-313.42 666.37,-320.2"/>
</g>
<!-- APPLY -->
<g id="node20" class="node">
<title>APPLY</title>
<polygon fill="lightgreen" stroke="black" points="176.18,-404.47 72.18,-404.47 72.18,-368.47 176.18,-368.47 176.18,-404.47"/>
<text text-anchor="middle" x="124.18" y="-389.67" font-family="monospace" font-size="11.00">atomic update</text>
<text text-anchor="middle" x="124.18" y="-377.67" font-family="monospace" font-size="11.00">generation++</text>
</g>
<!-- CAS&#45;&gt;APPLY -->
<g id="edge19" class="edge">
<title>CAS&#45;&gt;APPLY</title>
<path fill="none" stroke="black" d="M662.51,-328.34C600.92,-331.28 483.6,-337.78 384.18,-348.47 316.4,-355.75 239.13,-367.54 186.76,-376.06"/>
<polygon fill="black" stroke="black" points="185.93,-372.65 176.63,-377.72 187.06,-379.56 185.93,-372.65"/>
<text text-anchor="middle" x="480.18" y="-351.47" font-family="monospace" font-size="10.00">match</text>
</g>
<!-- CONFLICT -->
<g id="node21" class="node">
<title>CONFLICT</title>
<polygon fill="lightyellow" stroke="black" points="1067.68,-200.47 956.68,-200.47 956.68,-164.47 1067.68,-164.47 1067.68,-200.47"/>
<text text-anchor="middle" x="1012.18" y="-185.67" font-family="monospace" font-size="11.00">409 conflict</text>
<text text-anchor="middle" x="1012.18" y="-173.67" font-family="monospace" font-size="11.00">(stale writer)</text>
</g>
<!-- CAS&#45;&gt;CONFLICT -->
<g id="edge20" class="edge">
<title>CAS&#45;&gt;CONFLICT</title>
<path fill="none" stroke="black" d="M714.78,-311.5C727.7,-287.74 756.32,-241.81 794.68,-219.47 840.79,-192.62 901.17,-184.07 946.44,-181.83"/>
<polygon fill="black" stroke="black" points="946.6,-185.33 956.45,-181.43 946.31,-178.33 946.6,-185.33"/>
<text text-anchor="middle" x="819.18" y="-222.47" font-family="monospace" font-size="10.00">mismatch</text>
</g>
<!-- APPLY&#45;&gt;POLICY -->
<g id="edge21" class="edge">
<title>APPLY&#45;&gt;POLICY</title>
<path fill="none" stroke="black" d="M176.28,-395.99C230.37,-406.08 316.98,-422.23 383.76,-434.68"/>
<polygon fill="black" stroke="black" points="383.41,-438.17 393.88,-436.56 384.69,-431.29 383.41,-438.17"/>
<text text-anchor="middle" x="304.18" y="-426.47" font-family="monospace" font-size="10.00">update</text>
</g>
<!-- APPLY&#45;&gt;GEN -->
<g id="edge22" class="edge">
<title>APPLY&#45;&gt;GEN</title>
<path fill="none" stroke="black" d="M176.28,-386.47C231.37,-386.47 320.2,-386.47 387.45,-386.47"/>
<polygon fill="black" stroke="black" points="387.63,-389.97 397.63,-386.47 387.63,-382.97 387.63,-389.97"/>
<text text-anchor="middle" x="304.18" y="-389.47" font-family="monospace" font-size="10.00">increment</text>
</g>
<!-- EP1 -->
<g id="node22" class="node">
<title>EP1</title>
<polygon fill="none" stroke="black" points="223.68,-318.47 24.68,-318.47 24.68,-282.47 223.68,-282.47 223.68,-318.47"/>
<text text-anchor="middle" x="124.18" y="-297.67" font-family="monospace" font-size="11.00">POST /intents/{id}/controls</text>
</g>
<!-- EP1&#45;&gt;EXP -->
<g id="edge15" class="edge">
<title>EP1&#45;&gt;EXP</title>
<path fill="none" stroke="black" d="M223.79,-291.83C270.58,-287.73 326.54,-282.83 374.13,-278.67"/>
<polygon fill="black" stroke="black" points="374.49,-282.15 384.15,-277.79 373.88,-275.17 374.49,-282.15"/>
</g>
<!-- EP2 -->
<g id="node23" class="node">
<title>EP2</title>
<polygon fill="none" stroke="black" points="216.68,-256.47 31.68,-256.47 31.68,-220.47 216.68,-220.47 216.68,-256.47"/>
<text text-anchor="middle" x="124.18" y="-235.67" font-family="monospace" font-size="11.00">POST /intents/{id}/policy</text>
</g>
<!-- EP2&#45;&gt;EXP -->
<g id="edge16" class="edge">
<title>EP2&#45;&gt;EXP</title>
<path fill="none" stroke="black" d="M216.8,-246.49C264.81,-250.69 323.84,-255.86 373.75,-260.23"/>
<polygon fill="black" stroke="black" points="373.66,-263.74 383.92,-261.12 374.27,-256.77 373.66,-263.74"/>
</g>
</g>
</svg>
