<?xml version="1.0" encoding="UTF-8" standalone="no"?>
<!DOCTYPE svg PUBLIC "-//W3C//DTD SVG 1.1//EN"
 "http://www.w3.org/Graphics/SVG/1.1/DTD/svg11.dtd">
<!-- Generated by graphviz version 2.43.0 (0)
 -->
<!-- Title: waiting_branches Pages: 1 -->
<svg width="1114pt" height="648pt"
 viewBox="0.00 0.00 1113.53 648.00" xmlns="http://www.w3.org/2000/svg" xmlns:xlink="http://www.w3.org/1999/xlink">
<g id="graph0" class="graph" transform="scale(0.81 0.81) rotate(0) translate(28.8 771.02)">
<title>waiting_branches</title>
<polygon fill="white" stroke="transparent" points="-28.8,28.8 -28.8,-771.02 1345.61,-771.02 1345.61,28.8 -28.8,28.8"/>
<!-- WAITING -->
<g id="node1" class="node">
<title>WAITING</title>
<ellipse fill="lightyellow" stroke="black" cx="44.81" cy="-70.48" rx="45.01" ry="22.76"/>
<text text-anchor="middle" x="44.81" y="-73.68" font-family="monospace" font-size="11.00">Intent</text>
<text text-anchor="middle" x="44.81" y="-61.68" font-family="monospace" font-size="11.00">WAITING</text>
</g>
<!-- WHY -->
<g id="node2" class="node">
<title>WHY</title>
<polygon fill="none" stroke="black" points="227.81,-365.48 127.62,-347.48 227.81,-329.48 328.01,-347.48 227.81,-365.48"/>
<text text-anchor="middle" x="227.81" y="-344.68" font-family="monospace" font-size="11.00">waiting_reason?</text>
</g>
<!-- WAITING&#45;&gt;WHY -->
<g id="edge1" class="edge">
<title>WAITING&#45;&gt;WHY</title>
<path fill="none" stroke="black" d="M60.02,-92.22C93.18,-142.98 175.57,-269.06 210.62,-322.69"/>
<polygon fill="black" stroke="black" points="207.81,-324.79 216.21,-331.25 213.67,-320.96 207.81,-324.79"/>
</g>
<!-- W_HUMAN -->
<g id="node3" class="node">
<title>W_HUMAN</title>
<polygon fill="none" stroke="black" points="496.31,-703.48 365.31,-703.48 365.31,-667.48 496.31,-667.48 496.31,-703.48"/>
<text text-anchor="middle" x="430.81" y="-682.68" font-family="monospace" font-size="11.00">WAITING_FOR_HUMAN</text>
</g>
<!-- WHY&#45;&gt;W_HUMAN -->
<g id="edge2" class="edge">
<title>WHY&#45;&gt;W_HUMAN</title>
<path fill="none" stroke="black" d="M238.51,-363.79C270.64,-417.82 373.86,-591.39 413.81,-658.57"/>
<polygon fill="black" stroke="black" points="410.9,-660.52 419.01,-667.32 416.91,-656.94 410.9,-660.52"/>
</g>
<!-- W_TOOL -->
<g id="node4" class="node">
<title>W_TOOL</title>
<polygon fill="none" stroke="black" points="493.31,-534.48 368.31,-534.48 368.31,-498.48 493.31,-498.48 493.31,-534.48"/>
<text text-anchor="middle" x="430.81" y="-513.68" font-family="monospace" font-size="11.00">WAITING_FOR_TOOL</text>
</g>
<!-- WHY&#45;&gt;W_TOOL -->
<g id="edge3" class="edge">
<title>WHY&#45;&gt;W_TOOL</title>
<path fill="none" stroke="black" d="M246.3,-362.19C280.85,-391.23 358.16,-456.24 400.58,-491.91"/>
<polygon fill="black" stroke="black" points="398.42,-494.66 408.33,-498.42 402.93,-489.31 398.42,-494.66"/>
</g>
<!-- W_AGENT -->
<g id="node5" class="node">
<title>W_AGENT</title>
<polygon fill="none" stroke="black" points="496.31,-365.48 365.31,-365.48 365.31,-329.48 496.31,-329.48 496.31,-365.48"/>
<text text-anchor="middle" x="430.81" y="-344.68" font-family="monospace" font-size="11.00">WAITING_FOR_AGENT</text>
</g>
<!-- WHY&#45;&gt;W_AGENT -->
<g id="edge4" class="edge">
<title>WHY&#45;&gt;W_AGENT</title>
<path fill="none" stroke="black" d="M328.14,-347.48C337.17,-347.48 346.21,-347.48 354.97,-347.48"/>
<polygon fill="black" stroke="black" points="355.11,-350.98 365.11,-347.48 355.11,-343.98 355.11,-350.98"/>
</g>
<!-- W_TIME -->
<g id="node6" class="node">
<title>W_TIME</title>
<polygon fill="none" stroke="black" points="493.31,-195.48 368.31,-195.48 368.31,-159.48 493.31,-159.48 493.31,-195.48"/>
<text text-anchor="middle" x="430.81" y="-174.68" font-family="monospace" font-size="11.00">WAITING_FOR_TIME</text>
</g>
<!-- WHY&#45;&gt;W_TIME -->
<g id="edge5" class="edge">
<title>WHY&#45;&gt;W_TIME</title>
<path fill="none" stroke="black" d="M246.3,-332.69C280.85,-303.48 358.16,-238.08 400.58,-202.21"/>
<polygon fill="black" stroke="black" points="402.96,-204.78 408.33,-195.65 398.43,-199.44 402.96,-204.78"/>
</g>
<!-- T_HUMAN -->
<g id="node7" class="node">
<title>T_HUMAN</title>
<polygon fill="none" stroke="black" points="690.81,-703.48 532.81,-703.48 532.81,-667.48 690.81,-667.48 690.81,-703.48"/>
<text text-anchor="middle" x="611.81" y="-688.68" font-family="monospace" font-size="11.00">POST /resume</text>
<text text-anchor="middle" x="611.81" y="-676.68" font-family="monospace" font-size="11.00">(approve or continue)</text>
</g>
<!-- W_HUMAN&#45;&gt;T_HUMAN -->
<g id="edge6" class="edge">
<title>W_HUMAN&#45;&gt;T_HUMAN</title>
<path fill="none" stroke="black" d="M496.44,-685.48C504.86,-685.48 513.6,-685.48 522.33,-685.48"/>
<polygon fill="black" stroke="black" points="522.55,-688.98 532.55,-685.48 522.55,-681.98 522.55,-688.98"/>
</g>
<!-- T_TOOL -->
<g id="node8" class="node">
<title>T_TOOL</title>
<polygon fill="none" stroke="black" points="667.31,-534.48 556.31,-534.48 556.31,-498.48 667.31,-498.48 667.31,-534.48"/>
<text text-anchor="middle" x="611.81" y="-519.68" font-family="monospace" font-size="11.00">tool result</text>
<text text-anchor="middle" x="611.81" y="-507.68" font-family="monospace" font-size="11.00">event ingested</text>
</g>
<!-- W_TOOL&#45;&gt;T_TOOL -->
<g id="edge7" class="edge">
<title>W_TOOL&#45;&gt;T_TOOL</title>
<path fill="none" stroke="black" d="M493.42,-516.48C510.33,-516.48 528.73,-516.48 545.83,-516.48"/>
<polygon fill="black" stroke="black" points="546.28,-519.98 556.28,-516.48 546.28,-512.98 546.28,-519.98"/>
</g>
<!-- T_AGENT -->
<g id="node9" class="node">
<title>T_AGENT</title>
<polygon fill="none" stroke="black" points="680.81,-365.48 542.81,-365.48 542.81,-329.48 680.81,-329.48 680.81,-365.48"/>
<text text-anchor="middle" x="611.81" y="-350.68" font-family="monospace" font-size="11.00">agent continuation</text>
<text text-anchor="middle" x="611.81" y="-338.68" font-family="monospace" font-size="11.00">callback</text>
</g>
<!-- W_AGENT&#45;&gt;T_AGENT -->
<g id="edge8" class="edge">
<title>W_AGENT&#45;&gt;T_AGENT</title>
<path fill="none" stroke="black" d="M496.44,-347.48C508.17,-347.48 520.53,-347.48 532.6,-347.48"/>
<polygon fill="black" stroke="black" points="532.66,-350.98 542.66,-347.48 532.66,-343.98 532.66,-350.98"/>
</g>
<!-- T_TIME -->
<g id="node10" class="node">
<title>T_TIME</title>
<polygon fill="none" stroke="black" points="677.31,-195.48 546.31,-195.48 546.31,-159.48 677.31,-159.48 677.31,-195.48"/>
<text text-anchor="middle" x="611.81" y="-180.68" font-family="monospace" font-size="11.00">scheduler wakeup</text>
<text text-anchor="middle" x="611.81" y="-168.68" font-family="monospace" font-size="11.00">at next_wakeup_at</text>
</g>
<!-- W_TIME&#45;&gt;T_TIME -->
<g id="edge9" class="edge">
<title>W_TIME&#45;&gt;T_TIME</title>
<path fill="none" stroke="black" d="M493.42,-177.48C507.09,-177.48 521.72,-177.48 535.86,-177.48"/>
<polygon fill="black" stroke="black" points="536.05,-180.98 546.05,-177.48 536.05,-173.98 536.05,-180.98"/>
</g>
<!-- EVAL -->
<g id="node11" class="node">
<title>EVAL</title>
<ellipse fill="none" stroke="black" cx="801.81" cy="-347.48" rx="73.58" ry="22.76"/>
<text text-anchor="middle" x="801.81" y="-350.68" font-family="monospace" font-size="11.00">re&#45;evaluate</text>
<text text-anchor="middle" x="801.81" y="-338.68" font-family="monospace" font-size="11.00">workflow step</text>
</g>
<!-- T_HUMAN&#45;&gt;EVAL -->
<g id="edge10" class="edge">
<title>T_HUMAN&#45;&gt;EVAL</title>
<path fill="none" stroke="black" d="M622.92,-667.31C653.37,-612.57 744.49,-448.75 783.16,-379.23"/>
<polygon fill="black" stroke="black" points="786.45,-380.51 788.25,-370.07 780.33,-377.11 786.45,-380.51"/>
</g>
<!-- T_TOOL&#45;&gt;EVAL -->
<g id="edge11" class="edge">
<title>T_TOOL&#45;&gt;EVAL</title>
<path fill="none" stroke="black" d="M632.93,-498.4C665.57,-469.06 730.29,-410.88 769.14,-375.95"/>
<polygon fill="black" stroke="black" points="771.93,-378.16 777.02,-368.87 767.25,-372.95 771.93,-378.16"/>
</g>
<!-- T_AGENT&#45;&gt;EVAL -->
<g id="edge12" class="edge">
<title>T_AGENT&#45;&gt;EVAL</title>
<path fill="none" stroke="black" d="M680.95,-347.48C692.94,-347.48 705.53,-347.48 717.87,-347.48"/>
<polygon fill="black" stroke="black" points="718.15,-350.98 728.15,-347.48 718.15,-343.98 718.15,-350.98"/>
</g>
<!-- T_TIME&#45;&gt;EVAL -->
<g id="edge13" class="edge">
<title>T_TIME&#45;&gt;EVAL</title>
<path fill="none" stroke="black" d="M632.93,-195.68C665.57,-225.18 730.29,-283.71 769.14,-318.85"/>
<polygon fill="black" stroke="black" points="767.26,-321.86 777.02,-325.97 771.95,-316.67 767.26,-321.86"/>
</g>
<!-- OK -->
<g id="node12" class="node">
<title>OK</title>
<polygon fill="none" stroke="black" points="1041.81,-336.48 912.79,-318.48 1041.81,-300.48 1170.84,-318.48 1041.81,-336.48"/>
<text text-anchor="middle" x="1041.81" y="-315.68" font-family="monospace" font-size="11.00">condition satisfied?</text>
</g>
<!-- EVAL&#45;&gt;OK -->
<g id="edge14" class="edge">
<title>EVAL&#45;&gt;OK</title>
<path fill="none" stroke="black" d="M870.38,-339.25C898.9,-335.78 932.3,-331.71 961.94,-328.09"/>
<polygon fill="black" stroke="black" points="962.75,-331.52 972.25,-326.84 961.9,-324.57 962.75,-331.52"/>
</g>
<!-- PROG -->
<g id="node13" class="node">
<title>PROG</title>
<polygon fill="lightgreen" stroke="black" points="1316.31,-336.48 1225.31,-336.48 1225.31,-300.48 1316.31,-300.48 1316.31,-336.48"/>
<text text-anchor="middle" x="1270.81" y="-315.68" font-family="monospace" font-size="11.00">IN_PROGRESS</text>
</g>
<!-- OK&#45;&gt;PROG -->
<g id="edge15" class="edge">
<title>OK&#45;&gt;PROG</title>
<path fill="none" stroke="black" d="M1170.91,-318.48C1186.3,-318.48 1201.32,-318.48 1214.82,-318.48"/>
<polygon fill="black" stroke="black" points="1214.83,-321.98 1224.83,-318.48 1214.83,-314.98 1214.83,-321.98"/>
<text text-anchor="middle" x="1197.81" y="-321.48" font-family="monospace" font-size="10.00">yes</text>
</g>
<!-- SCHED -->
<g id="node14" class="node">
<title>SCHED</title>
<polygon fill="none" stroke="black" points="1316.31,-148.48 1225.31,-148.48 1225.31,-112.48 1316.31,-112.48 1316.31,-148.48"/>
<text text-anchor="middle" x="1270.81" y="-133.68" font-family="monospace" font-size="11.00">schedule</text>
<text text-anchor="middle" x="1270.81" y="-121.68" font-family="monospace" font-size="11.00">next wakeup</text>
</g>
<!-- OK&#45;&gt;SCHED -->
<g id="edge16" class="edge">
<title>OK&#45;&gt;SCHED</title>
<path fill="none" stroke="black" d="M1061.39,-303.1C1100.73,-270.52 1192.71,-194.34 1240.23,-154.98"/>
<polygon fill="black" stroke="black" points="1242.55,-157.61 1248.02,-148.54 1238.08,-152.22 1242.55,-157.61"/>
<text text-anchor="middle" x="1197.81" y="-199.48" font-family="monospace" font-size="10.00">no</text>
</g>
<!-- SCHED&#45;&gt;WAITING -->
<g id="edge17" class="edge">
<title>SCHED&#45;&gt;WAITING</title>
<path fill="none" stroke="black" d="M1245.74,-112.47C1205.79,-84.41 1122.31,-33.48 1042.81,-33.48 226.81,-33.48 226.81,-33.48 226.81,-33.48 180.64,-33.48 129.16,-45.19 92.94,-55.43"/>
<polygon fill="black" stroke="black" points="91.78,-52.12 83.15,-58.27 93.73,-58.84 91.78,-52.12"/>
</g>
</g>
</svg>
