<?xml version="1.0" encoding="UTF-8" standalone="no"?>
<!DOCTYPE svg PUBLIC "-//W3C//DTD SVG 1.1//EN"
 "http://www.w3.org/Graphics/SVG/1.1/DTD/svg11.dtd">
<!-- Generated by graphviz version 2.43.0 (0)
 -->
<!-- Title: delivery_pipeline Pages: 1 -->
<svg width="1007pt" height="648pt"
 viewBox="0.00 0.00 1007.43 648.00" xmlns="http://www.w3.org/2000/svg" xmlns:xlink="http://www.w3.org/1999/xlink">
<g id="graph0" class="graph" transform="scale(0.72 0.72) rotate(0) translate(28.8 877.24)">
<title>delivery_pipeline</title>
<polygon fill="white" stroke="transparent" points="-28.8,28.8 -28.8,-877.24 1379.8,-877.24 1379.8,28.8 -28.8,28.8"/>
<g id="clust1" class="cluster">
<title>cluster_sa</title>
<polygon fill="none" stroke="gray" stroke-dasharray="5,2" points="8,-581.15 8,-834.47 189,-834.47 189,-581.15 8,-581.15"/>
<text text-anchor="middle" x="98.5" y="-819.27" font-family="Times,serif" font-size="14.00">Service A (Sender)</text>
</g>
<g id="clust2" class="cluster">
<title>cluster_axme</title>
<polygon fill="none" stroke="steelblue" stroke-dasharray="5,2" points="300,-486.82 300,-834.47 1111,-834.47 1111,-486.82 300,-486.82"/>
<text text-anchor="middle" x="705.5" y="-819.27" font-family="Times,serif" font-size="14.00">AXME Cloud</text>
</g>
<g id="clust3" class="cluster">
<title>cluster_sb</title>
<polygon fill="none" stroke="gray" stroke-dasharray="5,2" points="906,-247.48 906,-472.84 1343,-472.84 1343,-247.48 906,-247.48"/>
<text text-anchor="middle" x="1124.5" y="-457.64" font-family="Times,serif" font-size="14.00">Service B (Recipient)</text>
</g>
<g id="clust4" class="cluster">
<title>cluster_wh</title>
<polygon fill="none" stroke="gray" stroke-dasharray="5,2" points="597,-102.48 597,-233.51 1084,-233.51 1084,-102.48 597,-102.48"/>
<text text-anchor="middle" x="840.5" y="-218.31" font-family="Times,serif" font-size="14.00">Webhook Consumer</text>
</g>
<!-- SA -->
<g id="node1" class="node">
<title>SA</title>
<polygon fill="none" stroke="black" points="180.5,-764.16 15.5,-764.16 15.5,-720.16 180.5,-720.16 180.5,-764.16"/>
<text text-anchor="middle" x="98" y="-751.36" font-family="monospace" font-size="11.00">Service A</text>
<text text-anchor="middle" x="98" y="-739.36" font-family="monospace" font-size="11.00">submit intent</text>
<text text-anchor="middle" x="98" y="-727.36" font-family="monospace" font-size="11.00">HTTPS POST /v1/intents</text>
</g>
<!-- GW -->
<g id="node2" class="node">
<title>GW</title>
<polygon fill="none" stroke="black" points="460,-764.16 308,-764.16 308,-720.16 460,-720.16 460,-764.16"/>
<text text-anchor="middle" x="384" y="-751.36" font-family="monospace" font-size="11.00">AXME Gateway</text>
<text text-anchor="middle" x="384" y="-739.36" font-family="monospace" font-size="11.00">validate auth+schema</text>
<text text-anchor="middle" x="384" y="-727.36" font-family="monospace" font-size="11.00">+idempotency</text>
</g>
<!-- SA&#45;&gt;GW -->
<g id="edge1" class="edge">
<title>SA&#45;&gt;GW</title>
<path fill="none" stroke="black" d="M180.76,-742.16C217.31,-742.16 260.39,-742.16 297.38,-742.16"/>
<polygon fill="black" stroke="black" points="297.64,-745.66 307.64,-742.16 297.64,-738.66 297.64,-745.66"/>
</g>
<!-- ST -->
<g id="node3" class="node">
<title>ST</title>
<polygon fill="none" stroke="black" points="763,-651.16 605,-651.16 605,-615.16 763,-615.16 763,-651.16"/>
<text text-anchor="middle" x="684" y="-636.36" font-family="monospace" font-size="11.00">Store</text>
<text text-anchor="middle" x="684" y="-624.36" font-family="monospace" font-size="11.00">persist intent+events</text>
</g>
<!-- GW&#45;&gt;ST -->
<g id="edge2" class="edge">
<title>GW&#45;&gt;ST</title>
<path fill="none" stroke="black" d="M445.3,-720.1C497.39,-701.05 572.21,-673.68 623.93,-654.76"/>
<polygon fill="black" stroke="black" points="625.45,-657.93 633.63,-651.21 623.04,-651.36 625.45,-657.93"/>
</g>
<!-- WF -->
<g id="node4" class="node">
<title>WF</title>
<polygon fill="none" stroke="black" points="756.5,-746.16 611.5,-746.16 611.5,-710.16 756.5,-710.16 756.5,-746.16"/>
<text text-anchor="middle" x="684" y="-731.36" font-family="monospace" font-size="11.00">Workflow Engine</text>
<text text-anchor="middle" x="684" y="-719.36" font-family="monospace" font-size="11.00">start/advance state</text>
</g>
<!-- GW&#45;&gt;WF -->
<g id="edge3" class="edge">
<title>GW&#45;&gt;WF</title>
<path fill="none" stroke="black" d="M460.2,-738.62C503.23,-736.6 557.24,-734.06 601.31,-731.99"/>
<polygon fill="black" stroke="black" points="601.6,-735.48 611.42,-731.52 601.27,-728.49 601.6,-735.48"/>
</g>
<!-- ENC -->
<g id="node5" class="node">
<title>ENC</title>
<polygon fill="none" stroke="black" points="1102.5,-589.16 923.5,-589.16 923.5,-553.16 1102.5,-553.16 1102.5,-589.16"/>
<text text-anchor="middle" x="1013" y="-574.36" font-family="monospace" font-size="11.00">Transport Layer</text>
<text text-anchor="middle" x="1013" y="-562.36" font-family="monospace" font-size="11.00">encrypt payload envelope</text>
</g>
<!-- WF&#45;&gt;ENC -->
<g id="edge4" class="edge">
<title>WF&#45;&gt;ENC</title>
<path fill="none" stroke="black" d="M722.51,-710.15C782.47,-681.36 899.79,-625.03 965.17,-593.64"/>
<polygon fill="black" stroke="black" points="966.92,-596.68 974.42,-589.2 963.89,-590.37 966.92,-596.68"/>
<text text-anchor="middle" x="838" y="-684.16" font-family="monospace" font-size="10.00">encrypted path</text>
</g>
<!-- DIR -->
<g id="node7" class="node">
<title>DIR</title>
<polygon fill="none" stroke="black" points="1112.5,-311.16 913.5,-311.16 913.5,-275.16 1112.5,-275.16 1112.5,-311.16"/>
<text text-anchor="middle" x="1013" y="-296.36" font-family="monospace" font-size="11.00">Service B</text>
<text text-anchor="middle" x="1013" y="-284.36" font-family="monospace" font-size="11.00">direct delivery and execute</text>
</g>
<!-- WF&#45;&gt;DIR -->
<g id="edge6" class="edge">
<title>WF&#45;&gt;DIR</title>
<path fill="none" stroke="black" d="M711.83,-709.97C728.44,-697.56 749.16,-679.86 763,-660.16 775.33,-642.6 771.88,-634.81 780.5,-615.16 831.2,-499.57 821.09,-454 905.5,-360.16 921.65,-342.2 943.72,-327.26 963.58,-316.07"/>
<polygon fill="black" stroke="black" points="965.41,-319.06 972.52,-311.2 962.06,-312.91 965.41,-319.06"/>
<text text-anchor="middle" x="838" y="-618.16" font-family="monospace" font-size="10.00">direct path</text>
</g>
<!-- FAIL -->
<g id="node8" class="node">
<title>FAIL</title>
<polygon fill="none" stroke="black" points="1095.5,-720.16 930.5,-720.16 930.5,-684.16 1095.5,-684.16 1095.5,-720.16"/>
<text text-anchor="middle" x="1013" y="-705.36" font-family="monospace" font-size="11.00">Workflow Engine</text>
<text text-anchor="middle" x="1013" y="-693.36" font-family="monospace" font-size="11.00">schedule retry/backoff</text>
</g>
<!-- WF&#45;&gt;FAIL -->
<g id="edge7" class="edge">
<title>WF&#45;&gt;FAIL</title>
<path fill="none" stroke="black" d="M756.53,-713.46C764.59,-712.16 772.7,-711.02 780.5,-710.16 826.38,-705.07 877.67,-702.94 920.28,-702.13"/>
<polygon fill="black" stroke="black" points="920.42,-705.63 930.36,-701.96 920.3,-698.63 920.42,-705.63"/>
<text text-anchor="middle" x="838" y="-713.16" font-family="monospace" font-size="10.00">delivery failed</text>
</g>
<!-- DEC -->
<g id="node6" class="node">
<title>DEC</title>
<polygon fill="none" stroke="black" points="1085.5,-405.16 940.5,-405.16 940.5,-369.16 1085.5,-369.16 1085.5,-405.16"/>
<text text-anchor="middle" x="1013" y="-390.36" font-family="monospace" font-size="11.00">Service B</text>
<text text-anchor="middle" x="1013" y="-378.36" font-family="monospace" font-size="11.00">decrypt and execute</text>
</g>
<!-- ENC&#45;&gt;DEC -->
<g id="edge5" class="edge">
<title>ENC&#45;&gt;DEC</title>
<path fill="none" stroke="black" d="M1013,-553.04C1013,-507.21 1013,-461.39 1013,-415.57"/>
<polygon fill="black" stroke="black" points="1016.5,-415.48 1013,-405.48 1009.5,-415.48 1016.5,-415.48"/>
</g>
<!-- B -->
<g id="node9" class="node">
<title>B</title>
<polygon fill="none" stroke="black" points="1335.5,-311.16 1150.5,-311.16 1150.5,-275.16 1335.5,-275.16 1335.5,-311.16"/>
<text text-anchor="middle" x="1243" y="-296.36" font-family="monospace" font-size="11.00">Service B</text>
<text text-anchor="middle" x="1243" y="-284.36" font-family="monospace" font-size="11.00">progress/completion event</text>
</g>
<!-- DEC&#45;&gt;B -->
<g id="edge9" class="edge">
<title>DEC&#45;&gt;B</title>
<path fill="none" stroke="black" d="M1057.69,-369.14C1095.04,-353.74 1148.91,-331.54 1188.77,-315.1"/>
<polygon fill="black" stroke="black" points="1190.16,-318.32 1198.07,-311.27 1187.49,-311.84 1190.16,-318.32"/>
</g>
<!-- DIR&#45;&gt;B -->
<g id="edge10" class="edge">
<title>DIR&#45;&gt;B</title>
<path fill="none" stroke="black" d="M1112.68,-293.16C1121.77,-293.16 1131,-293.16 1140.12,-293.16"/>
<polygon fill="black" stroke="black" points="1140.36,-296.66 1150.36,-293.16 1140.36,-289.66 1140.36,-296.66"/>
</g>
<!-- FAIL&#45;&gt;WF -->
<g id="edge8" class="edge">
<title>FAIL&#45;&gt;WF</title>
<path fill="none" stroke="black" d="M930.38,-716.83C918.71,-718.53 906.82,-720.05 895.5,-721.16 853.24,-725.29 806.01,-727.11 767.01,-727.87"/>
<polygon fill="black" stroke="black" points="766.7,-724.38 756.76,-728.05 766.82,-731.37 766.7,-724.38"/>
<text text-anchor="middle" x="838" y="-730.16" font-family="monospace" font-size="10.00">retry after backoff</text>
</g>
<!-- GW2 -->
<g id="node10" class="node">
<title>GW2</title>
<polygon fill="none" stroke="black" points="436,-655.16 332,-655.16 332,-611.16 436,-611.16 436,-655.16"/>
<text text-anchor="middle" x="384" y="-642.36" font-family="monospace" font-size="11.00">AXME Gateway</text>
<text text-anchor="middle" x="384" y="-630.36" font-family="monospace" font-size="11.00">append event</text>
<text text-anchor="middle" x="384" y="-618.36" font-family="monospace" font-size="11.00">update status</text>
</g>
<!-- B&#45;&gt;GW2 -->
<g id="edge11" class="edge">
<title>B&#45;&gt;GW2</title>
<path fill="none" stroke="black" d="M1236.5,-275.06C1223.07,-234.47 1184.31,-136.67 1112.5,-98.16 910.59,10.13 769.1,53.08 597,-98.16 583.37,-110.14 592.48,-162.02 586.5,-179.16 555.58,-267.83 506.58,-270.87 477.5,-360.16 450,-444.58 497.81,-478.82 460,-559.16 451.78,-576.61 437.61,-592.24 423.78,-604.59"/>
<polygon fill="black" stroke="black" points="421.49,-601.94 416.17,-611.11 426.04,-607.26 421.49,-601.94"/>
</g>
<!-- GW2&#45;&gt;ST -->
<g id="edge12" class="edge">
<title>GW2&#45;&gt;ST</title>
<path fill="none" stroke="black" d="M436.23,-633.16C479.68,-633.16 542.98,-633.16 594.6,-633.16"/>
<polygon fill="black" stroke="black" points="594.76,-636.66 604.76,-633.16 594.76,-629.66 594.76,-636.66"/>
<text text-anchor="middle" x="532" y="-636.16" font-family="monospace" font-size="10.00">persist</text>
</g>
<!-- SA2 -->
<g id="node11" class="node">
<title>SA2</title>
<polygon fill="none" stroke="black" points="174,-655.16 22,-655.16 22,-611.16 174,-611.16 174,-655.16"/>
<text text-anchor="middle" x="98" y="-642.36" font-family="monospace" font-size="11.00">Service A</text>
<text text-anchor="middle" x="98" y="-630.36" font-family="monospace" font-size="11.00">read latest state</text>
<text text-anchor="middle" x="98" y="-618.36" font-family="monospace" font-size="11.00">GET /v1/intents/{id}</text>
</g>
<!-- GW2&#45;&gt;SA2 -->
<g id="edge13" class="edge">
<title>GW2&#45;&gt;SA2</title>
<path fill="none" stroke="black" stroke-dasharray="5,2" d="M331.98,-633.16C291,-633.16 232.56,-633.16 184.46,-633.16"/>
<polygon fill="black" stroke="black" points="184.36,-629.66 174.36,-633.16 184.36,-636.66 184.36,-629.66"/>
<text text-anchor="middle" x="244" y="-636.16" font-family="monospace" font-size="10.00">visible via GET</text>
</g>
<!-- WH -->
<g id="node12" class="node">
<title>WH</title>
<polygon fill="none" stroke="black" points="763,-166.16 605,-166.16 605,-130.16 763,-130.16 763,-166.16"/>
<text text-anchor="middle" x="684" y="-151.36" font-family="monospace" font-size="11.00">Webhook Consumer</text>
<text text-anchor="middle" x="684" y="-139.36" font-family="monospace" font-size="11.00">outbound notification</text>
</g>
<!-- GW2&#45;&gt;WH -->
<g id="edge14" class="edge">
<title>GW2&#45;&gt;WH</title>
<path fill="none" stroke="black" d="M411.24,-610.84C426.59,-596.95 445.71,-578.16 460,-559.16 559.5,-426.8 642.01,-244.45 671.44,-175.79"/>
<polygon fill="black" stroke="black" points="674.7,-177.07 675.39,-166.5 668.25,-174.33 674.7,-177.07"/>
<text text-anchor="middle" x="532" y="-531.16" font-family="monospace" font-size="10.00">if webhook enabled</text>
</g>
<!-- WH_OK -->
<g id="node13" class="node">
<title>WH_OK</title>
<polygon fill="lightgreen" stroke="black" points="1075.5,-166.16 950.5,-166.16 950.5,-130.16 1075.5,-130.16 1075.5,-166.16"/>
<text text-anchor="middle" x="1013" y="-151.36" font-family="monospace" font-size="11.00">Webhook Consumer</text>
<text text-anchor="middle" x="1013" y="-139.36" font-family="monospace" font-size="11.00">2xx accepted</text>
</g>
<!-- WH&#45;&gt;WH_OK -->
<g id="edge15" class="edge">
<title>WH&#45;&gt;WH_OK</title>
<path fill="none" stroke="black" d="M763.32,-148.16C817.09,-148.16 887.89,-148.16 940.2,-148.16"/>
<polygon fill="black" stroke="black" points="940.4,-151.66 950.4,-148.16 940.4,-144.66 940.4,-151.66"/>
</g>
<!-- WH_ERR -->
<g id="node14" class="node">
<title>WH_ERR</title>
<polygon fill="lightyellow" stroke="black" points="460,-550.16 308,-550.16 308,-514.16 460,-514.16 460,-550.16"/>
<text text-anchor="middle" x="384" y="-535.36" font-family="monospace" font-size="11.00">AXME Gateway</text>
<text text-anchor="middle" x="384" y="-523.36" font-family="monospace" font-size="11.00">webhook retry policy</text>
</g>
<!-- WH&#45;&gt;WH_ERR -->
<g id="edge16" class="edge">
<title>WH&#45;&gt;WH_ERR</title>
<path fill="none" stroke="black" d="M664.72,-166.32C627.23,-204.06 539.94,-294.48 477.5,-379.16 446.61,-421.04 416.51,-473.69 399.41,-505.03"/>
<polygon fill="black" stroke="black" points="396.22,-503.58 394.53,-514.04 402.37,-506.91 396.22,-503.58"/>
<text text-anchor="middle" x="532" y="-382.16" font-family="monospace" font-size="10.00">non&#45;2xx</text>
</g>
<!-- WH_ERR&#45;&gt;WH -->
<g id="edge17" class="edge">
<title>WH_ERR&#45;&gt;WH</title>
<path fill="none" stroke="black" d="M385.53,-513.82C387.95,-462.85 401.53,-317.74 477.5,-234.16 508.27,-200.31 554.46,-179.38 595.27,-166.66"/>
<polygon fill="black" stroke="black" points="596.39,-169.97 604.97,-163.75 594.39,-163.27 596.39,-169.97"/>
<text text-anchor="middle" x="532" y="-237.16" font-family="monospace" font-size="10.00">retry</text>
</g>
</g>
</svg>
