<?xml version="1.0" encoding="UTF-8" standalone="no"?>
<!DOCTYPE svg PUBLIC "-//W3C//DTD SVG 1.1//EN"
 "http://www.w3.org/Graphics/SVG/1.1/DTD/svg11.dtd">
<!-- Generated by graphviz version 2.43.0 (0)
 -->
<!-- Title: scheduler_loop Pages: 1 -->
<svg width="1129pt" height="648pt"
 viewBox="0.00 0.00 1129.10 648.00" xmlns="http://www.w3.org/2000/svg" xmlns:xlink="http://www.w3.org/1999/xlink">
<g id="graph0" class="graph" transform="scale(0.51 0.51) rotate(0) translate(28.8 1233.67)">
<title>scheduler_loop</title>
<polygon fill="white" stroke="transparent" points="-28.8,28.8 -28.8,-1233.67 2170.99,-1233.67 2170.99,28.8 -28.8,28.8"/>
<!-- RUN -->
<g id="node1" class="node">
<title>RUN</title>
<polygon fill="none" stroke="black" points="104.19,-454.79 0.19,-454.79 0.19,-418.79 104.19,-418.79 104.19,-454.79"/>
<text text-anchor="middle" x="52.19" y="-439.99" font-family="monospace" font-size="11.00">Workflow Run</text>
<text text-anchor="middle" x="52.19" y="-427.99" font-family="monospace" font-size="11.00">state changed</text>
</g>
<!-- CHK -->
<g id="node2" class="node">
<title>CHK</title>
<polygon fill="none" stroke="black" points="258.19,-454.79 140.98,-436.79 258.19,-418.79 375.41,-436.79 258.19,-454.79"/>
<text text-anchor="middle" x="258.19" y="-433.99" font-family="monospace" font-size="11.00">status == WAITING?</text>
</g>
<!-- RUN&#45;&gt;CHK -->
<g id="edge1" class="edge">
<title>RUN&#45;&gt;CHK</title>
<path fill="none" stroke="black" d="M104.41,-436.79C112.73,-436.79 121.65,-436.79 130.86,-436.79"/>
<polygon fill="black" stroke="black" points="130.95,-440.29 140.95,-436.79 130.95,-433.29 130.95,-440.29"/>
</g>
<!-- NOOP -->
<g id="node3" class="node">
<title>NOOP</title>
<polygon fill="none" stroke="black" points="561.69,-717.79 430.69,-717.79 430.69,-681.79 561.69,-681.79 561.69,-717.79"/>
<text text-anchor="middle" x="496.19" y="-702.99" font-family="monospace" font-size="11.00">no wakeup</text>
<text text-anchor="middle" x="496.19" y="-690.99" font-family="monospace" font-size="11.00">scheduling needed</text>
</g>
<!-- CHK&#45;&gt;NOOP -->
<g id="edge2" class="edge">
<title>CHK&#45;&gt;NOOP</title>
<path fill="none" stroke="black" d="M273.6,-452.84C313.1,-496.86 423.41,-619.79 471.86,-673.79"/>
<polygon fill="black" stroke="black" points="469.53,-676.43 478.82,-681.54 474.74,-671.76 469.53,-676.43"/>
<text text-anchor="middle" x="403.19" y="-609.79" font-family="monospace" font-size="10.00">no</text>
</g>
<!-- COMP -->
<g id="node4" class="node">
<title>COMP</title>
<polygon fill="none" stroke="black" points="551.69,-192.79 440.69,-192.79 440.69,-156.79 551.69,-156.79 551.69,-192.79"/>
<text text-anchor="middle" x="496.19" y="-177.99" font-family="monospace" font-size="11.00">compute</text>
<text text-anchor="middle" x="496.19" y="-165.99" font-family="monospace" font-size="11.00">next_wakeup_at</text>
</g>
<!-- CHK&#45;&gt;COMP -->
<g id="edge3" class="edge">
<title>CHK&#45;&gt;COMP</title>
<path fill="none" stroke="black" d="M273.6,-420.79C313.1,-376.93 423.41,-254.48 471.86,-200.69"/>
<polygon fill="black" stroke="black" points="474.72,-202.74 478.82,-192.96 469.52,-198.05 474.72,-202.74"/>
<text text-anchor="middle" x="403.19" y="-284.79" font-family="monospace" font-size="10.00">yes</text>
</g>
<!-- JOB -->
<g id="node5" class="node">
<title>JOB</title>
<polygon fill="none" stroke="black" points="709.69,-192.79 598.69,-192.79 598.69,-156.79 709.69,-156.79 709.69,-192.79"/>
<text text-anchor="middle" x="654.19" y="-177.99" font-family="monospace" font-size="11.00">Scheduled Jobs</text>
<text text-anchor="middle" x="654.19" y="-165.99" font-family="monospace" font-size="11.00">upsert job</text>
</g>
<!-- COMP&#45;&gt;JOB -->
<g id="edge4" class="edge">
<title>COMP&#45;&gt;JOB</title>
<path fill="none" stroke="black" d="M551.75,-174.79C563.63,-174.79 576.3,-174.79 588.53,-174.79"/>
<polygon fill="black" stroke="black" points="588.66,-178.29 598.66,-174.79 588.66,-171.29 588.66,-178.29"/>
</g>
<!-- TICK -->
<g id="node6" class="node">
<title>TICK</title>
<polygon fill="none" stroke="black" points="885.19,-522.79 747.19,-522.79 747.19,-486.79 885.19,-486.79 885.19,-522.79"/>
<text text-anchor="middle" x="816.19" y="-507.99" font-family="monospace" font-size="11.00">Scheduler</text>
<text text-anchor="middle" x="816.19" y="-495.99" font-family="monospace" font-size="11.00">workflow&#45;tick loop</text>
</g>
<!-- JOB&#45;&gt;TICK -->
<g id="edge5" class="edge">
<title>JOB&#45;&gt;TICK</title>
<path fill="none" stroke="black" d="M664.02,-193C690.63,-247.88 770.15,-411.89 801.89,-477.35"/>
<polygon fill="black" stroke="black" points="798.88,-479.16 806.39,-486.63 805.18,-476.1 798.88,-479.16"/>
</g>
<!-- DUE -->
<g id="node7" class="node">
<title>DUE</title>
<polygon fill="none" stroke="black" points="1047.19,-746.79 964.01,-728.79 1047.19,-710.79 1130.37,-728.79 1047.19,-746.79"/>
<text text-anchor="middle" x="1047.19" y="-725.99" font-family="monospace" font-size="11.00">job due now?</text>
</g>
<!-- TICK&#45;&gt;DUE -->
<g id="edge6" class="edge">
<title>TICK&#45;&gt;DUE</title>
<path fill="none" stroke="black" d="M835.93,-523.12C877.84,-564.11 978.97,-663.03 1023.96,-707.04"/>
<polygon fill="black" stroke="black" points="1021.59,-709.62 1031.18,-714.11 1026.48,-704.61 1021.59,-709.62"/>
</g>
<!-- DUE&#45;&gt;TICK -->
<g id="edge7" class="edge">
<title>DUE&#45;&gt;TICK</title>
<path fill="none" stroke="black" d="M1024.12,-715.74C994.42,-697.53 940.94,-662.37 902.69,-623.79 874.62,-595.47 848.87,-557.21 833.12,-531.81"/>
<polygon fill="black" stroke="black" points="835.99,-529.78 827.79,-523.07 830.01,-533.43 835.99,-529.78"/>
<text text-anchor="middle" x="924.19" y="-661.79" font-family="monospace" font-size="10.00">not yet</text>
</g>
<!-- LOCK -->
<g id="node8" class="node">
<title>LOCK</title>
<polygon fill="none" stroke="black" points="1323.19,-750.79 1185.19,-750.79 1185.19,-706.79 1323.19,-706.79 1323.19,-750.79"/>
<text text-anchor="middle" x="1254.19" y="-737.99" font-family="monospace" font-size="11.00">Runtime</text>
<text text-anchor="middle" x="1254.19" y="-725.99" font-family="monospace" font-size="11.00">lock run</text>
<text text-anchor="middle" x="1254.19" y="-713.99" font-family="monospace" font-size="11.00">load latest policy</text>
</g>
<!-- DUE&#45;&gt;LOCK -->
<g id="edge8" class="edge">
<title>DUE&#45;&gt;LOCK</title>
<path fill="none" stroke="black" d="M1130.39,-728.79C1145.14,-728.79 1160.48,-728.79 1175.11,-728.79"/>
<polygon fill="black" stroke="black" points="1175.11,-732.29 1185.11,-728.79 1175.11,-725.29 1175.11,-732.29"/>
<text text-anchor="middle" x="1158.19" y="-731.79" font-family="monospace" font-size="10.00">due</text>
</g>
<!-- BUDG -->
<g id="node9" class="node">
<title>BUDG</title>
<polygon fill="none" stroke="black" points="1464.19,-760.79 1360.19,-728.79 1464.19,-696.79 1568.19,-728.79 1464.19,-760.79"/>
<text text-anchor="middle" x="1464.19" y="-731.99" font-family="monospace" font-size="11.00">retry+timeout</text>
<text text-anchor="middle" x="1464.19" y="-719.99" font-family="monospace" font-size="11.00">budget valid?</text>
</g>
<!-- LOCK&#45;&gt;BUDG -->
<g id="edge9" class="edge">
<title>LOCK&#45;&gt;BUDG</title>
<path fill="none" stroke="black" d="M1323.3,-728.79C1331.82,-728.79 1340.71,-728.79 1349.69,-728.79"/>
<polygon fill="black" stroke="black" points="1349.86,-732.29 1359.86,-728.79 1349.86,-725.29 1349.86,-732.29"/>
</g>
<!-- TERM -->
<g id="node10" class="node">
<title>TERM</title>
<polygon fill="lightyellow" stroke="black" points="1750.69,-522.79 1659.69,-522.79 1659.69,-486.79 1750.69,-486.79 1750.69,-522.79"/>
<text text-anchor="middle" x="1705.19" y="-507.99" font-family="monospace" font-size="11.00">mark FAILED</text>
<text text-anchor="middle" x="1705.19" y="-495.99" font-family="monospace" font-size="11.00">or stale</text>
</g>
<!-- BUDG&#45;&gt;TERM -->
<g id="edge10" class="edge">
<title>BUDG&#45;&gt;TERM</title>
<path fill="none" stroke="black" d="M1490.77,-704.81C1536.3,-662.14 1630.99,-573.4 1677.39,-529.91"/>
<polygon fill="black" stroke="black" points="1680.03,-532.22 1684.94,-522.83 1675.25,-527.12 1680.03,-532.22"/>
<text text-anchor="middle" x="1614.19" y="-612.79" font-family="monospace" font-size="10.00">exhausted</text>
</g>
<!-- EVAL -->
<g id="node11" class="node">
<title>EVAL</title>
<polygon fill="none" stroke="black" points="1747.19,-1047.79 1663.19,-1047.79 1663.19,-1011.79 1747.19,-1011.79 1747.19,-1047.79"/>
<text text-anchor="middle" x="1705.19" y="-1032.99" font-family="monospace" font-size="11.00">resume</text>
<text text-anchor="middle" x="1705.19" y="-1020.99" font-family="monospace" font-size="11.00">evaluation</text>
</g>
<!-- BUDG&#45;&gt;EVAL -->
<g id="edge11" class="edge">
<title>BUDG&#45;&gt;EVAL</title>
<path fill="none" stroke="black" d="M1485.57,-754.45C1530.56,-811.11 1637.97,-946.39 1683.37,-1003.56"/>
<polygon fill="black" stroke="black" points="1680.89,-1006.07 1689.85,-1011.73 1686.38,-1001.72 1680.89,-1006.07"/>
<text text-anchor="middle" x="1614.19" y="-951.79" font-family="monospace" font-size="10.00">valid</text>
</g>
<!-- STILL -->
<g id="node12" class="node">
<title>STILL</title>
<polygon fill="none" stroke="black" points="1882.19,-960.79 1787.9,-942.79 1882.19,-924.79 1976.48,-942.79 1882.19,-960.79"/>
<text text-anchor="middle" x="1882.19" y="-939.99" font-family="monospace" font-size="11.00">still WAITING?</text>
</g>
<!-- EVAL&#45;&gt;STILL -->
<g id="edge12" class="edge">
<title>EVAL&#45;&gt;STILL</title>
<path fill="none" stroke="black" d="M1742.45,-1011.76C1772.81,-996.67 1815.86,-975.26 1845.93,-960.32"/>
<polygon fill="black" stroke="black" points="1847.81,-963.29 1855.2,-955.7 1844.69,-957.02 1847.81,-963.29"/>
</g>
<!-- NEXT -->
<g id="node13" class="node">
<title>NEXT</title>
<polygon fill="none" stroke="black" points="2142.69,-377.79 2031.69,-377.79 2031.69,-341.79 2142.69,-341.79 2142.69,-377.79"/>
<text text-anchor="middle" x="2087.19" y="-362.99" font-family="monospace" font-size="11.00">recompute</text>
<text text-anchor="middle" x="2087.19" y="-350.99" font-family="monospace" font-size="11.00">next_wakeup_at</text>
</g>
<!-- STILL&#45;&gt;NEXT -->
<g id="edge13" class="edge">
<title>STILL&#45;&gt;NEXT</title>
<path fill="none" stroke="black" d="M1889.05,-925.97C1917.46,-844.38 2040.98,-489.62 2076.57,-387.43"/>
<polygon fill="black" stroke="black" points="2079.93,-388.41 2079.91,-377.81 2073.32,-386.11 2079.93,-388.41"/>
<text text-anchor="middle" x="2003.19" y="-618.79" font-family="monospace" font-size="10.00">yes</text>
</g>
<!-- ADV -->
<g id="node14" class="node">
<title>ADV</title>
<polygon fill="lightgreen" stroke="black" points="2142.69,-960.79 2031.69,-960.79 2031.69,-924.79 2142.69,-924.79 2142.69,-960.79"/>
<text text-anchor="middle" x="2087.19" y="-945.99" font-family="monospace" font-size="11.00">advance status</text>
<text text-anchor="middle" x="2087.19" y="-933.99" font-family="monospace" font-size="11.00">emit events</text>
</g>
<!-- STILL&#45;&gt;ADV -->
<g id="edge14" class="edge">
<title>STILL&#45;&gt;ADV</title>
<path fill="none" stroke="black" d="M1976.67,-942.79C1991.83,-942.79 2007.22,-942.79 2021.49,-942.79"/>
<polygon fill="black" stroke="black" points="2021.67,-946.29 2031.67,-942.79 2021.67,-939.29 2021.67,-946.29"/>
<text text-anchor="middle" x="2003.19" y="-945.79" font-family="monospace" font-size="10.00">no</text>
</g>
<!-- NEXT&#45;&gt;JOB -->
<g id="edge15" class="edge">
<title>NEXT&#45;&gt;JOB</title>
<path fill="none" stroke="black" d="M2083.1,-341.41C2070.96,-276.06 2020.28,-58.79 1883.19,-58.79 815.19,-58.79 815.19,-58.79 815.19,-58.79 754.46,-58.79 701.22,-114.24 674.15,-148.46"/>
<polygon fill="black" stroke="black" points="671.17,-146.6 667.84,-156.66 676.71,-150.87 671.17,-146.6"/>
</g>
</g>
</svg>
