<?xml version="1.0" encoding="UTF-8" standalone="no"?>
<!DOCTYPE svg PUBLIC "-//W3C//DTD SVG 1.1//EN"
 "http://www.w3.org/Graphics/SVG/1.1/DTD/svg11.dtd">
<!-- Generated by graphviz version 2.43.0 (0)
 -->
<!-- Title: access_control Pages: 1 -->
<svg width="1132pt" height="648pt"
 viewBox="0.00 0.00 1132.09 648.00" xmlns="http://www.w3.org/2000/svg" xmlns:xlink="http://www.w3.org/1999/xlink">
<g id="graph0" class="graph" transform="scale(0.45 0.45) rotate(0) translate(28.8 1402.99)">
<title>access_control</title>
<polygon fill="white" stroke="transparent" points="-28.8,28.8 -28.8,-1402.99 2472.61,-1402.99 2472.61,28.8 -28.8,28.8"/>
<!-- CALL -->
<g id="node1" class="node">
<title>CALL</title>
<polygon fill="none" stroke="black" points="91.31,-1018.33 0.31,-1018.33 0.31,-982.33 91.31,-982.33 91.31,-1018.33"/>
<text text-anchor="middle" x="45.81" y="-1003.53" font-family="monospace" font-size="11.00">Caller</text>
<text text-anchor="middle" x="45.81" y="-991.53" font-family="monospace" font-size="11.00">API request</text>
</g>
<!-- IKEY -->
<g id="node2" class="node">
<title>IKEY</title>
<polygon fill="none" stroke="black" points="205.31,-1018.33 128.31,-1018.33 128.31,-982.33 205.31,-982.33 205.31,-1018.33"/>
<text text-anchor="middle" x="166.81" y="-1003.53" font-family="monospace" font-size="11.00">Validate</text>
<text text-anchor="middle" x="166.81" y="-991.53" font-family="monospace" font-size="11.00">x&#45;api&#45;key</text>
</g>
<!-- CALL&#45;&gt;IKEY -->
<g id="edge1" class="edge">
<title>CALL&#45;&gt;IKEY</title>
<path fill="none" stroke="black" d="M91.46,-1000.33C100.18,-1000.33 109.36,-1000.33 118.17,-1000.33"/>
<polygon fill="black" stroke="black" points="118.31,-1003.83 128.31,-1000.33 118.31,-996.83 118.31,-1003.83"/>
</g>
<!-- F401A -->
<g id="node3" class="node">
<title>F401A</title>
<polygon fill="lightyellow" stroke="black" points="456.31,-1262.33 311.31,-1262.33 311.31,-1226.33 456.31,-1226.33 456.31,-1262.33"/>
<text text-anchor="middle" x="383.81" y="-1241.53" font-family="monospace" font-size="11.00">401 invalid api key</text>
</g>
<!-- IKEY&#45;&gt;F401A -->
<g id="edge2" class="edge">
<title>IKEY&#45;&gt;F401A</title>
<path fill="none" stroke="black" d="M183.97,-1018.67C221.81,-1061.61 316.24,-1168.77 359.95,-1218.38"/>
<polygon fill="black" stroke="black" points="357.52,-1220.92 366.76,-1226.11 362.77,-1216.29 357.52,-1220.92"/>
<text text-anchor="middle" x="235.81" y="-1088.33" font-family="monospace" font-size="10.00">fail</text>
</g>
<!-- BRTE -->
<g id="node4" class="node">
<title>BRTE</title>
<polygon fill="none" stroke="black" points="383.81,-787.33 265.81,-755.33 383.81,-723.33 501.81,-755.33 383.81,-787.33"/>
<text text-anchor="middle" x="383.81" y="-758.53" font-family="monospace" font-size="11.00">Bearer required</text>
<text text-anchor="middle" x="383.81" y="-746.53" font-family="monospace" font-size="11.00">on this route?</text>
</g>
<!-- IKEY&#45;&gt;BRTE -->
<g id="edge3" class="edge">
<title>IKEY&#45;&gt;BRTE</title>
<path fill="none" stroke="black" d="M183.62,-982.31C219.41,-941.53 307.1,-841.61 353.27,-788.99"/>
<polygon fill="black" stroke="black" points="356.07,-791.1 360.04,-781.28 350.81,-786.48 356.07,-791.1"/>
<text text-anchor="middle" x="235.81" y="-937.33" font-family="monospace" font-size="10.00">ok</text>
</g>
<!-- VJWT -->
<g id="node5" class="node">
<title>VJWT</title>
<polygon fill="none" stroke="black" points="722.31,-996.33 557.31,-996.33 557.31,-960.33 722.31,-960.33 722.31,-996.33"/>
<text text-anchor="middle" x="639.81" y="-981.53" font-family="monospace" font-size="11.00">Validate JWT</text>
<text text-anchor="middle" x="639.81" y="-969.53" font-family="monospace" font-size="11.00">signature+claims+scope</text>
</g>
<!-- BRTE&#45;&gt;VJWT -->
<g id="edge4" class="edge">
<title>BRTE&#45;&gt;VJWT</title>
<path fill="none" stroke="black" d="M412.48,-779.62C461.07,-822.28 561.26,-910.24 610.39,-953.37"/>
<polygon fill="black" stroke="black" points="608.28,-956.18 618.1,-960.14 612.89,-950.92 608.28,-956.18"/>
<text text-anchor="middle" x="529.81" y="-889.33" font-family="monospace" font-size="10.00">yes</text>
</g>
<!-- OWNR -->
<g id="node7" class="node">
<title>OWNR</title>
<polygon fill="none" stroke="black" points="907.31,-708.33 816.31,-708.33 816.31,-672.33 907.31,-672.33 907.31,-708.33"/>
<text text-anchor="middle" x="861.81" y="-693.53" font-family="monospace" font-size="11.00">owner scope</text>
<text text-anchor="middle" x="861.81" y="-681.53" font-family="monospace" font-size="11.00">checks</text>
</g>
<!-- BRTE&#45;&gt;OWNR -->
<g id="edge5" class="edge">
<title>BRTE&#45;&gt;OWNR</title>
<path fill="none" stroke="black" d="M462.88,-744.67C559.47,-731.48 721.48,-709.36 805.9,-697.83"/>
<polygon fill="black" stroke="black" points="806.61,-701.26 816.04,-696.44 805.66,-694.33 806.61,-701.26"/>
<text text-anchor="middle" x="639.81" y="-734.33" font-family="monospace" font-size="10.00">no</text>
</g>
<!-- F401B -->
<g id="node6" class="node">
<title>F401B</title>
<polygon fill="lightyellow" stroke="black" points="940.81,-1140.33 782.81,-1140.33 782.81,-1104.33 940.81,-1104.33 940.81,-1140.33"/>
<text text-anchor="middle" x="861.81" y="-1125.53" font-family="monospace" font-size="11.00">401/403 token invalid</text>
<text text-anchor="middle" x="861.81" y="-1113.53" font-family="monospace" font-size="11.00">or scope mismatch</text>
</g>
<!-- VJWT&#45;&gt;F401B -->
<g id="edge6" class="edge">
<title>VJWT&#45;&gt;F401B</title>
<path fill="none" stroke="black" d="M668.67,-996.57C708.26,-1022.48 780.83,-1069.98 824.57,-1098.6"/>
<polygon fill="black" stroke="black" points="822.89,-1101.69 833.17,-1104.24 826.72,-1095.83 822.89,-1101.69"/>
<text text-anchor="middle" x="752.81" y="-1061.33" font-family="monospace" font-size="10.00">fail</text>
</g>
<!-- VJWT&#45;&gt;OWNR -->
<g id="edge7" class="edge">
<title>VJWT&#45;&gt;OWNR</title>
<path fill="none" stroke="black" d="M654.57,-960.31C692.15,-911.12 796.65,-774.32 840.75,-716.58"/>
<polygon fill="black" stroke="black" points="843.76,-718.41 847.05,-708.34 838.2,-714.16 843.76,-718.41"/>
<text text-anchor="middle" x="752.81" y="-845.33" font-family="monospace" font-size="10.00">ok</text>
</g>
<!-- F403A -->
<g id="node8" class="node">
<title>F403A</title>
<polygon fill="lightyellow" stroke="black" points="1222.81,-953.33 1084.81,-953.33 1084.81,-917.33 1222.81,-917.33 1222.81,-953.33"/>
<text text-anchor="middle" x="1153.81" y="-932.53" font-family="monospace" font-size="11.00">403 owner mismatch</text>
</g>
<!-- OWNR&#45;&gt;F403A -->
<g id="edge8" class="edge">
<title>OWNR&#45;&gt;F403A</title>
<path fill="none" stroke="black" d="M884.13,-708.34C935.36,-751.62 1065.38,-861.47 1123.72,-910.75"/>
<polygon fill="black" stroke="black" points="1121.56,-913.51 1131.45,-917.29 1126.07,-908.16 1121.56,-913.51"/>
<text text-anchor="middle" x="971.81" y="-793.33" font-family="monospace" font-size="10.00">fail</text>
</g>
<!-- ROLE -->
<g id="node9" class="node">
<title>ROLE</title>
<polygon fill="none" stroke="black" points="1153.81,-478.33 1001.81,-446.33 1153.81,-414.33 1305.81,-446.33 1153.81,-478.33"/>
<text text-anchor="middle" x="1153.81" y="-449.53" font-family="monospace" font-size="11.00">role or delegated</text>
<text text-anchor="middle" x="1153.81" y="-437.53" font-family="monospace" font-size="11.00">grant allows action?</text>
</g>
<!-- OWNR&#45;&gt;ROLE -->
<g id="edge9" class="edge">
<title>OWNR&#45;&gt;ROLE</title>
<path fill="none" stroke="black" d="M884.61,-671.99C933.52,-630.83 1052.56,-530.68 1114.27,-478.75"/>
<polygon fill="black" stroke="black" points="1116.83,-481.17 1122.23,-472.06 1112.32,-475.82 1116.83,-481.17"/>
<text text-anchor="middle" x="971.81" y="-608.33" font-family="monospace" font-size="10.00">ok</text>
</g>
<!-- F403B -->
<g id="node10" class="node">
<title>F403B</title>
<polygon fill="lightyellow" stroke="black" points="1480.81,-658.33 1376.81,-658.33 1376.81,-622.33 1480.81,-622.33 1480.81,-658.33"/>
<text text-anchor="middle" x="1428.81" y="-637.53" font-family="monospace" font-size="11.00">403 forbidden</text>
</g>
<!-- ROLE&#45;&gt;F403B -->
<g id="edge10" class="edge">
<title>ROLE&#45;&gt;F403B</title>
<path fill="none" stroke="black" d="M1189.39,-470.9C1242.12,-508.37 1342.01,-579.35 1394.17,-616.42"/>
<polygon fill="black" stroke="black" points="1392.25,-619.35 1402.43,-622.29 1396.3,-613.64 1392.25,-619.35"/>
<text text-anchor="middle" x="1339.81" y="-591.33" font-family="monospace" font-size="10.00">deny</text>
</g>
<!-- EXEC -->
<g id="node11" class="node">
<title>EXEC</title>
<polygon fill="none" stroke="black" points="1484.31,-269.33 1373.31,-269.33 1373.31,-233.33 1484.31,-233.33 1484.31,-269.33"/>
<text text-anchor="middle" x="1428.81" y="-254.53" font-family="monospace" font-size="11.00">Execute</text>
<text text-anchor="middle" x="1428.81" y="-242.53" font-family="monospace" font-size="11.00">endpoint logic</text>
</g>
<!-- ROLE&#45;&gt;EXEC -->
<g id="edge11" class="edge">
<title>ROLE&#45;&gt;EXEC</title>
<path fill="none" stroke="black" d="M1189.39,-421.63C1242.12,-383.96 1342.01,-312.62 1394.17,-275.35"/>
<polygon fill="black" stroke="black" points="1396.32,-278.12 1402.43,-269.46 1392.25,-272.42 1396.32,-278.12"/>
<text text-anchor="middle" x="1339.81" y="-323.33" font-family="monospace" font-size="10.00">allow</text>
</g>
<!-- MUT -->
<g id="node12" class="node">
<title>MUT</title>
<polygon fill="none" stroke="black" points="1632.81,-269.33 1521.5,-251.33 1632.81,-233.33 1744.12,-251.33 1632.81,-269.33"/>
<text text-anchor="middle" x="1632.81" y="-248.53" font-family="monospace" font-size="11.00">mutation request?</text>
</g>
<!-- EXEC&#45;&gt;MUT -->
<g id="edge12" class="edge">
<title>EXEC&#45;&gt;MUT</title>
<path fill="none" stroke="black" d="M1484.47,-251.33C1492.97,-251.33 1502.02,-251.33 1511.3,-251.33"/>
<polygon fill="black" stroke="black" points="1511.45,-254.83 1521.45,-251.33 1511.45,-247.83 1511.45,-254.83"/>
</g>
<!-- CAS -->
<g id="node13" class="node">
<title>CAS</title>
<polygon fill="none" stroke="black" points="1946.81,-593.33 1828.81,-561.33 1946.81,-529.33 2064.81,-561.33 1946.81,-593.33"/>
<text text-anchor="middle" x="1946.81" y="-564.53" font-family="monospace" font-size="11.00">CAS: generation</text>
<text text-anchor="middle" x="1946.81" y="-552.53" font-family="monospace" font-size="11.00">matches?</text>
</g>
<!-- MUT&#45;&gt;CAS -->
<g id="edge14" class="edge">
<title>MUT&#45;&gt;CAS</title>
<path fill="none" stroke="black" d="M1649.28,-266.7C1697.59,-314.7 1846.35,-462.5 1912.96,-528.69"/>
<polygon fill="black" stroke="black" points="1910.73,-531.4 1920.29,-535.97 1915.66,-526.44 1910.73,-531.4"/>
<text text-anchor="middle" x="1785.81" y="-428.33" font-family="monospace" font-size="10.00">mutation</text>
</g>
<!-- READ -->
<g id="node16" class="node">
<title>READ</title>
<polygon fill="lightgreen" stroke="black" points="2173.31,-147.33 2082.31,-147.33 2082.31,-111.33 2173.31,-111.33 2173.31,-147.33"/>
<text text-anchor="middle" x="2127.81" y="-132.53" font-family="monospace" font-size="11.00">return</text>
<text text-anchor="middle" x="2127.81" y="-120.53" font-family="monospace" font-size="11.00">read result</text>
</g>
<!-- MUT&#45;&gt;READ -->
<g id="edge13" class="edge">
<title>MUT&#45;&gt;READ</title>
<path fill="none" stroke="black" d="M1677.56,-240.5C1767.67,-218.2 1973.75,-167.21 2072.33,-142.81"/>
<polygon fill="black" stroke="black" points="2073.23,-146.19 2082.09,-140.39 2071.54,-139.4 2073.23,-146.19"/>
<text text-anchor="middle" x="1785.81" y="-221.33" font-family="monospace" font-size="10.00">read</text>
</g>
<!-- F409 -->
<g id="node14" class="node">
<title>F409</title>
<polygon fill="lightyellow" stroke="black" points="2302.31,-867.33 2191.31,-867.33 2191.31,-831.33 2302.31,-831.33 2302.31,-867.33"/>
<text text-anchor="middle" x="2246.81" y="-852.53" font-family="monospace" font-size="11.00">409 conflict</text>
<text text-anchor="middle" x="2246.81" y="-840.53" font-family="monospace" font-size="11.00">(stale writer)</text>
</g>
<!-- CAS&#45;&gt;F409 -->
<g id="edge15" class="edge">
<title>CAS&#45;&gt;F409</title>
<path fill="none" stroke="black" d="M1973.48,-586.13C2029.57,-640.34 2162.6,-768.91 2219.38,-823.79"/>
<polygon fill="black" stroke="black" points="2217.25,-826.59 2226.87,-831.03 2222.11,-821.56 2217.25,-826.59"/>
<text text-anchor="middle" x="2127.81" y="-774.33" font-family="monospace" font-size="10.00">mismatch</text>
</g>
<!-- APPLY -->
<g id="node15" class="node">
<title>APPLY</title>
<polygon fill="lightgreen" stroke="black" points="2302.31,-478.33 2191.31,-478.33 2191.31,-442.33 2302.31,-442.33 2302.31,-478.33"/>
<text text-anchor="middle" x="2246.81" y="-463.53" font-family="monospace" font-size="11.00">apply mutation</text>
<text text-anchor="middle" x="2246.81" y="-451.53" font-family="monospace" font-size="11.00">generation++</text>
</g>
<!-- CAS&#45;&gt;APPLY -->
<g id="edge16" class="edge">
<title>CAS&#45;&gt;APPLY</title>
<path fill="none" stroke="black" d="M2000.06,-543.62C2051.08,-526.33 2128.76,-500 2183.09,-481.58"/>
<polygon fill="black" stroke="black" points="2184.27,-484.88 2192.62,-478.36 2182.02,-478.25 2184.27,-484.88"/>
<text text-anchor="middle" x="2127.81" y="-517.33" font-family="monospace" font-size="10.00">match</text>
</g>
<!-- AUDIT -->
<g id="node17" class="node">
<title>AUDIT</title>
<polygon fill="none" stroke="black" points="2443.81,-234.33 2339.81,-234.33 2339.81,-198.33 2443.81,-198.33 2443.81,-234.33"/>
<text text-anchor="middle" x="2391.81" y="-219.53" font-family="monospace" font-size="11.00">emit audit</text>
<text text-anchor="middle" x="2391.81" y="-207.53" font-family="monospace" font-size="11.00">+ trace event</text>
</g>
<!-- APPLY&#45;&gt;AUDIT -->
<g id="edge18" class="edge">
<title>APPLY&#45;&gt;AUDIT</title>
<path fill="none" stroke="black" d="M2258.56,-441.99C2283.57,-399.32 2345.76,-293.21 2375.06,-243.2"/>
<polygon fill="black" stroke="black" points="2378.1,-244.95 2380.13,-234.55 2372.06,-241.41 2378.1,-244.95"/>
</g>
<!-- READ&#45;&gt;AUDIT -->
<g id="edge17" class="edge">
<title>READ&#45;&gt;AUDIT</title>
<path fill="none" stroke="black" d="M2173.55,-144.19C2216.62,-158.49 2282.09,-180.23 2329.9,-196.1"/>
<polygon fill="black" stroke="black" points="2328.92,-199.47 2339.52,-199.3 2331.13,-192.82 2328.92,-199.47"/>
</g>
</g>
</svg>
