<?xml version="1.0" encoding="UTF-8" standalone="no"?>
<!DOCTYPE svg PUBLIC "-//W3C//DTD SVG 1.1//EN"
 "http://www.w3.org/Graphics/SVG/1.1/DTD/svg11.dtd">
<!-- Generated by graphviz version 2.43.0 (0)
 -->
<!-- Title: access_control Pages: 1 -->
<svg width="1133pt" height="648pt"
 viewBox="0.00 0.00 1133.47 648.00" xmlns="http://www.w3.org/2000/svg" xmlns:xlink="http://www.w3.org/1999/xlink">
<g id="graph0" class="graph" transform="scale(0.42 0.42) rotate(0) translate(28.8 1509.86)">
<title>access_control</title>
<polygon fill="white" stroke="transparent" points="-28.8,28.8 -28.8,-1509.86 2662.61,-1509.86 2662.61,28.8 -28.8,28.8"/>
<!-- CALL -->
<g id="node1" class="node">
<title>CALL</title>
<polygon fill="none" stroke="black" points="91.31,-1096.13 0.31,-1096.13 0.31,-1060.13 91.31,-1060.13 91.31,-1096.13"/>
<text text-anchor="middle" x="45.81" y="-1081.33" font-family="monospace" font-size="11.00">Caller</text>
<text text-anchor="middle" x="45.81" y="-1069.33" font-family="monospace" font-size="11.00">API request</text>
</g>
<!-- IKEY -->
<g id="node2" class="node">
<title>IKEY</title>
<polygon fill="none" stroke="black" points="285.81,-1096.13 127.81,-1096.13 127.81,-1060.13 285.81,-1060.13 285.81,-1096.13"/>
<text text-anchor="middle" x="206.81" y="-1081.33" font-family="monospace" font-size="11.00">Validate machine key</text>
<text text-anchor="middle" x="206.81" y="-1069.33" font-family="monospace" font-size="11.00">x&#45;api&#45;key</text>
</g>
<!-- CALL&#45;&gt;IKEY -->
<g id="edge1" class="edge">
<title>CALL&#45;&gt;IKEY</title>
<path fill="none" stroke="black" d="M91.52,-1078.13C99.73,-1078.13 108.56,-1078.13 117.53,-1078.13"/>
<polygon fill="black" stroke="black" points="117.71,-1081.63 127.71,-1078.13 117.71,-1074.63 117.71,-1081.63"/>
</g>
<!-- F401A -->
<g id="node3" class="node">
<title>F401A</title>
<polygon fill="lightyellow" stroke="black" points="571.31,-1359.13 426.31,-1359.13 426.31,-1323.13 571.31,-1323.13 571.31,-1359.13"/>
<text text-anchor="middle" x="498.81" y="-1344.33" font-family="monospace" font-size="11.00">401 missing/invalid</text>
<text text-anchor="middle" x="498.81" y="-1332.33" font-family="monospace" font-size="11.00">x-api-key</text>
</g>
<!-- IKEY&#45;&gt;F401A -->
<g id="edge2" class="edge">
<title>IKEY&#45;&gt;F401A</title>
<path fill="none" stroke="black" d="M227.74,-1096.21C278.34,-1142.09 411.86,-1263.18 470.04,-1315.95"/>
<polygon fill="black" stroke="black" points="467.98,-1318.8 477.74,-1322.93 472.68,-1313.61 467.98,-1318.8"/>
<text text-anchor="middle" x="316.81" y="-1188.13" font-family="monospace" font-size="10.00">fail</text>
</g>
<!-- BRTE -->
<g id="node4" class="node">
<title>BRTE</title>
<polygon fill="none" stroke="black" points="498.81,-846.13 346.81,-814.13 498.81,-782.13 650.81,-814.13 498.81,-846.13"/>
<text text-anchor="middle" x="498.81" y="-817.33" font-family="monospace" font-size="11.00">Actor token required</text>
<text text-anchor="middle" x="498.81" y="-805.33" font-family="monospace" font-size="11.00">on this route?</text>
</g>
<!-- IKEY&#45;&gt;BRTE -->
<g id="edge3" class="edge">
<title>IKEY&#45;&gt;BRTE</title>
<path fill="none" stroke="black" d="M227.74,-1059.98C276.09,-1015.97 400.16,-903.02 461.86,-846.86"/>
<polygon fill="black" stroke="black" points="464.38,-849.29 469.42,-839.97 459.67,-844.12 464.38,-849.29"/>
<text text-anchor="middle" x="316.81" y="-988.13" font-family="monospace" font-size="10.00">ok</text>
</g>
<!-- VJWT -->
<g id="node5" class="node">
<title>VJWT</title>
<polygon fill="none" stroke="black" points="871.31,-1072.13 706.31,-1072.13 706.31,-1036.13 871.31,-1036.13 871.31,-1072.13"/>
<text text-anchor="middle" x="788.81" y="-1057.33" font-family="monospace" font-size="11.00">Validate actor token</text>
<text text-anchor="middle" x="788.81" y="-1045.33" font-family="monospace" font-size="11.00">signature+claims+scope</text>
</g>
<!-- BRTE&#45;&gt;VJWT -->
<g id="edge4" class="edge">
<title>BRTE&#45;&gt;VJWT</title>
<path fill="none" stroke="black" d="M530.36,-839.59C585.99,-885.94 703.14,-983.57 758.12,-1029.39"/>
<polygon fill="black" stroke="black" points="756.16,-1032.31 766.08,-1036.02 760.64,-1026.93 756.16,-1032.31"/>
<text text-anchor="middle" x="678.81" y="-972.13" font-family="monospace" font-size="10.00">yes</text>
</g>
<!-- OWNR -->
<g id="node7" class="node">
<title>OWNR</title>
<polygon fill="none" stroke="black" points="1077.31,-762.13 986.31,-762.13 986.31,-726.13 1077.31,-726.13 1077.31,-762.13"/>
<text text-anchor="middle" x="1031.81" y="-747.33" font-family="monospace" font-size="11.00">owner scope</text>
<text text-anchor="middle" x="1031.81" y="-735.33" font-family="monospace" font-size="11.00">checks</text>
</g>
<!-- BRTE&#45;&gt;OWNR -->
<g id="edge5" class="edge">
<title>BRTE&#45;&gt;OWNR</title>
<path fill="none" stroke="black" d="M592.91,-801.86C703.89,-787.23 885.68,-763.26 976.13,-751.34"/>
<polygon fill="black" stroke="black" points="976.71,-754.79 986.17,-750.01 975.8,-747.85 976.71,-754.79"/>
<text text-anchor="middle" x="788.81" y="-788.13" font-family="monospace" font-size="10.00">no</text>
</g>
<!-- F401B -->
<g id="node6" class="node">
<title>F401B</title>
<polygon fill="lightyellow" stroke="black" points="1131.31,-1228.13 932.31,-1228.13 932.31,-1192.13 1131.31,-1192.13 1131.31,-1228.13"/>
<text text-anchor="middle" x="1031.81" y="-1213.33" font-family="monospace" font-size="11.00">401/403 missing actor token</text>
<text text-anchor="middle" x="1031.81" y="-1201.33" font-family="monospace" font-size="11.00">or invalid actor scope</text>
</g>
<!-- VJWT&#45;&gt;F401B -->
<g id="edge6" class="edge">
<title>VJWT&#45;&gt;F401B</title>
<path fill="none" stroke="black" d="M817.93,-1072.33C861.64,-1100.63 945.91,-1155.17 994.28,-1186.48"/>
<polygon fill="black" stroke="black" points="992.58,-1189.55 1002.87,-1192.04 996.38,-1183.67 992.58,-1189.55"/>
<text text-anchor="middle" x="901.81" y="-1135.13" font-family="monospace" font-size="10.00">fail</text>
</g>
<!-- VJWT&#45;&gt;OWNR -->
<g id="edge7" class="edge">
<title>VJWT&#45;&gt;OWNR</title>
<path fill="none" stroke="black" d="M803.81,-1036.12C844.49,-983.79 962.82,-831.58 1010.53,-770.22"/>
<polygon fill="black" stroke="black" points="1013.4,-772.23 1016.77,-762.19 1007.87,-767.93 1013.4,-772.23"/>
<text text-anchor="middle" x="901.81" y="-920.13" font-family="monospace" font-size="10.00">ok</text>
</g>
<!-- F403A -->
<g id="node8" class="node">
<title>F403A</title>
<polygon fill="lightyellow" stroke="black" points="1412.81,-1026.13 1274.81,-1026.13 1274.81,-990.13 1412.81,-990.13 1412.81,-1026.13"/>
<text text-anchor="middle" x="1343.81" y="-1005.33" font-family="monospace" font-size="11.00">403 owner mismatch</text>
</g>
<!-- OWNR&#45;&gt;F403A -->
<g id="edge8" class="edge">
<title>OWNR&#45;&gt;F403A</title>
<path fill="none" stroke="black" d="M1054.12,-762.27C1108.32,-808.43 1251.51,-930.38 1313.51,-983.18"/>
<polygon fill="black" stroke="black" points="1311.47,-986.04 1321.35,-989.86 1316.01,-980.71 1311.47,-986.04"/>
<text text-anchor="middle" x="1161.81" y="-863.13" font-family="monospace" font-size="10.00">fail</text>
</g>
<!-- ROLE -->
<g id="node9" class="node">
<title>ROLE</title>
<polygon fill="none" stroke="black" points="1343.81,-513.13 1191.81,-481.13 1343.81,-449.13 1495.81,-481.13 1343.81,-513.13"/>
<text text-anchor="middle" x="1343.81" y="-484.33" font-family="monospace" font-size="11.00">role or delegated</text>
<text text-anchor="middle" x="1343.81" y="-472.33" font-family="monospace" font-size="11.00">grant allows action?</text>
</g>
<!-- OWNR&#45;&gt;ROLE -->
<g id="edge9" class="edge">
<title>OWNR&#45;&gt;ROLE</title>
<path fill="none" stroke="black" d="M1054.12,-726.05C1105.91,-682.11 1238.97,-569.23 1304.78,-513.39"/>
<polygon fill="black" stroke="black" points="1307.1,-516.01 1312.46,-506.87 1302.57,-510.67 1307.1,-516.01"/>
<text text-anchor="middle" x="1161.81" y="-647.13" font-family="monospace" font-size="10.00">ok</text>
</g>
<!-- F403B -->
<g id="node10" class="node">
<title>F403B</title>
<polygon fill="lightyellow" stroke="black" points="1670.81,-708.13 1566.81,-708.13 1566.81,-672.13 1670.81,-672.13 1670.81,-708.13"/>
<text text-anchor="middle" x="1618.81" y="-687.33" font-family="monospace" font-size="11.00">403 forbidden</text>
</g>
<!-- ROLE&#45;&gt;F403B -->
<g id="edge10" class="edge">
<title>ROLE&#45;&gt;F403B</title>
<path fill="none" stroke="black" d="M1377.47,-506.13C1430.29,-546.57 1533.81,-625.82 1586.05,-665.82"/>
<polygon fill="black" stroke="black" points="1584.21,-668.82 1594.28,-672.12 1588.47,-663.26 1584.21,-668.82"/>
<text text-anchor="middle" x="1529.81" y="-637.13" font-family="monospace" font-size="10.00">deny</text>
</g>
<!-- EXEC -->
<g id="node11" class="node">
<title>EXEC</title>
<polygon fill="none" stroke="black" points="1674.31,-289.13 1563.31,-289.13 1563.31,-253.13 1674.31,-253.13 1674.31,-289.13"/>
<text text-anchor="middle" x="1618.81" y="-274.33" font-family="monospace" font-size="11.00">Execute</text>
<text text-anchor="middle" x="1618.81" y="-262.33" font-family="monospace" font-size="11.00">endpoint logic</text>
</g>
<!-- ROLE&#45;&gt;EXEC -->
<g id="edge11" class="edge">
<title>ROLE&#45;&gt;EXEC</title>
<path fill="none" stroke="black" d="M1377.47,-456.01C1430.29,-415.37 1533.81,-335.74 1586.05,-295.56"/>
<polygon fill="black" stroke="black" points="1588.49,-298.1 1594.28,-289.23 1584.22,-292.55 1588.49,-298.1"/>
<text text-anchor="middle" x="1529.81" y="-348.13" font-family="monospace" font-size="10.00">allow</text>
</g>
<!-- MUT -->
<g id="node12" class="node">
<title>MUT</title>
<polygon fill="none" stroke="black" points="1822.81,-289.13 1711.5,-271.13 1822.81,-253.13 1934.12,-271.13 1822.81,-289.13"/>
<text text-anchor="middle" x="1822.81" y="-268.33" font-family="monospace" font-size="11.00">mutation request?</text>
</g>
<!-- EXEC&#45;&gt;MUT -->
<g id="edge12" class="edge">
<title>EXEC&#45;&gt;MUT</title>
<path fill="none" stroke="black" d="M1674.47,-271.13C1682.97,-271.13 1692.02,-271.13 1701.3,-271.13"/>
<polygon fill="black" stroke="black" points="1701.45,-274.63 1711.45,-271.13 1701.45,-267.63 1701.45,-274.63"/>
</g>
<!-- CAS -->
<g id="node13" class="node">
<title>CAS</title>
<polygon fill="none" stroke="black" points="2136.81,-637.13 2018.81,-605.13 2136.81,-573.13 2254.81,-605.13 2136.81,-637.13"/>
<text text-anchor="middle" x="2136.81" y="-608.33" font-family="monospace" font-size="11.00">CAS: generation</text>
<text text-anchor="middle" x="2136.81" y="-596.33" font-family="monospace" font-size="11.00">matches?</text>
</g>
<!-- MUT&#45;&gt;CAS -->
<g id="edge14" class="edge">
<title>MUT&#45;&gt;CAS</title>
<path fill="none" stroke="black" d="M1838.44,-286.79C1886.33,-338.06 2039.11,-501.61 2105.04,-572.19"/>
<polygon fill="black" stroke="black" points="2102.51,-574.6 2111.89,-579.52 2107.62,-569.83 2102.51,-574.6"/>
<text text-anchor="middle" x="1975.81" y="-461.13" font-family="monospace" font-size="10.00">mutation</text>
</g>
<!-- READ -->
<g id="node16" class="node">
<title>READ</title>
<polygon fill="lightgreen" stroke="black" points="2363.31,-157.13 2272.31,-157.13 2272.31,-121.13 2363.31,-121.13 2363.31,-157.13"/>
<text text-anchor="middle" x="2317.81" y="-142.33" font-family="monospace" font-size="11.00">return</text>
<text text-anchor="middle" x="2317.81" y="-130.33" font-family="monospace" font-size="11.00">read result</text>
</g>
<!-- MUT&#45;&gt;READ -->
<g id="edge13" class="edge">
<title>MUT&#45;&gt;READ</title>
<path fill="none" stroke="black" d="M1865.42,-259.99C1954.29,-236.19 2162.65,-180.41 2262.1,-153.78"/>
<polygon fill="black" stroke="black" points="2263.2,-157.11 2271.95,-151.14 2261.39,-150.34 2263.2,-157.11"/>
<text text-anchor="middle" x="1975.81" y="-239.13" font-family="monospace" font-size="10.00">read</text>
</g>
<!-- F409 -->
<g id="node14" class="node">
<title>F409</title>
<polygon fill="lightyellow" stroke="black" points="2492.31,-933.13 2381.31,-933.13 2381.31,-897.13 2492.31,-897.13 2492.31,-933.13"/>
<text text-anchor="middle" x="2436.81" y="-918.33" font-family="monospace" font-size="11.00">409 conflict</text>
<text text-anchor="middle" x="2436.81" y="-906.33" font-family="monospace" font-size="11.00">(stale writer)</text>
</g>
<!-- CAS&#45;&gt;F409 -->
<g id="edge15" class="edge">
<title>CAS&#45;&gt;F409</title>
<path fill="none" stroke="black" d="M2162.2,-630.5C2218.2,-688.76 2355.5,-831.59 2411.47,-889.81"/>
<polygon fill="black" stroke="black" points="2409.05,-892.34 2418.5,-897.12 2414.09,-887.49 2409.05,-892.34"/>
<text text-anchor="middle" x="2317.81" y="-834.13" font-family="monospace" font-size="10.00">mismatch</text>
</g>
<!-- APPLY -->
<g id="node15" class="node">
<title>APPLY</title>
<polygon fill="lightgreen" stroke="black" points="2492.31,-514.13 2381.31,-514.13 2381.31,-478.13 2492.31,-478.13 2492.31,-514.13"/>
<text text-anchor="middle" x="2436.81" y="-499.33" font-family="monospace" font-size="11.00">apply mutation</text>
<text text-anchor="middle" x="2436.81" y="-487.33" font-family="monospace" font-size="11.00">generation++</text>
</g>
<!-- CAS&#45;&gt;APPLY -->
<g id="edge16" class="edge">
<title>CAS&#45;&gt;APPLY</title>
<path fill="none" stroke="black" d="M2187.69,-586.88C2239.74,-567.85 2321.32,-538.01 2376.6,-517.78"/>
<polygon fill="black" stroke="black" points="2378.08,-520.97 2386.27,-514.25 2375.67,-514.4 2378.08,-520.97"/>
<text text-anchor="middle" x="2317.81" y="-557.13" font-family="monospace" font-size="10.00">match</text>
</g>
<!-- AUDIT -->
<g id="node17" class="node">
<title>AUDIT</title>
<polygon fill="none" stroke="black" points="2633.81,-250.13 2529.81,-250.13 2529.81,-214.13 2633.81,-214.13 2633.81,-250.13"/>
<text text-anchor="middle" x="2581.81" y="-235.33" font-family="monospace" font-size="11.00">emit audit</text>
<text text-anchor="middle" x="2581.81" y="-223.33" font-family="monospace" font-size="11.00">+ trace event</text>
</g>
<!-- APPLY&#45;&gt;AUDIT -->
<g id="edge18" class="edge">
<title>APPLY&#45;&gt;AUDIT</title>
<path fill="none" stroke="black" d="M2447.64,-477.98C2472.28,-432.49 2536.82,-313.35 2566.05,-259.39"/>
<polygon fill="black" stroke="black" points="2569.23,-260.86 2570.91,-250.4 2563.07,-257.53 2569.23,-260.86"/>
</g>
<!-- READ&#45;&gt;AUDIT -->
<g id="edge17" class="edge">
<title>READ&#45;&gt;AUDIT</title>
<path fill="none" stroke="black" d="M2363.55,-155.01C2406.76,-170.35 2472.5,-193.68 2520.35,-210.67"/>
<polygon fill="black" stroke="black" points="2519.38,-214.04 2529.98,-214.08 2521.72,-207.44 2519.38,-214.04"/>
</g>
</g>
</svg>
