<?xml version="1.0" encoding="UTF-8" standalone="no"?>
<!DOCTYPE svg PUBLIC "-//W3C//DTD SVG 1.1//EN"
 "http://www.w3.org/Graphics/SVG/1.1/DTD/svg11.dtd">
<!-- Generated by graphviz version 2.43.0 (0)
 -->
<!-- Title: audit_trail Pages: 1 -->
<svg width="1118pt" height="648pt"
 viewBox="0.00 0.00 1118.03 648.00" xmlns="http://www.w3.org/2000/svg" xmlns:xlink="http://www.w3.org/1999/xlink">
<g id="graph0" class="graph" transform="scale(0.77 0.77) rotate(0) translate(28.8 810.68)">
<title>audit_trail</title>
<polygon fill="white" stroke="transparent" points="-28.8,28.8 -28.8,-810.68 1419.59,-810.68 1419.59,28.8 -28.8,28.8"/>
<!-- CALL -->
<g id="node1" class="node">
<title>CALL</title>
<polygon fill="none" stroke="black" points="137.79,-227.82 -0.21,-227.82 -0.21,-191.82 137.79,-191.82 137.79,-227.82"/>
<text text-anchor="middle" x="68.79" y="-213.02" font-family="monospace" font-size="11.00">Caller / Service A</text>
<text text-anchor="middle" x="68.79" y="-201.02" font-family="monospace" font-size="11.00">API call</text>
</g>
<!-- GW -->
<g id="node2" class="node">
<title>GW</title>
<polygon fill="none" stroke="black" points="292.79,-227.82 174.79,-227.82 174.79,-191.82 292.79,-191.82 292.79,-227.82"/>
<text text-anchor="middle" x="233.79" y="-213.02" font-family="monospace" font-size="11.00">AXME Cloud API</text>
<text text-anchor="middle" x="233.79" y="-201.02" font-family="monospace" font-size="11.00">process request</text>
</g>
<!-- CALL&#45;&gt;GW -->
<g id="edge1" class="edge">
<title>CALL&#45;&gt;GW</title>
<path fill="none" stroke="black" d="M137.98,-209.82C146.75,-209.82 155.74,-209.82 164.52,-209.82"/>
<polygon fill="black" stroke="black" points="164.71,-213.32 174.71,-209.82 164.71,-206.32 164.71,-213.32"/>
</g>
<!-- STORE -->
<g id="node3" class="node">
<title>STORE</title>
<polygon fill="none" stroke="black" points="491.79,-444.82 353.79,-444.82 353.79,-408.82 491.79,-408.82 491.79,-444.82"/>
<text text-anchor="middle" x="422.79" y="-430.02" font-family="monospace" font-size="11.00">Policy/State Store</text>
<text text-anchor="middle" x="422.79" y="-418.02" font-family="monospace" font-size="11.00">mutate intent</text>
</g>
<!-- GW&#45;&gt;STORE -->
<g id="edge2" class="edge">
<title>GW&#45;&gt;STORE</title>
<path fill="none" stroke="black" d="M250.42,-227.95C283.55,-266.4 360.99,-356.26 399.39,-400.82"/>
<polygon fill="black" stroke="black" points="396.9,-403.3 406.08,-408.59 402.21,-398.73 396.9,-403.3"/>
</g>
<!-- OBS -->
<g id="node4" class="node">
<title>OBS</title>
<polygon fill="none" stroke="black" points="515.29,-227.82 330.29,-227.82 330.29,-191.82 515.29,-191.82 515.29,-227.82"/>
<text text-anchor="middle" x="422.79" y="-213.02" font-family="monospace" font-size="11.00">Observability</text>
<text text-anchor="middle" x="422.79" y="-201.02" font-family="monospace" font-size="11.00">trace_id, status, latency</text>
</g>
<!-- GW&#45;&gt;OBS -->
<g id="edge3" class="edge">
<title>GW&#45;&gt;OBS</title>
<path fill="none" stroke="black" d="M292.94,-209.82C301.6,-209.82 310.73,-209.82 319.98,-209.82"/>
<polygon fill="black" stroke="black" points="320.04,-213.32 330.04,-209.82 320.04,-206.32 320.04,-213.32"/>
</g>
<!-- RESP -->
<g id="node6" class="node">
<title>RESP</title>
<polygon fill="none" stroke="black" points="1390.79,-90.82 1292.79,-90.82 1292.79,-54.82 1390.79,-54.82 1390.79,-90.82"/>
<text text-anchor="middle" x="1341.79" y="-76.02" font-family="monospace" font-size="11.00">Caller</text>
<text text-anchor="middle" x="1341.79" y="-64.02" font-family="monospace" font-size="11.00">API response</text>
</g>
<!-- GW&#45;&gt;RESP -->
<g id="edge13" class="edge">
<title>GW&#45;&gt;RESP</title>
<path fill="none" stroke="black" stroke-dasharray="5,2" d="M242.46,-191.64C263.55,-144.84 327.24,-23.82 421.79,-23.82 421.79,-23.82 421.79,-23.82 1170.79,-23.82 1212.87,-23.82 1258.59,-37.85 1292.01,-50.89"/>
<polygon fill="black" stroke="black" points="1290.94,-54.24 1301.53,-54.71 1293.55,-47.74 1290.94,-54.24"/>
<text text-anchor="middle" x="803.79" y="-26.82" font-family="monospace" font-size="10.00">return</text>
</g>
<!-- WHY -->
<g id="node7" class="node">
<title>WHY</title>
<polygon fill="none" stroke="black" points="646.79,-448.82 552.5,-430.82 646.79,-412.82 741.09,-430.82 646.79,-448.82"/>
<text text-anchor="middle" x="646.79" y="-428.02" font-family="monospace" font-size="11.00">mutation type?</text>
</g>
<!-- STORE&#45;&gt;WHY -->
<g id="edge4" class="edge">
<title>STORE&#45;&gt;WHY</title>
<path fill="none" stroke="black" d="M491.91,-428.04C510.36,-428.38 530.68,-428.74 550.34,-429.1"/>
<polygon fill="black" stroke="black" points="550.48,-432.6 560.54,-429.28 550.61,-425.6 550.48,-432.6"/>
</g>
<!-- AUDIT -->
<g id="node5" class="node">
<title>AUDIT</title>
<polygon fill="none" stroke="black" points="1215.29,-452.82 1124.29,-452.82 1124.29,-416.82 1215.29,-416.82 1215.29,-452.82"/>
<text text-anchor="middle" x="1169.79" y="-438.02" font-family="monospace" font-size="11.00">Audit Trail</text>
<text text-anchor="middle" x="1169.79" y="-426.02" font-family="monospace" font-size="11.00">write event</text>
</g>
<!-- AUDIT&#45;&gt;RESP -->
<g id="edge12" class="edge">
<title>AUDIT&#45;&gt;RESP</title>
<path fill="none" stroke="black" d="M1179.46,-416.37C1207.31,-357.06 1294.66,-171.05 1327.84,-100.41"/>
<polygon fill="black" stroke="black" points="1331.06,-101.77 1332.15,-91.23 1324.73,-98.79 1331.06,-101.77"/>
</g>
<!-- POL -->
<g id="node8" class="node">
<title>POL</title>
<polygon fill="none" stroke="black" points="1032.79,-714.82 880.79,-714.82 880.79,-670.82 1032.79,-670.82 1032.79,-714.82"/>
<text text-anchor="middle" x="956.79" y="-702.02" font-family="monospace" font-size="11.00">Audit: policy_update</text>
<text text-anchor="middle" x="956.79" y="-690.02" font-family="monospace" font-size="11.00">old/new generation</text>
<text text-anchor="middle" x="956.79" y="-678.02" font-family="monospace" font-size="11.00">patch summary</text>
</g>
<!-- WHY&#45;&gt;POL -->
<g id="edge5" class="edge">
<title>WHY&#45;&gt;POL</title>
<path fill="none" stroke="black" d="M665.24,-445.65C714.66,-487.7 856.3,-608.18 921.81,-663.91"/>
<polygon fill="black" stroke="black" points="919.9,-666.88 929.78,-670.69 924.43,-661.54 919.9,-666.88"/>
<text text-anchor="middle" x="803.79" y="-602.82" font-family="monospace" font-size="10.00">policy mutation</text>
</g>
<!-- STAT -->
<g id="node9" class="node">
<title>STAT</title>
<polygon fill="none" stroke="black" points="1032.79,-465.82 880.79,-465.82 880.79,-421.82 1032.79,-421.82 1032.79,-465.82"/>
<text text-anchor="middle" x="956.79" y="-453.02" font-family="monospace" font-size="11.00">Audit: status_update</text>
<text text-anchor="middle" x="956.79" y="-441.02" font-family="monospace" font-size="11.00">old/new status</text>
<text text-anchor="middle" x="956.79" y="-429.02" font-family="monospace" font-size="11.00">reason</text>
</g>
<!-- WHY&#45;&gt;STAT -->
<g id="edge6" class="edge">
<title>WHY&#45;&gt;STAT</title>
<path fill="none" stroke="black" d="M724.32,-434.05C768.71,-435.92 824.72,-438.29 870.51,-440.22"/>
<polygon fill="black" stroke="black" points="870.58,-443.72 880.72,-440.65 870.88,-436.73 870.58,-443.72"/>
<text text-anchor="middle" x="803.79" y="-441.82" font-family="monospace" font-size="10.00">status mutation</text>
</g>
<!-- REJ -->
<g id="node10" class="node">
<title>REJ</title>
<polygon fill="lightyellow" stroke="black" points="1046.29,-227.82 867.29,-227.82 867.29,-191.82 1046.29,-191.82 1046.29,-227.82"/>
<text text-anchor="middle" x="956.79" y="-213.02" font-family="monospace" font-size="11.00">Audit: mutation_rejected</text>
<text text-anchor="middle" x="956.79" y="-201.02" font-family="monospace" font-size="11.00">reason, actor</text>
</g>
<!-- WHY&#45;&gt;REJ -->
<g id="edge7" class="edge">
<title>WHY&#45;&gt;REJ</title>
<path fill="none" stroke="black" d="M667.53,-416.66C718.99,-379.73 857.74,-280.18 922.12,-233.98"/>
<polygon fill="black" stroke="black" points="924.25,-236.76 930.33,-228.09 920.17,-231.07 924.25,-236.76"/>
<text text-anchor="middle" x="803.79" y="-348.82" font-family="monospace" font-size="10.00">rejected</text>
</g>
<!-- POL&#45;&gt;AUDIT -->
<g id="edge8" class="edge">
<title>POL&#45;&gt;AUDIT</title>
<path fill="none" stroke="black" d="M976.15,-670.37C1015.18,-622.64 1106.24,-511.3 1147.64,-460.69"/>
<polygon fill="black" stroke="black" points="1150.45,-462.77 1154.07,-452.82 1145.03,-458.34 1150.45,-462.77"/>
</g>
<!-- STAT&#45;&gt;AUDIT -->
<g id="edge9" class="edge">
<title>STAT&#45;&gt;AUDIT</title>
<path fill="none" stroke="black" d="M1033.08,-440.61C1059.79,-439.47 1089.34,-438.21 1114.02,-437.15"/>
<polygon fill="black" stroke="black" points="1114.43,-440.64 1124.27,-436.72 1114.13,-433.65 1114.43,-440.64"/>
</g>
<!-- REJ&#45;&gt;AUDIT -->
<g id="edge10" class="edge">
<title>REJ&#45;&gt;AUDIT</title>
<path fill="none" stroke="black" d="M974.7,-227.85C1012.05,-267.68 1101.67,-363.24 1144.8,-409.24"/>
<polygon fill="black" stroke="black" points="1142.41,-411.8 1151.8,-416.7 1147.51,-407.01 1142.41,-411.8"/>
</g>
<!-- ERR -->
<g id="node11" class="node">
<title>ERR</title>
<polygon fill="none" stroke="black" points="1255.79,-227.82 1083.79,-227.82 1083.79,-191.82 1255.79,-191.82 1255.79,-227.82"/>
<text text-anchor="middle" x="1169.79" y="-213.02" font-family="monospace" font-size="11.00">Observability</text>
<text text-anchor="middle" x="1169.79" y="-201.02" font-family="monospace" font-size="11.00">error counter + latency</text>
</g>
<!-- REJ&#45;&gt;ERR -->
<g id="edge11" class="edge">
<title>REJ&#45;&gt;ERR</title>
<path fill="none" stroke="black" d="M1046.36,-209.82C1055.29,-209.82 1064.39,-209.82 1073.39,-209.82"/>
<polygon fill="black" stroke="black" points="1073.49,-213.32 1083.49,-209.82 1073.49,-206.32 1073.49,-213.32"/>
</g>
</g>
</svg>
