<?xml version="1.0" encoding="UTF-8" standalone="no"?>
<!DOCTYPE svg PUBLIC "-//W3C//DTD SVG 1.1//EN"
 "http://www.w3.org/Graphics/SVG/1.1/DTD/svg11.dtd">
<!-- Generated by graphviz version 2.43.0 (0)
 -->
<!-- Title: resume_policy Pages: 1 -->
<svg width="1111pt" height="648pt"
 viewBox="0.00 0.00 1110.86 648.00" xmlns="http://www.w3.org/2000/svg" xmlns:xlink="http://www.w3.org/1999/xlink">
<g id="graph0" class="graph" transform="scale(0.92 0.92) rotate(0) translate(28.8 676.8)">
<title>resume_policy</title>
<polygon fill="white" stroke="transparent" points="-28.8,28.8 -28.8,-676.8 1180.8,-676.8 1180.8,28.8 -28.8,28.8"/>
<!-- INT -->
<g id="node1" class="node">
<title>INT</title>
<polygon fill="#1e40af" stroke="black" points="115,-322 11,-322 11,-286 115,-286 115,-322"/>
<text text-anchor="middle" x="63" y="-301.2" font-family="Helvetica,sans-Serif" font-size="11.00" fill="white">Intent: WAITING</text>
</g>
<!-- RES -->
<g id="node2" class="node">
<title>RES</title>
<polygon fill="#dbeafe" stroke="black" points="347,-538 193,-538 193,-502 347,-502 347,-538"/>
<text text-anchor="middle" x="270" y="-517.2" font-family="Helvetica,sans-Serif" font-size="11.00">POST /intents/:id/resume</text>
</g>
<!-- INT&#45;&gt;RES -->
<g id="edge1" class="edge">
<title>INT&#45;&gt;RES</title>
<path fill="none" stroke="black" d="M81.13,-322.04C117.53,-360.4 202.7,-450.14 244.7,-494.4"/>
<polygon fill="black" stroke="black" points="242.36,-497.01 251.78,-501.85 247.43,-492.19 242.36,-497.01"/>
</g>
<!-- CTRL -->
<g id="node3" class="node">
<title>CTRL</title>
<polygon fill="#dbeafe" stroke="black" points="351,-322 189,-322 189,-286 351,-286 351,-322"/>
<text text-anchor="middle" x="270" y="-301.2" font-family="Helvetica,sans-Serif" font-size="11.00">PATCH /intents/:id/controls</text>
</g>
<!-- INT&#45;&gt;CTRL -->
<g id="edge2" class="edge">
<title>INT&#45;&gt;CTRL</title>
<path fill="none" stroke="black" d="M115.2,-304C134.45,-304 156.95,-304 178.7,-304"/>
<polygon fill="black" stroke="black" points="178.97,-307.5 188.97,-304 178.97,-300.5 178.97,-307.5"/>
</g>
<!-- POL -->
<g id="node4" class="node">
<title>POL</title>
<polygon fill="#dbeafe" stroke="black" points="345,-106 195,-106 195,-70 345,-70 345,-106"/>
<text text-anchor="middle" x="270" y="-85.2" font-family="Helvetica,sans-Serif" font-size="11.00">PATCH /intents/:id/policy</text>
</g>
<!-- INT&#45;&gt;POL -->
<g id="edge3" class="edge">
<title>INT&#45;&gt;POL</title>
<path fill="none" stroke="black" d="M81.13,-285.96C117.53,-247.6 202.7,-157.86 244.7,-113.6"/>
<polygon fill="black" stroke="black" points="247.43,-115.81 251.78,-106.15 242.36,-110.99 247.43,-115.81"/>
</g>
<!-- GATE -->
<g id="node5" class="node">
<title>GATE</title>
<polygon fill="#fef3c7" stroke="black" points="552,-552 456,-520 552,-488 648,-520 552,-552"/>
<text text-anchor="middle" x="552" y="-523.2" font-family="Helvetica,sans-Serif" font-size="11.00">policy grants</text>
<text text-anchor="middle" x="552" y="-511.2" font-family="Helvetica,sans-Serif" font-size="11.00">allow resume?</text>
</g>
<!-- RES&#45;&gt;GATE -->
<g id="edge4" class="edge">
<title>RES&#45;&gt;GATE</title>
<path fill="none" stroke="black" d="M347.14,-520C377.52,-520 413,-520 445.78,-520"/>
<polygon fill="black" stroke="black" points="445.85,-523.5 455.85,-520 445.85,-516.5 445.85,-523.5"/>
</g>
<!-- CASC -->
<g id="node6" class="node">
<title>CASC</title>
<polygon fill="#fef3c7" stroke="black" points="552,-200 439,-168 552,-136 665,-168 552,-200"/>
<text text-anchor="middle" x="552" y="-171.2" font-family="Helvetica,sans-Serif" font-size="11.00">policy_generation</text>
<text text-anchor="middle" x="552" y="-159.2" font-family="Helvetica,sans-Serif" font-size="11.00">matches?</text>
</g>
<!-- CTRL&#45;&gt;CASC -->
<g id="edge5" class="edge">
<title>CTRL&#45;&gt;CASC</title>
<path fill="none" stroke="black" d="M308.18,-285.94C357.54,-261.97 444.9,-219.53 500.28,-192.63"/>
<polygon fill="black" stroke="black" points="502.09,-195.65 509.56,-188.13 499.03,-189.35 502.09,-195.65"/>
</g>
<!-- POL&#45;&gt;CASC -->
<g id="edge6" class="edge">
<title>POL&#45;&gt;CASC</title>
<path fill="none" stroke="black" d="M334.19,-106.05C379.27,-118.93 439.74,-136.21 485.36,-149.25"/>
<polygon fill="black" stroke="black" points="484.58,-152.66 495.16,-152.04 486.5,-145.93 484.58,-152.66"/>
</g>
<!-- EXEC -->
<g id="node7" class="node">
<title>EXEC</title>
<polygon fill="#dcfce7" stroke="black" points="1139.5,-522 1024.5,-522 1024.5,-486 1139.5,-486 1139.5,-522"/>
<text text-anchor="middle" x="1082" y="-501.2" font-family="Helvetica,sans-Serif" font-size="11.00">resume execution</text>
</g>
<!-- GATE&#45;&gt;EXEC -->
<g id="edge7" class="edge">
<title>GATE&#45;&gt;EXEC</title>
<path fill="none" stroke="black" d="M625.64,-527.57C705.03,-534.55 835.88,-542.27 948,-531 969.86,-528.8 993.43,-524.63 1014.58,-520.2"/>
<polygon fill="black" stroke="black" points="1015.38,-523.61 1024.43,-518.09 1013.92,-516.76 1015.38,-523.61"/>
<text text-anchor="middle" x="861" y="-539" font-family="Helvetica,sans-Serif" font-size="10.00">yes</text>
</g>
<!-- DENY -->
<g id="node8" class="node">
<title>DENY</title>
<polygon fill="#fee2e2" stroke="black" points="908.5,-522 813.5,-522 813.5,-486 908.5,-486 908.5,-522"/>
<text text-anchor="middle" x="861" y="-501.2" font-family="Helvetica,sans-Serif" font-size="11.00">403 Forbidden</text>
</g>
<!-- GATE&#45;&gt;DENY -->
<g id="edge8" class="edge">
<title>GATE&#45;&gt;DENY</title>
<path fill="none" stroke="black" d="M635.27,-515.71C688.39,-512.94 756.12,-509.41 803.28,-506.96"/>
<polygon fill="black" stroke="black" points="803.51,-510.45 813.31,-506.43 803.14,-503.46 803.51,-510.45"/>
<text text-anchor="middle" x="722" y="-514" font-family="Helvetica,sans-Serif" font-size="10.00">no</text>
</g>
<!-- APPLY -->
<g id="node9" class="node">
<title>APPLY</title>
<polygon fill="#dcfce7" stroke="black" points="900,-306 822,-306 822,-270 900,-270 900,-306"/>
<text text-anchor="middle" x="861" y="-285.2" font-family="Helvetica,sans-Serif" font-size="11.00">apply delta</text>
</g>
<!-- CASC&#45;&gt;APPLY -->
<g id="edge9" class="edge">
<title>CASC&#45;&gt;APPLY</title>
<path fill="none" stroke="black" d="M600.3,-186.49C657.85,-208.98 754.48,-246.76 812.25,-269.33"/>
<polygon fill="black" stroke="black" points="811.28,-272.71 821.87,-273.09 813.83,-266.19 811.28,-272.71"/>
<text text-anchor="middle" x="722" y="-239" font-family="Helvetica,sans-Serif" font-size="10.00">yes</text>
</g>
<!-- CONF -->
<g id="node10" class="node">
<title>CONF</title>
<polygon fill="#fee2e2" stroke="black" points="948,-90 774,-90 774,-54 948,-54 948,-90"/>
<text text-anchor="middle" x="861" y="-75.2" font-family="Helvetica,sans-Serif" font-size="11.00">409 Conflict</text>
<text text-anchor="middle" x="861" y="-63.2" font-family="Helvetica,sans-Serif" font-size="11.00">(retry with fresh generation)</text>
</g>
<!-- CASC&#45;&gt;CONF -->
<g id="edge10" class="edge">
<title>CASC&#45;&gt;CONF</title>
<path fill="none" stroke="black" d="M606.48,-151.28C658.09,-135.14 736.44,-110.64 792.36,-93.15"/>
<polygon fill="black" stroke="black" points="793.68,-96.4 802.18,-90.08 791.59,-89.72 793.68,-96.4"/>
<text text-anchor="middle" x="722" y="-121" font-family="Helvetica,sans-Serif" font-size="10.00">no</text>
</g>
<!-- APPLY&#45;&gt;EXEC -->
<g id="edge11" class="edge">
<title>APPLY&#45;&gt;EXEC</title>
<path fill="none" stroke="black" d="M880.3,-306.04C919.26,-344.48 1010.55,-434.51 1055.32,-478.67"/>
<polygon fill="black" stroke="black" points="1053.03,-481.32 1062.6,-485.85 1057.94,-476.34 1053.03,-481.32"/>
</g>
</g>
</svg>
