<?xml version="1.0" encoding="UTF-8" standalone="no"?>
<!DOCTYPE svg PUBLIC "-//W3C//DTD SVG 1.1//EN"
 "http://www.w3.org/Graphics/SVG/1.1/DTD/svg11.dtd">
<!-- Generated by graphviz version 2.43.0 (0)
 -->
<!-- Title: org_receive_policy Pages: 1 -->
<svg width="834pt" height="670pt"
 viewBox="0.00 0.00 834.00 669.50" xmlns="http://www.w3.org/2000/svg" xmlns:xlink="http://www.w3.org/1999/xlink">
<g id="graph0" class="graph" transform="scale(1 1) rotate(0) translate(4 665.5)">
<title>org_receive_policy</title>
<polygon fill="white" stroke="transparent" points="-4,4 -4,-665.5 830,-665.5 830,4 -4,4"/>
<g id="clust1" class="cluster">
<title>cluster_sender</title>
<polygon fill="#e8f4fd" stroke="#1a73e8" points="444,-8 444,-166 624,-166 624,-8 444,-8"/>
<text text-anchor="middle" x="534" y="-150.8" font-family="Times,serif" font-size="14.00">Sender Org (Org A)</text>
</g>
<g id="clust2" class="cluster">
<title>cluster_receiver</title>
<polygon fill="#fce8e6" stroke="#d93025" points="8,-91 8,-653.5 436,-653.5 436,-91 8,-91"/>
<text text-anchor="middle" x="222" y="-638.3" font-family="Times,serif" font-size="14.00">Receiver Org (Org B)</text>
</g>
<g id="clust3" class="cluster">
<title>cluster_policy</title>
<polygon fill="#fef7e0" stroke="#f9ab00" points="16,-195 16,-622.5 428,-622.5 428,-195 16,-195"/>
<text text-anchor="middle" x="222" y="-607.3" font-family="Times,serif" font-size="14.00">Policy Evaluation</text>
</g>
<g id="clust4" class="cluster">
<title>cluster_tables</title>
<polygon fill="#e6f4ea" stroke="#1e8e3e" points="444,-511 444,-631 818,-631 818,-511 444,-511"/>
<text text-anchor="middle" x="631" y="-615.8" font-family="Times,serif" font-size="14.00">Database Tables</text>
</g>
<!-- sender -->
<g id="node1" class="node">
<title>sender</title>
<path fill="#bbdefb" stroke="black" d="M604,-135C604,-135 464,-135 464,-135 458,-135 452,-129 452,-123 452,-123 452,-111 452,-111 452,-105 458,-99 464,-99 464,-99 604,-99 604,-99 610,-99 616,-105 616,-111 616,-111 616,-123 616,-123 616,-129 610,-135 604,-135"/>
<text text-anchor="middle" x="534" y="-120.2" font-family="Helvetica,sans-Serif" font-size="11.00">Sender Agent</text>
<text text-anchor="middle" x="534" y="-108.2" font-family="Helvetica,sans-Serif" font-size="11.00">agent://org&#45;a/ws/requester</text>
</g>
<!-- gw_send -->
<g id="node2" class="node">
<title>gw_send</title>
<path fill="#bbdefb" stroke="black" d="M591.5,-52C591.5,-52 506.5,-52 506.5,-52 500.5,-52 494.5,-46 494.5,-40 494.5,-40 494.5,-28 494.5,-28 494.5,-22 500.5,-16 506.5,-16 506.5,-16 591.5,-16 591.5,-16 597.5,-16 603.5,-22 603.5,-28 603.5,-28 603.5,-40 603.5,-40 603.5,-46 597.5,-52 591.5,-52"/>
<text text-anchor="middle" x="549" y="-37.2" font-family="Helvetica,sans-Serif" font-size="11.00">Gateway</text>
<text text-anchor="middle" x="549" y="-25.2" font-family="Helvetica,sans-Serif" font-size="11.00">POST /v1/intents</text>
</g>
<!-- sender&#45;&gt;gw_send -->
<g id="edge1" class="edge">
<title>sender&#45;&gt;gw_send</title>
<path fill="none" stroke="black" d="M537.18,-98.82C539.15,-88.19 541.72,-74.31 543.96,-62.2"/>
<polygon fill="black" stroke="black" points="547.44,-62.62 545.82,-52.15 540.56,-61.35 547.44,-62.62"/>
<text text-anchor="middle" x="580.5" y="-73" font-family="Helvetica,sans-Serif" font-size="10.00">cross&#45;org intent</text>
</g>
<!-- rp -->
<g id="node3" class="node">
<title>rp</title>
<path fill="#fff9c4" stroke="black" d="M255.36,-588.57C255.36,-588.57 151.64,-562.43 151.64,-562.43 145.82,-560.97 145.82,-558.03 151.64,-556.57 151.64,-556.57 255.36,-530.43 255.36,-530.43 261.18,-528.97 272.82,-528.97 278.64,-530.43 278.64,-530.43 382.36,-556.57 382.36,-556.57 388.18,-558.03 388.18,-560.97 382.36,-562.43 382.36,-562.43 278.64,-588.57 278.64,-588.57 272.82,-590.03 261.18,-590.03 255.36,-588.57"/>
<text text-anchor="middle" x="267" y="-562.7" font-family="Helvetica,sans-Serif" font-size="11.00">Org Receive Policy</text>
<text text-anchor="middle" x="267" y="-550.7" font-family="Helvetica,sans-Serif" font-size="11.00">org_receive_policies</text>
</g>
<!-- gw_send&#45;&gt;rp -->
<g id="edge2" class="edge">
<title>gw_send&#45;&gt;rp</title>
<path fill="none" stroke="black" d="M597.98,-52.16C607.07,-56.93 615.91,-62.82 623,-70 638.78,-86 644,-93.53 644,-116 644,-441 644,-441 644,-441 644,-449 443.54,-507.81 334.97,-539.08"/>
<polygon fill="black" stroke="black" points="333.72,-535.79 325.08,-541.92 335.66,-542.52 333.72,-535.79"/>
<text text-anchor="middle" x="674.5" y="-271" font-family="Helvetica,sans-Serif" font-size="10.00">to_agent in</text>
<text text-anchor="middle" x="674.5" y="-260" font-family="Helvetica,sans-Serif" font-size="10.00">different org</text>
</g>
<!-- allow -->
<g id="node4" class="node">
<title>allow</title>
<path fill="#c8e6c9" stroke="#1e8e3e" d="M88.5,-239C88.5,-239 53.5,-239 53.5,-239 47.5,-239 41.5,-233 41.5,-227 41.5,-227 41.5,-215 41.5,-215 41.5,-209 47.5,-203 53.5,-203 53.5,-203 88.5,-203 88.5,-203 94.5,-203 100.5,-209 100.5,-215 100.5,-215 100.5,-227 100.5,-227 100.5,-233 94.5,-239 88.5,-239"/>
<text text-anchor="middle" x="71" y="-218.2" font-family="Helvetica,sans-Serif" font-size="11.00">✓ Allow</text>
</g>
<!-- rp&#45;&gt;allow -->
<g id="edge3" class="edge">
<title>rp&#45;&gt;allow</title>
<path fill="none" stroke="black" d="M218.95,-539.54C163.56,-514.69 75.58,-465.2 40,-390 17.95,-343.4 40.14,-282.62 56.66,-248.4"/>
<polygon fill="black" stroke="black" points="59.97,-249.6 61.33,-239.09 53.72,-246.46 59.97,-249.6"/>
<text text-anchor="middle" x="70.5" y="-382" font-family="Helvetica,sans-Serif" font-size="10.00">mode=open</text>
</g>
<!-- deny -->
<g id="node5" class="node">
<title>deny</title>
<path fill="#ffcdd2" stroke="#d93025" d="M408,-239C408,-239 350,-239 350,-239 344,-239 338,-233 338,-227 338,-227 338,-215 338,-215 338,-209 344,-203 350,-203 350,-203 408,-203 408,-203 414,-203 420,-209 420,-215 420,-215 420,-227 420,-227 420,-233 414,-239 408,-239"/>
<text text-anchor="middle" x="379" y="-218.2" font-family="Helvetica,sans-Serif" font-size="11.00">✗ Deny 403</text>
</g>
<!-- rp&#45;&gt;deny -->
<g id="edge4" class="edge">
<title>rp&#45;&gt;deny</title>
<path fill="none" stroke="black" d="M299.62,-535.67C312.02,-525.94 325.63,-513.87 336,-501 380.03,-446.36 392.3,-429.16 409,-361 415.77,-333.37 414.38,-324.93 409,-297 405.75,-280.1 398.72,-262.18 392.29,-248.09"/>
<polygon fill="black" stroke="black" points="395.43,-246.54 387.98,-239.01 389.1,-249.54 395.43,-246.54"/>
<text text-anchor="middle" x="438" y="-382" font-family="Helvetica,sans-Serif" font-size="10.00">mode=closed</text>
</g>
<!-- al_check -->
<g id="node6" class="node">
<title>al_check</title>
<path fill="#fff9c4" stroke="black" d="M229.67,-468.06C229.67,-468.06 160.33,-443.94 160.33,-443.94 154.67,-441.97 154.67,-438.03 160.33,-436.06 160.33,-436.06 229.67,-411.94 229.67,-411.94 235.33,-409.97 246.67,-409.97 252.33,-411.94 252.33,-411.94 321.67,-436.06 321.67,-436.06 327.33,-438.03 327.33,-441.97 321.67,-443.94 321.67,-443.94 252.33,-468.06 252.33,-468.06 246.67,-470.03 235.33,-470.03 229.67,-468.06"/>
<text text-anchor="middle" x="241" y="-443.2" font-family="Helvetica,sans-Serif" font-size="11.00">Sender org_id</text>
<text text-anchor="middle" x="241" y="-431.2" font-family="Helvetica,sans-Serif" font-size="11.00">in allowlist?</text>
</g>
<!-- rp&#45;&gt;al_check -->
<g id="edge5" class="edge">
<title>rp&#45;&gt;al_check</title>
<path fill="none" stroke="black" d="M260.44,-528.85C257.16,-514.02 253.14,-495.87 249.61,-479.93"/>
<polygon fill="black" stroke="black" points="252.96,-478.84 247.38,-469.83 246.12,-480.35 252.96,-478.84"/>
<text text-anchor="middle" x="293" y="-493" font-family="Helvetica,sans-Serif" font-size="10.00">mode=allowlist</text>
</g>
<!-- receiver -->
<g id="node8" class="node">
<title>receiver</title>
<path fill="#ffcdd2" stroke="black" d="M168,-135C168,-135 28,-135 28,-135 22,-135 16,-129 16,-123 16,-123 16,-111 16,-111 16,-105 22,-99 28,-99 28,-99 168,-99 168,-99 174,-99 180,-105 180,-111 180,-111 180,-123 180,-123 180,-129 174,-135 168,-135"/>
<text text-anchor="middle" x="98" y="-120.2" font-family="Helvetica,sans-Serif" font-size="11.00">Receiver Agent</text>
<text text-anchor="middle" x="98" y="-108.2" font-family="Helvetica,sans-Serif" font-size="11.00">agent://org&#45;b/ws/processor</text>
</g>
<!-- allow&#45;&gt;receiver -->
<g id="edge10" class="edge">
<title>allow&#45;&gt;receiver</title>
<path fill="none" stroke="black" d="M75.58,-202.7C79.78,-186.85 86.05,-163.14 90.9,-144.84"/>
<polygon fill="black" stroke="black" points="94.31,-145.61 93.49,-135.05 87.54,-143.82 94.31,-145.61"/>
</g>
<!-- deny&#45;&gt;sender -->
<g id="edge11" class="edge">
<title>deny&#45;&gt;sender</title>
<path fill="none" stroke="#d93025" stroke-dasharray="5,2" d="M406.22,-202.86C415.1,-197.21 425,-190.88 434,-185 456.15,-170.53 480.85,-153.99 500.16,-140.96"/>
<polygon fill="#d93025" stroke="#d93025" points="502.3,-143.74 508.63,-135.24 498.38,-137.94 502.3,-143.74"/>
<text text-anchor="middle" x="473.5" y="-177" font-family="Helvetica,sans-Serif" font-size="10.00">HTTP 403</text>
</g>
<!-- al_check&#45;&gt;allow -->
<g id="edge6" class="edge">
<title>al_check&#45;&gt;allow</title>
<path fill="none" stroke="black" d="M200.6,-421.77C151.54,-400.65 74.8,-366.93 71,-361 49.32,-327.2 55.82,-278.62 63.03,-248.75"/>
<polygon fill="black" stroke="black" points="66.43,-249.58 65.56,-239.02 59.66,-247.82 66.43,-249.58"/>
<text text-anchor="middle" x="80" y="-326.5" font-family="Helvetica,sans-Serif" font-size="10.00">yes</text>
</g>
<!-- override -->
<g id="node7" class="node">
<title>override</title>
<path fill="#fff9c4" stroke="black" d="M237.26,-358.51C237.26,-358.51 109.74,-331.49 109.74,-331.49 103.87,-330.24 103.87,-327.76 109.74,-326.51 109.74,-326.51 237.26,-299.49 237.26,-299.49 243.13,-298.24 254.87,-298.24 260.74,-299.49 260.74,-299.49 388.26,-326.51 388.26,-326.51 394.13,-327.76 394.13,-330.24 388.26,-331.49 388.26,-331.49 260.74,-358.51 260.74,-358.51 254.87,-359.76 243.13,-359.76 237.26,-358.51"/>
<text text-anchor="middle" x="249" y="-332.2" font-family="Helvetica,sans-Serif" font-size="11.00">Agent Receive Override</text>
<text text-anchor="middle" x="249" y="-320.2" font-family="Helvetica,sans-Serif" font-size="11.00">agent_receive_overrides</text>
</g>
<!-- al_check&#45;&gt;override -->
<g id="edge7" class="edge">
<title>al_check&#45;&gt;override</title>
<path fill="none" stroke="black" d="M243.23,-408.64C244.09,-396.92 245.08,-383.35 246.01,-370.81"/>
<polygon fill="black" stroke="black" points="249.51,-370.81 246.76,-360.58 242.53,-370.29 249.51,-370.81"/>
<text text-anchor="middle" x="251.5" y="-382" font-family="Helvetica,sans-Serif" font-size="10.00">no</text>
</g>
<!-- override&#45;&gt;allow -->
<g id="edge8" class="edge">
<title>override&#45;&gt;allow</title>
<path fill="none" stroke="black" d="M210.38,-305C180.17,-287.01 138.42,-262.15 108.5,-244.33"/>
<polygon fill="black" stroke="black" points="110,-241.15 99.62,-239.04 106.42,-247.17 110,-241.15"/>
<text text-anchor="middle" x="203" y="-271" font-family="Helvetica,sans-Serif" font-size="10.00">override=allow</text>
<text text-anchor="middle" x="203" y="-260" font-family="Helvetica,sans-Serif" font-size="10.00">for this agent</text>
</g>
<!-- override&#45;&gt;deny -->
<g id="edge9" class="edge">
<title>override&#45;&gt;deny</title>
<path fill="none" stroke="black" d="M279.48,-303.15C300.81,-285.75 329.13,-262.66 350.11,-245.56"/>
<polygon fill="black" stroke="black" points="352.5,-248.12 358.04,-239.09 348.08,-242.7 352.5,-248.12"/>
<text text-anchor="middle" x="361" y="-265.5" font-family="Helvetica,sans-Serif" font-size="10.00">no override</text>
</g>
<!-- t1 -->
<g id="node9" class="node">
<title>t1</title>
<path fill="#c8e6c9" stroke="black" d="M646,-519.5C646,-519.5 798,-519.5 798,-519.5 804,-519.5 810,-525.5 810,-531.5 810,-531.5 810,-587.5 810,-587.5 810,-593.5 804,-599.5 798,-599.5 798,-599.5 646,-599.5 646,-599.5 640,-599.5 634,-593.5 634,-587.5 634,-587.5 634,-531.5 634,-531.5 634,-525.5 640,-519.5 646,-519.5"/>
<text text-anchor="middle" x="722" y="-586.7" font-family="Helvetica,sans-Serif" font-size="11.00">org_receive_policies</text>
<text text-anchor="middle" x="722" y="-574.7" font-family="Helvetica,sans-Serif" font-size="11.00">─────────────────</text>
<text text-anchor="middle" x="722" y="-562.7" font-family="Helvetica,sans-Serif" font-size="11.00">org_id (PK)</text>
<text text-anchor="middle" x="722" y="-550.7" font-family="Helvetica,sans-Serif" font-size="11.00">mode: open│allowlist│closed</text>
<text text-anchor="middle" x="722" y="-538.7" font-family="Helvetica,sans-Serif" font-size="11.00">allowlist_json</text>
<text text-anchor="middle" x="722" y="-526.7" font-family="Helvetica,sans-Serif" font-size="11.00">created_at, updated_at</text>
</g>
<!-- t2 -->
<g id="node10" class="node">
<title>t2</title>
<path fill="#c8e6c9" stroke="black" d="M464,-519.5C464,-519.5 604,-519.5 604,-519.5 610,-519.5 616,-525.5 616,-531.5 616,-531.5 616,-587.5 616,-587.5 616,-593.5 610,-599.5 604,-599.5 604,-599.5 464,-599.5 464,-599.5 458,-599.5 452,-593.5 452,-587.5 452,-587.5 452,-531.5 452,-531.5 452,-525.5 458,-519.5 464,-519.5"/>
<text text-anchor="middle" x="534" y="-586.7" font-family="Helvetica,sans-Serif" font-size="11.00">agent_receive_overrides</text>
<text text-anchor="middle" x="534" y="-574.7" font-family="Helvetica,sans-Serif" font-size="11.00">─────────────────</text>
<text text-anchor="middle" x="534" y="-562.7" font-family="Helvetica,sans-Serif" font-size="11.00">agent_address (PK)</text>
<text text-anchor="middle" x="534" y="-550.7" font-family="Helvetica,sans-Serif" font-size="11.00">override_org_id</text>
<text text-anchor="middle" x="534" y="-538.7" font-family="Helvetica,sans-Serif" font-size="11.00">override_type: allow│block</text>
<text text-anchor="middle" x="534" y="-526.7" font-family="Helvetica,sans-Serif" font-size="11.00">created_at, updated_at</text>
</g>
</g>
</svg>
