<?xml version="1.0" encoding="UTF-8" standalone="no"?>
<!DOCTYPE svg PUBLIC "-//W3C//DTD SVG 1.1//EN"
 "http://www.w3.org/Graphics/SVG/1.1/DTD/svg11.dtd">
<!-- Generated by graphviz version 2.43.0 (0)
 -->
<!-- Title: authn_authz Pages: 1 -->
<svg width="1127pt" height="648pt"
 viewBox="0.00 0.00 1126.71 648.00" xmlns="http://www.w3.org/2000/svg" xmlns:xlink="http://www.w3.org/1999/xlink">
<g id="graph0" class="graph" transform="scale(0.56 0.56) rotate(0) translate(28.8 1118.92)">
<title>authn_authz</title>
<polygon fill="white" stroke="transparent" points="-28.8,28.8 -28.8,-1118.92 1966.8,-1118.92 1966.8,28.8 -28.8,28.8"/>
<!-- REQ -->
<g id="node1" class="node">
<title>REQ</title>
<polygon fill="none" stroke="black" points="124.5,-782.09 -0.5,-782.09 -0.5,-746.09 124.5,-746.09 124.5,-782.09"/>
<text text-anchor="middle" x="62" y="-761.29" font-family="monospace" font-size="11.00">Incoming Request</text>
</g>
<!-- AKEY -->
<g id="node2" class="node">
<title>AKEY</title>
<polygon fill="none" stroke="black" points="320,-782.09 162,-782.09 162,-746.09 320,-746.09 320,-782.09"/>
<text text-anchor="middle" x="241" y="-767.29" font-family="monospace" font-size="11.00">Validate platform key</text>
<text text-anchor="middle" x="241" y="-755.29" font-family="monospace" font-size="11.00">x&#45;api&#45;key</text>
</g>
<!-- REQ&#45;&gt;AKEY -->
<g id="edge1" class="edge">
<title>REQ&#45;&gt;AKEY</title>
<path fill="none" stroke="black" d="M124.91,-764.09C133.6,-764.09 142.67,-764.09 151.73,-764.09"/>
<polygon fill="black" stroke="black" points="151.95,-767.59 161.95,-764.09 151.95,-760.59 151.95,-767.59"/>
</g>
<!-- F401A -->
<g id="node3" class="node">
<title>F401A</title>
<polygon fill="lightyellow" stroke="black" points="605.5,-995.09 460.5,-995.09 460.5,-959.09 605.5,-959.09 605.5,-995.09"/>
<text text-anchor="middle" x="533" y="-980.29" font-family="monospace" font-size="11.00">401 missing/invalid</text>
<text text-anchor="middle" x="533" y="-968.29" font-family="monospace" font-size="11.00">platform api key</text>
</g>
<!-- AKEY&#45;&gt;F401A -->
<g id="edge2" class="edge">
<title>AKEY&#45;&gt;F401A</title>
<path fill="none" stroke="black" d="M266.73,-782.25C318.95,-820.6 440.48,-909.87 499.15,-952.96"/>
<polygon fill="black" stroke="black" points="497.21,-955.87 507.34,-958.97 501.35,-950.23 497.21,-955.87"/>
<text text-anchor="middle" x="350" y="-854.09" font-family="monospace" font-size="10.00">fail</text>
</g>
<!-- BRTE -->
<g id="node4" class="node">
<title>BRTE</title>
<polygon fill="none" stroke="black" points="533,-583.09 381,-551.09 533,-519.09 685,-551.09 533,-583.09"/>
<text text-anchor="middle" x="533" y="-554.29" font-family="monospace" font-size="11.00">Actor token required</text>
<text text-anchor="middle" x="533" y="-542.29" font-family="monospace" font-size="11.00">on route?</text>
</g>
<!-- AKEY&#45;&gt;BRTE -->
<g id="edge3" class="edge">
<title>AKEY&#45;&gt;BRTE</title>
<path fill="none" stroke="black" d="M266.73,-745.93C316.31,-709.51 428.37,-627.2 489.79,-582.09"/>
<polygon fill="black" stroke="black" points="492.12,-584.72 498.11,-575.98 487.98,-579.08 492.12,-584.72"/>
<text text-anchor="middle" x="350" y="-692.09" font-family="monospace" font-size="10.00">ok</text>
</g>
<!-- VJWT -->
<g id="node5" class="node">
<title>VJWT</title>
<polygon fill="none" stroke="black" points="918.5,-763.09 739.5,-763.09 739.5,-727.09 918.5,-727.09 918.5,-763.09"/>
<text text-anchor="middle" x="829" y="-748.29" font-family="monospace" font-size="11.00">Validate actor token</text>
<text text-anchor="middle" x="829" y="-736.29" font-family="monospace" font-size="11.00">JWT sig + claims + scope</text>
</g>
<!-- BRTE&#45;&gt;VJWT -->
<g id="edge4" class="edge">
<title>BRTE&#45;&gt;VJWT</title>
<path fill="none" stroke="black" d="M570.64,-575.26C627.33,-612.67 735.63,-684.14 791.96,-721.3"/>
<polygon fill="black" stroke="black" points="790.26,-724.38 800.54,-726.96 794.12,-718.53 790.26,-724.38"/>
<text text-anchor="middle" x="712" y="-674.09" font-family="monospace" font-size="10.00">yes</text>
</g>
<!-- OWNR -->
<g id="node7" class="node">
<title>OWNR</title>
<polygon fill="none" stroke="black" points="1124.5,-513.09 1033.5,-513.09 1033.5,-477.09 1124.5,-477.09 1124.5,-513.09"/>
<text text-anchor="middle" x="1079" y="-498.29" font-family="monospace" font-size="11.00">Owner scope</text>
<text text-anchor="middle" x="1079" y="-486.29" font-family="monospace" font-size="11.00">checks</text>
</g>
<!-- BRTE&#45;&gt;OWNR -->
<g id="edge5" class="edge">
<title>BRTE&#45;&gt;OWNR</title>
<path fill="none" stroke="black" d="M635.68,-540.62C750.43,-528.81 932.84,-510.03 1023.35,-500.71"/>
<polygon fill="black" stroke="black" points="1023.81,-504.18 1033.4,-499.68 1023.09,-497.22 1023.81,-504.18"/>
<text text-anchor="middle" x="829" y="-532.09" font-family="monospace" font-size="10.00">no</text>
</g>
<!-- F401B -->
<g id="node6" class="node">
<title>F401B</title>
<polygon fill="lightyellow" stroke="black" points="1178.5,-889.09 979.5,-889.09 979.5,-853.09 1178.5,-853.09 1178.5,-889.09"/>
<text text-anchor="middle" x="1079" y="-874.29" font-family="monospace" font-size="11.00">401/403 missing actor token</text>
<text text-anchor="middle" x="1079" y="-862.29" font-family="monospace" font-size="11.00">or invalid actor scope</text>
</g>
<!-- VJWT&#45;&gt;F401B -->
<g id="edge6" class="edge">
<title>VJWT&#45;&gt;F401B</title>
<path fill="none" stroke="black" d="M865.53,-763.14C909.82,-785.64 985.53,-824.11 1033.6,-848.53"/>
<polygon fill="black" stroke="black" points="1032.03,-851.66 1042.53,-853.07 1035.2,-845.42 1032.03,-851.66"/>
<text text-anchor="middle" x="949" y="-814.09" font-family="monospace" font-size="10.00">fail</text>
</g>
<!-- VJWT&#45;&gt;OWNR -->
<g id="edge7" class="edge">
<title>VJWT&#45;&gt;OWNR</title>
<path fill="none" stroke="black" d="M848.24,-726.7C891.97,-682.62 1002.87,-570.82 1052.87,-520.42"/>
<polygon fill="black" stroke="black" points="1055.51,-522.72 1060.07,-513.16 1050.54,-517.79 1055.51,-522.72"/>
<text text-anchor="middle" x="949" y="-637.09" font-family="monospace" font-size="10.00">ok</text>
</g>
<!-- F403A -->
<g id="node8" class="node">
<title>F403A</title>
<polygon fill="lightyellow" stroke="black" points="1461,-726.09 1323,-726.09 1323,-690.09 1461,-690.09 1461,-726.09"/>
<text text-anchor="middle" x="1392" y="-705.29" font-family="monospace" font-size="11.00">403 owner mismatch</text>
</g>
<!-- OWNR&#45;&gt;F403A -->
<g id="edge8" class="edge">
<title>OWNR&#45;&gt;F403A</title>
<path fill="none" stroke="black" d="M1106.52,-513.25C1162.63,-551.68 1293.39,-641.24 1356.16,-684.23"/>
<polygon fill="black" stroke="black" points="1354.32,-687.21 1364.55,-689.97 1358.28,-681.43 1354.32,-687.21"/>
<text text-anchor="middle" x="1209" y="-591.09" font-family="monospace" font-size="10.00">fail</text>
</g>
<!-- ROLE -->
<g id="node9" class="node">
<title>ROLE</title>
<polygon fill="none" stroke="black" points="1392,-314.09 1240,-282.09 1392,-250.09 1544,-282.09 1392,-314.09"/>
<text text-anchor="middle" x="1392" y="-285.29" font-family="monospace" font-size="11.00">Role or delegated</text>
<text text-anchor="middle" x="1392" y="-273.29" font-family="monospace" font-size="11.00">grant allows action?</text>
</g>
<!-- OWNR&#45;&gt;ROLE -->
<g id="edge9" class="edge">
<title>OWNR&#45;&gt;ROLE</title>
<path fill="none" stroke="black" d="M1106.52,-476.93C1159.94,-440.34 1281,-357.43 1346.66,-312.46"/>
<polygon fill="black" stroke="black" points="1348.88,-315.18 1355.15,-306.64 1344.93,-309.4 1348.88,-315.18"/>
<text text-anchor="middle" x="1209" y="-417.09" font-family="monospace" font-size="10.00">ok</text>
</g>
<!-- F403B -->
<g id="node10" class="node">
<title>F403B</title>
<polygon fill="lightyellow" stroke="black" points="1745,-469.09 1641,-469.09 1641,-433.09 1745,-433.09 1745,-469.09"/>
<text text-anchor="middle" x="1693" y="-448.29" font-family="monospace" font-size="11.00">403 forbidden</text>
</g>
<!-- ROLE&#45;&gt;F403B -->
<g id="edge10" class="edge">
<title>ROLE&#45;&gt;F403B</title>
<path fill="none" stroke="black" d="M1434.26,-305.41C1491.44,-337.73 1594.14,-395.78 1651.12,-427.98"/>
<polygon fill="black" stroke="black" points="1649.43,-431.04 1659.86,-432.92 1652.87,-424.95 1649.43,-431.04"/>
<text text-anchor="middle" x="1577" y="-395.09" font-family="monospace" font-size="10.00">deny</text>
</g>
<!-- EXEC -->
<g id="node11" class="node">
<title>EXEC</title>
<polygon fill="none" stroke="black" points="1775.5,-131.09 1610.5,-131.09 1610.5,-95.09 1775.5,-95.09 1775.5,-131.09"/>
<text text-anchor="middle" x="1693" y="-110.29" font-family="monospace" font-size="11.00">Execute endpoint logic</text>
</g>
<!-- ROLE&#45;&gt;EXEC -->
<g id="edge11" class="edge">
<title>ROLE&#45;&gt;EXEC</title>
<path fill="none" stroke="black" d="M1434.26,-258.76C1491.44,-226.45 1594.14,-168.4 1651.12,-136.19"/>
<polygon fill="black" stroke="black" points="1652.87,-139.22 1659.86,-131.25 1649.43,-133.13 1652.87,-139.22"/>
<text text-anchor="middle" x="1577" y="-186.09" font-family="monospace" font-size="10.00">allow</text>
</g>
<!-- AUDIT -->
<g id="node12" class="node">
<title>AUDIT</title>
<polygon fill="lightgreen" stroke="black" points="1938.5,-131.09 1813.5,-131.09 1813.5,-95.09 1938.5,-95.09 1938.5,-131.09"/>
<text text-anchor="middle" x="1876" y="-116.29" font-family="monospace" font-size="11.00">Emit audit</text>
<text text-anchor="middle" x="1876" y="-104.29" font-family="monospace" font-size="11.00">+ trace metadata</text>
</g>
<!-- EXEC&#45;&gt;AUDIT -->
<g id="edge12" class="edge">
<title>EXEC&#45;&gt;AUDIT</title>
<path fill="none" stroke="black" d="M1775.76,-113.09C1784.95,-113.09 1794.26,-113.09 1803.31,-113.09"/>
<polygon fill="black" stroke="black" points="1803.39,-116.59 1813.39,-113.09 1803.39,-109.59 1803.39,-116.59"/>
</g>
</g>
</svg>
