<?xml version="1.0" encoding="UTF-8" standalone="no"?>
<!DOCTYPE svg PUBLIC "-//W3C//DTD SVG 1.1//EN"
 "http://www.w3.org/Graphics/SVG/1.1/DTD/svg11.dtd">
<!-- Generated by graphviz version 2.43.0 (0)
 -->
<!-- Title: authn_authz Pages: 1 -->
<svg width="1125pt" height="648pt"
 viewBox="0.00 0.00 1124.71 648.00" xmlns="http://www.w3.org/2000/svg" xmlns:xlink="http://www.w3.org/1999/xlink">
<g id="graph0" class="graph" transform="scale(0.61 0.61) rotate(0) translate(28.8 1035.11)">
<title>authn_authz</title>
<polygon fill="white" stroke="transparent" points="-28.8,28.8 -28.8,-1035.11 1817.8,-1035.11 1817.8,28.8 -28.8,28.8"/>
<!-- REQ -->
<g id="node1" class="node">
<title>REQ</title>
<polygon fill="none" stroke="black" points="124.5,-723.41 -0.5,-723.41 -0.5,-687.41 124.5,-687.41 124.5,-723.41"/>
<text text-anchor="middle" x="62" y="-702.61" font-family="monospace" font-size="11.00">Incoming Request</text>
</g>
<!-- AKEY -->
<g id="node2" class="node">
<title>AKEY</title>
<polygon fill="none" stroke="black" points="300,-723.41 162,-723.41 162,-687.41 300,-687.41 300,-723.41"/>
<text text-anchor="middle" x="231" y="-702.61" font-family="monospace" font-size="11.00">Validate x&#45;api&#45;key</text>
</g>
<!-- REQ&#45;&gt;AKEY -->
<g id="edge1" class="edge">
<title>REQ&#45;&gt;AKEY</title>
<path fill="none" stroke="black" d="M124.71,-705.41C133.49,-705.41 142.61,-705.41 151.65,-705.41"/>
<polygon fill="black" stroke="black" points="151.8,-708.91 161.8,-705.41 151.8,-701.91 151.8,-708.91"/>
</g>
<!-- F401A -->
<g id="node3" class="node">
<title>F401A</title>
<polygon fill="lightyellow" stroke="black" points="551.5,-920.41 406.5,-920.41 406.5,-884.41 551.5,-884.41 551.5,-920.41"/>
<text text-anchor="middle" x="479" y="-899.61" font-family="monospace" font-size="11.00">401 invalid api key</text>
</g>
<!-- AKEY&#45;&gt;F401A -->
<g id="edge2" class="edge">
<title>AKEY&#45;&gt;F401A</title>
<path fill="none" stroke="black" d="M254.7,-723.59C299.09,-759.14 397.42,-837.88 447.46,-877.95"/>
<polygon fill="black" stroke="black" points="445.36,-880.75 455.35,-884.27 449.73,-875.29 445.36,-880.75"/>
<text text-anchor="middle" x="330" y="-794.41" font-family="monospace" font-size="10.00">fail</text>
</g>
<!-- BRTE -->
<g id="node4" class="node">
<title>BRTE</title>
<polygon fill="none" stroke="black" points="479,-541.41 361,-509.41 479,-477.41 597,-509.41 479,-541.41"/>
<text text-anchor="middle" x="479" y="-512.61" font-family="monospace" font-size="11.00">Bearer required</text>
<text text-anchor="middle" x="479" y="-500.61" font-family="monospace" font-size="11.00">on route?</text>
</g>
<!-- AKEY&#45;&gt;BRTE -->
<g id="edge3" class="edge">
<title>AKEY&#45;&gt;BRTE</title>
<path fill="none" stroke="black" d="M254.7,-687.32C297.04,-653.58 388.44,-580.76 440.22,-539.51"/>
<polygon fill="black" stroke="black" points="442.53,-542.14 448.17,-533.17 438.17,-536.66 442.53,-542.14"/>
<text text-anchor="middle" x="330" y="-639.41" font-family="monospace" font-size="10.00">ok</text>
</g>
<!-- VJWT -->
<g id="node5" class="node">
<title>VJWT</title>
<polygon fill="none" stroke="black" points="804,-706.41 652,-706.41 652,-670.41 804,-670.41 804,-706.41"/>
<text text-anchor="middle" x="728" y="-691.61" font-family="monospace" font-size="11.00">Validate JWT</text>
<text text-anchor="middle" x="728" y="-679.61" font-family="monospace" font-size="11.00">sig + claims + scope</text>
</g>
<!-- BRTE&#45;&gt;VJWT -->
<g id="edge4" class="edge">
<title>BRTE&#45;&gt;VJWT</title>
<path fill="none" stroke="black" d="M512.04,-532.62C559.08,-566.71 646.39,-629.99 693.98,-664.48"/>
<polygon fill="black" stroke="black" points="691.96,-667.33 702.11,-670.36 696.06,-661.66 691.96,-667.33"/>
<text text-anchor="middle" x="624" y="-622.41" font-family="monospace" font-size="10.00">yes</text>
</g>
<!-- OWNR -->
<g id="node7" class="node">
<title>OWNR</title>
<polygon fill="none" stroke="black" points="992.5,-474.41 901.5,-474.41 901.5,-438.41 992.5,-438.41 992.5,-474.41"/>
<text text-anchor="middle" x="947" y="-459.61" font-family="monospace" font-size="11.00">Owner scope</text>
<text text-anchor="middle" x="947" y="-447.61" font-family="monospace" font-size="11.00">checks</text>
</g>
<!-- BRTE&#45;&gt;OWNR -->
<g id="edge5" class="edge">
<title>BRTE&#45;&gt;OWNR</title>
<path fill="none" stroke="black" d="M562.51,-500.02C657.27,-489.24 810.08,-471.86 891.24,-462.63"/>
<polygon fill="black" stroke="black" points="891.71,-466.1 901.25,-461.49 890.92,-459.15 891.71,-466.1"/>
<text text-anchor="middle" x="728" y="-491.41" font-family="monospace" font-size="10.00">no</text>
</g>
<!-- F401B -->
<g id="node6" class="node">
<title>F401B</title>
<polygon fill="lightyellow" stroke="black" points="1029.5,-821.41 864.5,-821.41 864.5,-785.41 1029.5,-785.41 1029.5,-821.41"/>
<text text-anchor="middle" x="947" y="-806.61" font-family="monospace" font-size="11.00">401/403</text>
<text text-anchor="middle" x="947" y="-794.61" font-family="monospace" font-size="11.00">token or scope invalid</text>
</g>
<!-- VJWT&#45;&gt;F401B -->
<g id="edge6" class="edge">
<title>VJWT&#45;&gt;F401B</title>
<path fill="none" stroke="black" d="M763.38,-706.63C801.16,-726.65 861.9,-758.83 902.84,-780.53"/>
<polygon fill="black" stroke="black" points="901.3,-783.68 911.78,-785.27 904.58,-777.49 901.3,-783.68"/>
<text text-anchor="middle" x="834" y="-751.41" font-family="monospace" font-size="10.00">fail</text>
</g>
<!-- VJWT&#45;&gt;OWNR -->
<g id="edge7" class="edge">
<title>VJWT&#45;&gt;OWNR</title>
<path fill="none" stroke="black" d="M746.03,-670.2C784.45,-629.12 877.98,-529.12 922.15,-481.9"/>
<polygon fill="black" stroke="black" points="924.78,-484.22 929.05,-474.53 919.66,-479.44 924.78,-484.22"/>
<text text-anchor="middle" x="834" y="-588.41" font-family="monospace" font-size="10.00">ok</text>
</g>
<!-- F403A -->
<g id="node8" class="node">
<title>F403A</title>
<polygon fill="lightyellow" stroke="black" points="1312,-671.41 1174,-671.41 1174,-635.41 1312,-635.41 1312,-671.41"/>
<text text-anchor="middle" x="1243" y="-650.61" font-family="monospace" font-size="11.00">403 owner mismatch</text>
</g>
<!-- OWNR&#45;&gt;F403A -->
<g id="edge8" class="edge">
<title>OWNR&#45;&gt;F403A</title>
<path fill="none" stroke="black" d="M974.87,-474.41C1028.1,-510.08 1146.95,-589.72 1206.53,-629.64"/>
<polygon fill="black" stroke="black" points="1204.62,-632.57 1214.87,-635.23 1208.51,-626.75 1204.62,-632.57"/>
<text text-anchor="middle" x="1060" y="-539.41" font-family="monospace" font-size="10.00">fail</text>
</g>
<!-- ROLE -->
<g id="node9" class="node">
<title>ROLE</title>
<polygon fill="none" stroke="black" points="1243,-292.41 1091,-260.41 1243,-228.41 1395,-260.41 1243,-292.41"/>
<text text-anchor="middle" x="1243" y="-263.61" font-family="monospace" font-size="11.00">Role or delegated</text>
<text text-anchor="middle" x="1243" y="-251.61" font-family="monospace" font-size="11.00">grant allows action?</text>
</g>
<!-- OWNR&#45;&gt;ROLE -->
<g id="edge9" class="edge">
<title>OWNR&#45;&gt;ROLE</title>
<path fill="none" stroke="black" d="M975.13,-438.32C1025.77,-404.56 1135.14,-331.65 1196.99,-290.41"/>
<polygon fill="black" stroke="black" points="1199.02,-293.27 1205.4,-284.81 1195.13,-287.44 1199.02,-293.27"/>
<text text-anchor="middle" x="1060" y="-391.41" font-family="monospace" font-size="10.00">ok</text>
</g>
<!-- F403B -->
<g id="node10" class="node">
<title>F403B</title>
<polygon fill="lightyellow" stroke="black" points="1596,-434.41 1492,-434.41 1492,-398.41 1596,-398.41 1596,-434.41"/>
<text text-anchor="middle" x="1544" y="-413.61" font-family="monospace" font-size="11.00">403 forbidden</text>
</g>
<!-- ROLE&#45;&gt;F403B -->
<g id="edge10" class="edge">
<title>ROLE&#45;&gt;F403B</title>
<path fill="none" stroke="black" d="M1287.48,-283.09C1344.09,-312.63 1442.5,-363.97 1499.25,-393.58"/>
<polygon fill="black" stroke="black" points="1497.84,-396.79 1508.32,-398.31 1501.08,-390.58 1497.84,-396.79"/>
<text text-anchor="middle" x="1428" y="-365.41" font-family="monospace" font-size="10.00">deny</text>
</g>
<!-- EXEC -->
<g id="node11" class="node">
<title>EXEC</title>
<polygon fill="none" stroke="black" points="1626.5,-122.41 1461.5,-122.41 1461.5,-86.41 1626.5,-86.41 1626.5,-122.41"/>
<text text-anchor="middle" x="1544" y="-101.61" font-family="monospace" font-size="11.00">Execute endpoint logic</text>
</g>
<!-- ROLE&#45;&gt;EXEC -->
<g id="edge11" class="edge">
<title>ROLE&#45;&gt;EXEC</title>
<path fill="none" stroke="black" d="M1287.48,-237.72C1344.09,-208.18 1442.5,-156.84 1499.25,-127.23"/>
<polygon fill="black" stroke="black" points="1501.08,-130.23 1508.32,-122.5 1497.84,-124.02 1501.08,-130.23"/>
<text text-anchor="middle" x="1428" y="-172.41" font-family="monospace" font-size="10.00">allow</text>
</g>
<!-- AUDIT -->
<g id="node12" class="node">
<title>AUDIT</title>
<polygon fill="lightgreen" stroke="black" points="1789.5,-122.41 1664.5,-122.41 1664.5,-86.41 1789.5,-86.41 1789.5,-122.41"/>
<text text-anchor="middle" x="1727" y="-107.61" font-family="monospace" font-size="11.00">Emit audit</text>
<text text-anchor="middle" x="1727" y="-95.61" font-family="monospace" font-size="11.00">+ trace metadata</text>
</g>
<!-- EXEC&#45;&gt;AUDIT -->
<g id="edge12" class="edge">
<title>EXEC&#45;&gt;AUDIT</title>
<path fill="none" stroke="black" d="M1626.76,-104.41C1635.95,-104.41 1645.26,-104.41 1654.31,-104.41"/>
<polygon fill="black" stroke="black" points="1654.39,-107.91 1664.39,-104.41 1654.39,-100.91 1654.39,-107.91"/>
</g>
</g>
</svg>
