<?xml version="1.0" encoding="UTF-8" standalone="no"?>
<!DOCTYPE svg PUBLIC "-//W3C//DTD SVG 1.1//EN"
 "http://www.w3.org/Graphics/SVG/1.1/DTD/svg11.dtd">
<!-- Generated by graphviz version 2.43.0 (0)
 -->
<!-- Title: crypto_key Pages: 1 -->
<svg width="1111pt" height="648pt"
 viewBox="0.00 0.00 1110.86 648.00" xmlns="http://www.w3.org/2000/svg" xmlns:xlink="http://www.w3.org/1999/xlink">
<g id="graph0" class="graph" transform="scale(0.92 0.92) rotate(0) translate(28.8 676.8)">
<title>crypto_key</title>
<polygon fill="white" stroke="transparent" points="-28.8,28.8 -28.8,-676.8 1180.8,-676.8 1180.8,28.8 -28.8,28.8"/>
<!-- GEN -->
<g id="node1" class="node">
<title>GEN</title>
<polygon fill="#1e40af" stroke="black" points="100,-220 14,-220 14,-184 100,-184 100,-220"/>
<text text-anchor="middle" x="57" y="-205.2" font-family="Helvetica,sans-Serif" font-size="11.00" fill="white">generate</text>
<text text-anchor="middle" x="57" y="-193.2" font-family="Helvetica,sans-Serif" font-size="11.00" fill="white">(HSM / KMS)</text>
</g>
<!-- ACTIVE -->
<g id="node2" class="node">
<title>ACTIVE</title>
<polygon fill="#dcfce7" stroke="black" points="319,-220 185,-220 185,-184 319,-184 319,-220"/>
<text text-anchor="middle" x="252" y="-199.2" font-family="Helvetica,sans-Serif" font-size="11.00">active: sign / encrypt</text>
</g>
<!-- GEN&#45;&gt;ACTIVE -->
<g id="edge1" class="edge">
<title>GEN&#45;&gt;ACTIVE</title>
<path fill="none" stroke="black" d="M100.35,-202C122.1,-202 149.28,-202 174.53,-202"/>
<polygon fill="black" stroke="black" points="174.85,-205.5 184.85,-202 174.85,-198.5 174.85,-205.5"/>
</g>
<!-- ROT -->
<g id="node3" class="node">
<title>ROT</title>
<polygon fill="#fef3c7" stroke="black" points="511.5,-342 410.5,-342 410.5,-306 511.5,-306 511.5,-342"/>
<text text-anchor="middle" x="461" y="-321.2" font-family="Helvetica,sans-Serif" font-size="11.00">rotation trigger</text>
</g>
<!-- ACTIVE&#45;&gt;ROT -->
<g id="edge2" class="edge">
<title>ACTIVE&#45;&gt;ROT</title>
<path fill="none" stroke="black" d="M283.54,-220C319.93,-241.45 380.79,-277.31 420.66,-300.82"/>
<polygon fill="black" stroke="black" points="418.94,-303.86 429.33,-305.92 422.49,-297.83 418.94,-303.86"/>
</g>
<!-- USE -->
<g id="node8" class="node">
<title>USE</title>
<polygon fill="#dbeafe" stroke="black" points="514.5,-99 407.5,-99 407.5,-63 514.5,-63 514.5,-99"/>
<text text-anchor="middle" x="461" y="-84.2" font-family="Helvetica,sans-Serif" font-size="11.00">encrypt payload</text>
<text text-anchor="middle" x="461" y="-72.2" font-family="Helvetica,sans-Serif" font-size="11.00">or sign webhook</text>
</g>
<!-- ACTIVE&#45;&gt;USE -->
<g id="edge7" class="edge">
<title>ACTIVE&#45;&gt;USE</title>
<path fill="none" stroke="black" d="M283.99,-183.89C320.37,-162.62 380.79,-127.3 420.5,-104.09"/>
<polygon fill="black" stroke="black" points="422.27,-107.11 429.14,-99.04 418.74,-101.07 422.27,-107.11"/>
</g>
<!-- NEW -->
<g id="node4" class="node">
<title>NEW</title>
<polygon fill="#dcfce7" stroke="black" points="735,-585 635,-585 635,-549 735,-549 735,-585"/>
<text text-anchor="middle" x="685" y="-564.2" font-family="Helvetica,sans-Serif" font-size="11.00">new active key</text>
</g>
<!-- ROT&#45;&gt;NEW -->
<g id="edge3" class="edge">
<title>ROT&#45;&gt;NEW</title>
<path fill="none" stroke="black" d="M478.69,-342.26C517.83,-385.12 615.66,-492.2 660.67,-541.46"/>
<polygon fill="black" stroke="black" points="658.09,-543.83 667.42,-548.86 663.26,-539.11 658.09,-543.83"/>
</g>
<!-- GRACE -->
<g id="node5" class="node">
<title>GRACE</title>
<polygon fill="#dbeafe" stroke="black" points="763,-342 607,-342 607,-306 763,-306 763,-342"/>
<text text-anchor="middle" x="685" y="-321.2" font-family="Helvetica,sans-Serif" font-size="11.00">old key: verify&#45;only grace</text>
</g>
<!-- ROT&#45;&gt;GRACE -->
<g id="edge4" class="edge">
<title>ROT&#45;&gt;GRACE</title>
<path fill="none" stroke="black" d="M511.54,-324C536.58,-324 567.7,-324 596.59,-324"/>
<polygon fill="black" stroke="black" points="596.7,-327.5 606.7,-324 596.7,-320.5 596.7,-327.5"/>
</g>
<!-- RET -->
<g id="node6" class="node">
<title>RET</title>
<polygon fill="#dbeafe" stroke="black" points="942,-342 852,-342 852,-306 942,-306 942,-342"/>
<text text-anchor="middle" x="897" y="-321.2" font-family="Helvetica,sans-Serif" font-size="11.00">retire old key</text>
</g>
<!-- GRACE&#45;&gt;RET -->
<g id="edge5" class="edge">
<title>GRACE&#45;&gt;RET</title>
<path fill="none" stroke="black" d="M763,-324C789.11,-324 817.7,-324 841.67,-324"/>
<polygon fill="black" stroke="black" points="841.98,-327.5 851.98,-324 841.98,-320.5 841.98,-327.5"/>
</g>
<!-- ARC -->
<g id="node7" class="node">
<title>ARC</title>
<polygon fill="#dbeafe" stroke="black" points="1134,-342 1024,-342 1024,-306 1134,-306 1134,-342"/>
<text text-anchor="middle" x="1079" y="-321.2" font-family="Helvetica,sans-Serif" font-size="11.00">archive / destroy</text>
</g>
<!-- RET&#45;&gt;ARC -->
<g id="edge6" class="edge">
<title>RET&#45;&gt;ARC</title>
<path fill="none" stroke="black" d="M942.03,-324C963.62,-324 990.02,-324 1013.8,-324"/>
<polygon fill="black" stroke="black" points="1013.81,-327.5 1023.81,-324 1013.81,-320.5 1013.81,-327.5"/>
</g>
<!-- VERIFY -->
<g id="node9" class="node">
<title>VERIFY</title>
<polygon fill="#dcfce7" stroke="black" points="763.5,-99 606.5,-99 606.5,-63 763.5,-63 763.5,-99"/>
<text text-anchor="middle" x="685" y="-78.2" font-family="Helvetica,sans-Serif" font-size="11.00">recipient: verify / decrypt</text>
</g>
<!-- USE&#45;&gt;VERIFY -->
<g id="edge8" class="edge">
<title>USE&#45;&gt;VERIFY</title>
<path fill="none" stroke="black" d="M514.61,-81C538.93,-81 568.49,-81 596.06,-81"/>
<polygon fill="black" stroke="black" points="596.11,-84.5 606.11,-81 596.11,-77.5 596.11,-84.5"/>
</g>
</g>
</svg>
