<?xml version="1.0" encoding="UTF-8" standalone="no"?>
<!DOCTYPE svg PUBLIC "-//W3C//DTD SVG 1.1//EN"
 "http://www.w3.org/Graphics/SVG/1.1/DTD/svg11.dtd">
<!-- Generated by graphviz version 2.43.0 (0)
 -->
<!-- Title: trust_dfd Pages: 1 -->
<svg width="1111pt" height="648pt"
 viewBox="0.00 0.00 1110.86 648.00" xmlns="http://www.w3.org/2000/svg" xmlns:xlink="http://www.w3.org/1999/xlink">
<g id="graph0" class="graph" transform="scale(0.92 0.92) rotate(0) translate(28.8 676.8)">
<title>trust_dfd</title>
<polygon fill="white" stroke="transparent" points="-28.8,28.8 -28.8,-676.8 1180.8,-676.8 1180.8,28.8 -28.8,28.8"/>
<!-- CLIENT -->
<g id="node1" class="node">
<title>CLIENT</title>
<polygon fill="#1e40af" stroke="black" points="130.5,-324.74 27.5,-324.74 27.5,-288.74 130.5,-288.74 130.5,-324.74"/>
<text text-anchor="middle" x="79" y="-309.94" font-family="Helvetica,sans-Serif" font-size="11.00" fill="white">Client</text>
<text text-anchor="middle" x="79" y="-297.94" font-family="Helvetica,sans-Serif" font-size="11.00" fill="white">(External Zone)</text>
</g>
<!-- GW -->
<g id="node2" class="node">
<title>GW</title>
<polygon fill="#fef3c7" stroke="black" points="459.5,-324.74 350.5,-324.74 350.5,-288.74 459.5,-288.74 459.5,-324.74"/>
<text text-anchor="middle" x="405" y="-309.94" font-family="Helvetica,sans-Serif" font-size="11.00">API Gateway</text>
<text text-anchor="middle" x="405" y="-297.94" font-family="Helvetica,sans-Serif" font-size="11.00">(Trust Boundary)</text>
</g>
<!-- CLIENT&#45;&gt;GW -->
<g id="edge1" class="edge">
<title>CLIENT&#45;&gt;GW</title>
<path fill="none" stroke="black" d="M130.62,-306.74C187.16,-306.74 278.76,-306.74 340.16,-306.74"/>
<polygon fill="black" stroke="black" points="340.5,-310.24 350.5,-306.74 340.5,-303.24 340.5,-310.24"/>
<text text-anchor="middle" x="240" y="-309.74" font-family="Helvetica,sans-Serif" font-size="10.00">TLS 1.3 + JWT</text>
</g>
<!-- SVC -->
<g id="node3" class="node">
<title>SVC</title>
<polygon fill="#dcfce7" stroke="black" points="713.5,-324.74 614.5,-324.74 614.5,-288.74 713.5,-288.74 713.5,-324.74"/>
<text text-anchor="middle" x="664" y="-309.94" font-family="Helvetica,sans-Serif" font-size="11.00">Intent Service</text>
<text text-anchor="middle" x="664" y="-297.94" font-family="Helvetica,sans-Serif" font-size="11.00">(Internal Zone)</text>
</g>
<!-- GW&#45;&gt;SVC -->
<g id="edge2" class="edge">
<title>GW&#45;&gt;SVC</title>
<path fill="none" stroke="black" d="M459.56,-306.74C501.78,-306.74 560.59,-306.74 604.12,-306.74"/>
<polygon fill="black" stroke="black" points="604.28,-310.24 614.28,-306.74 604.28,-303.24 604.28,-310.24"/>
<text text-anchor="middle" x="538" y="-309.74" font-family="Helvetica,sans-Serif" font-size="10.00">mTLS</text>
</g>
<!-- DB -->
<g id="node4" class="node">
<title>DB</title>
<path fill="#e0e7ff" stroke="black" d="M1119,-571.74C1119,-573.94 1091.66,-575.74 1058,-575.74 1024.34,-575.74 997,-573.94 997,-571.74 997,-571.74 997,-535.74 997,-535.74 997,-533.53 1024.34,-531.74 1058,-531.74 1091.66,-531.74 1119,-533.53 1119,-535.74 1119,-535.74 1119,-571.74 1119,-571.74"/>
<path fill="none" stroke="black" d="M1119,-571.74C1119,-569.53 1091.66,-567.74 1058,-567.74 1024.34,-567.74 997,-569.53 997,-571.74"/>
<text text-anchor="middle" x="1058" y="-556.94" font-family="Helvetica,sans-Serif" font-size="11.00">Postgres</text>
<text text-anchor="middle" x="1058" y="-544.94" font-family="Helvetica,sans-Serif" font-size="11.00">(Encrypted at rest)</text>
</g>
<!-- SVC&#45;&gt;DB -->
<g id="edge3" class="edge">
<title>SVC&#45;&gt;DB</title>
<path fill="none" stroke="black" d="M693.82,-324.9C761.75,-367.7 932.23,-475.12 1013.11,-526.08"/>
<polygon fill="black" stroke="black" points="1011.72,-529.34 1022.05,-531.71 1015.45,-523.42 1011.72,-529.34"/>
</g>
<!-- WH -->
<g id="node5" class="node">
<title>WH</title>
<polygon fill="#dbeafe" stroke="black" points="1110.5,-324.74 1005.5,-324.74 1005.5,-288.74 1110.5,-288.74 1110.5,-324.74"/>
<text text-anchor="middle" x="1058" y="-309.94" font-family="Helvetica,sans-Serif" font-size="11.00">Webhook Target</text>
<text text-anchor="middle" x="1058" y="-297.94" font-family="Helvetica,sans-Serif" font-size="11.00">(External Zone)</text>
</g>
<!-- SVC&#45;&gt;WH -->
<g id="edge4" class="edge">
<title>SVC&#45;&gt;WH</title>
<path fill="none" stroke="black" d="M713.85,-306.74C785.06,-306.74 917.31,-306.74 995.19,-306.74"/>
<polygon fill="black" stroke="black" points="995.35,-310.24 1005.35,-306.74 995.35,-303.24 995.35,-310.24"/>
<text text-anchor="middle" x="852" y="-309.74" font-family="Helvetica,sans-Serif" font-size="10.00">HMAC&#45;signed payload</text>
</g>
<!-- AUDIT -->
<g id="node6" class="node">
<title>AUDIT</title>
<polygon fill="#e0e7ff" stroke="black" points="1092,-94.74 1024,-94.74 1024,-58.74 1092,-58.74 1092,-94.74"/>
<text text-anchor="middle" x="1058" y="-73.94" font-family="Helvetica,sans-Serif" font-size="11.00">Audit Log</text>
</g>
<!-- SVC&#45;&gt;AUDIT -->
<g id="edge5" class="edge">
<title>SVC&#45;&gt;AUDIT</title>
<path fill="none" stroke="black" d="M695.76,-288.69C766.09,-247.42 938.6,-146.21 1017.03,-100.19"/>
<polygon fill="black" stroke="black" points="1019.26,-102.94 1026.11,-94.86 1015.72,-96.9 1019.26,-102.94"/>
</g>
</g>
</svg>
