<?xml version="1.0" encoding="UTF-8" standalone="no"?>
<!DOCTYPE svg PUBLIC "-//W3C//DTD SVG 1.1//EN"
 "http://www.w3.org/Graphics/SVG/1.1/DTD/svg11.dtd">
<!-- Generated by graphviz version 2.43.0 (0)
 -->
<!-- Title: secrets_rotation Pages: 1 -->
<svg width="1111pt" height="648pt"
 viewBox="0.00 0.00 1110.86 648.00" xmlns="http://www.w3.org/2000/svg" xmlns:xlink="http://www.w3.org/1999/xlink">
<g id="graph0" class="graph" transform="scale(0.92 0.92) rotate(0) translate(28.8 676.8)">
<title>secrets_rotation</title>
<polygon fill="white" stroke="transparent" points="-28.8,28.8 -28.8,-676.8 1180.8,-676.8 1180.8,28.8 -28.8,28.8"/>
<!-- STORE -->
<g id="node1" class="node">
<title>STORE</title>
<polygon fill="#1e40af" stroke="black" points="100.5,-342 9.5,-342 9.5,-306 100.5,-306 100.5,-342"/>
<text text-anchor="middle" x="55" y="-327.2" font-family="Helvetica,sans-Serif" font-size="11.00" fill="white">Secrets Store</text>
<text text-anchor="middle" x="55" y="-315.2" font-family="Helvetica,sans-Serif" font-size="11.00" fill="white">(Vault / KMS)</text>
</g>
<!-- INJ -->
<g id="node2" class="node">
<title>INJ</title>
<polygon fill="#dbeafe" stroke="black" points="272.5,-585 175.5,-585 175.5,-549 272.5,-549 272.5,-585"/>
<text text-anchor="middle" x="224" y="-570.2" font-family="Helvetica,sans-Serif" font-size="11.00">inject at boot</text>
<text text-anchor="middle" x="224" y="-558.2" font-family="Helvetica,sans-Serif" font-size="11.00">(env / sidecar)</text>
</g>
<!-- STORE&#45;&gt;INJ -->
<g id="edge1" class="edge">
<title>STORE&#45;&gt;INJ</title>
<path fill="none" stroke="black" d="M68.55,-342.26C97.82,-384.85 170.68,-490.88 204.82,-540.54"/>
<polygon fill="black" stroke="black" points="201.98,-542.6 210.53,-548.86 207.75,-538.63 201.98,-542.6"/>
</g>
<!-- SCHED -->
<g id="node5" class="node">
<title>SCHED</title>
<polygon fill="#dbeafe" stroke="black" points="282.5,-342 165.5,-342 165.5,-306 282.5,-306 282.5,-342"/>
<text text-anchor="middle" x="224" y="-321.2" font-family="Helvetica,sans-Serif" font-size="11.00">rotation scheduler</text>
</g>
<!-- STORE&#45;&gt;SCHED -->
<g id="edge4" class="edge">
<title>STORE&#45;&gt;SCHED</title>
<path fill="none" stroke="black" d="M100.75,-324C117.46,-324 136.84,-324 155.16,-324"/>
<polygon fill="black" stroke="black" points="155.22,-327.5 165.22,-324 155.22,-320.5 155.22,-327.5"/>
</g>
<!-- DET -->
<g id="node10" class="node">
<title>DET</title>
<polygon fill="#fef3c7" stroke="black" points="271.5,-99 176.5,-99 176.5,-63 271.5,-63 271.5,-99"/>
<text text-anchor="middle" x="224" y="-78.2" font-family="Helvetica,sans-Serif" font-size="11.00">leak detection</text>
</g>
<!-- STORE&#45;&gt;DET -->
<g id="edge9" class="edge">
<title>STORE&#45;&gt;DET</title>
<path fill="none" stroke="black" d="M68.55,-305.74C97.82,-263.15 170.68,-157.12 204.82,-107.46"/>
<polygon fill="black" stroke="black" points="207.75,-109.37 210.53,-99.14 201.98,-105.4 207.75,-109.37"/>
</g>
<!-- SVC -->
<g id="node3" class="node">
<title>SVC</title>
<polygon fill="#dcfce7" stroke="black" points="487.5,-585 380.5,-585 380.5,-549 487.5,-549 487.5,-585"/>
<text text-anchor="middle" x="434" y="-564.2" font-family="Helvetica,sans-Serif" font-size="11.00">Service Runtime</text>
</g>
<!-- INJ&#45;&gt;SVC -->
<g id="edge2" class="edge">
<title>INJ&#45;&gt;SVC</title>
<path fill="none" stroke="black" d="M272.72,-567C301.6,-567 338.76,-567 370.03,-567"/>
<polygon fill="black" stroke="black" points="370.39,-570.5 380.39,-567 370.39,-563.5 370.39,-570.5"/>
</g>
<!-- USE -->
<g id="node4" class="node">
<title>USE</title>
<polygon fill="#dbeafe" stroke="black" points="706,-585 632,-585 632,-549 706,-549 706,-585"/>
<text text-anchor="middle" x="669" y="-564.2" font-family="Helvetica,sans-Serif" font-size="11.00">use secret</text>
</g>
<!-- SVC&#45;&gt;USE -->
<g id="edge3" class="edge">
<title>SVC&#45;&gt;USE</title>
<path fill="none" stroke="black" d="M487.58,-567C527.82,-567 582.8,-567 621.46,-567"/>
<polygon fill="black" stroke="black" points="621.9,-570.5 631.9,-567 621.9,-563.5 621.9,-570.5"/>
</g>
<!-- NEWV -->
<g id="node6" class="node">
<title>NEWV</title>
<polygon fill="#dbeafe" stroke="black" points="502.5,-342 365.5,-342 365.5,-306 502.5,-306 502.5,-342"/>
<text text-anchor="middle" x="434" y="-321.2" font-family="Helvetica,sans-Serif" font-size="11.00">generate new version</text>
</g>
<!-- SCHED&#45;&gt;NEWV -->
<g id="edge5" class="edge">
<title>SCHED&#45;&gt;NEWV</title>
<path fill="none" stroke="black" d="M282.66,-324C305.07,-324 331.09,-324 355.11,-324"/>
<polygon fill="black" stroke="black" points="355.27,-327.5 365.27,-324 355.27,-320.5 355.27,-327.5"/>
</g>
<!-- GRACE -->
<g id="node7" class="node">
<title>GRACE</title>
<polygon fill="#dbeafe" stroke="black" points="747.5,-342 590.5,-342 590.5,-306 747.5,-306 747.5,-342"/>
<text text-anchor="middle" x="669" y="-321.2" font-family="Helvetica,sans-Serif" font-size="11.00">dual&#45;version grace period</text>
</g>
<!-- NEWV&#45;&gt;GRACE -->
<g id="edge6" class="edge">
<title>NEWV&#45;&gt;GRACE</title>
<path fill="none" stroke="black" d="M502.71,-324C526.9,-324 554.53,-324 580.18,-324"/>
<polygon fill="black" stroke="black" points="580.28,-327.5 590.28,-324 580.28,-320.5 580.28,-327.5"/>
</g>
<!-- REV -->
<g id="node8" class="node">
<title>REV</title>
<polygon fill="#fee2e2" stroke="black" points="938.5,-342 819.5,-342 819.5,-306 938.5,-306 938.5,-342"/>
<text text-anchor="middle" x="879" y="-321.2" font-family="Helvetica,sans-Serif" font-size="11.00">revoke old version</text>
</g>
<!-- GRACE&#45;&gt;REV -->
<g id="edge7" class="edge">
<title>GRACE&#45;&gt;REV</title>
<path fill="none" stroke="black" d="M747.75,-324C767.89,-324 789.44,-324 809.1,-324"/>
<polygon fill="black" stroke="black" points="809.18,-327.5 819.18,-324 809.18,-320.5 809.18,-327.5"/>
</g>
<!-- AUD -->
<g id="node9" class="node">
<title>AUD</title>
<polygon fill="#dbeafe" stroke="black" points="1138.5,-342 1007.5,-342 1007.5,-306 1138.5,-306 1138.5,-342"/>
<text text-anchor="middle" x="1073" y="-321.2" font-family="Helvetica,sans-Serif" font-size="11.00">audit: rotation event</text>
</g>
<!-- REV&#45;&gt;AUD -->
<g id="edge8" class="edge">
<title>REV&#45;&gt;AUD</title>
<path fill="none" stroke="black" d="M938.65,-324C957.15,-324 977.84,-324 997.31,-324"/>
<polygon fill="black" stroke="black" points="997.35,-327.5 1007.35,-324 997.35,-320.5 997.35,-327.5"/>
</g>
<!-- ALERT -->
<g id="node11" class="node">
<title>ALERT</title>
<polygon fill="#fee2e2" stroke="black" points="514.5,-99 353.5,-99 353.5,-63 514.5,-63 514.5,-99"/>
<text text-anchor="middle" x="434" y="-78.2" font-family="Helvetica,sans-Serif" font-size="11.00">alert + emergency revoke</text>
</g>
<!-- DET&#45;&gt;ALERT -->
<g id="edge10" class="edge">
<title>DET&#45;&gt;ALERT</title>
<path fill="none" stroke="black" d="M271.68,-81C292.84,-81 318.6,-81 343.27,-81"/>
<polygon fill="black" stroke="black" points="343.39,-84.5 353.39,-81 343.39,-77.5 343.39,-84.5"/>
</g>
</g>
</svg>
