<?xml version="1.0" encoding="UTF-8" standalone="no"?>
<!DOCTYPE svg PUBLIC "-//W3C//DTD SVG 1.1//EN"
 "http://www.w3.org/Graphics/SVG/1.1/DTD/svg11.dtd">
<!-- Generated by graphviz version 2.43.0 (0)
 -->
<!-- Title: webhook_sig Pages: 1 -->
<svg width="1115pt" height="648pt"
 viewBox="0.00 0.00 1115.11 648.00" xmlns="http://www.w3.org/2000/svg" xmlns:xlink="http://www.w3.org/1999/xlink">
<g id="graph0" class="graph" transform="scale(0.84 0.84) rotate(0) translate(28.8 741.49)">
<title>webhook_sig</title>
<polygon fill="white" stroke="transparent" points="-28.8,28.8 -28.8,-741.49 1296.75,-741.49 1296.75,28.8 -28.8,28.8"/>
<!-- WH -->
<g id="node1" class="node">
<title>WH</title>
<polygon fill="#1e40af" stroke="black" points="115.95,-370.8 -0.05,-370.8 -0.05,-334.8 115.95,-334.8 115.95,-370.8"/>
<text text-anchor="middle" x="57.95" y="-350" font-family="Helvetica,sans-Serif" font-size="11.00" fill="white">Webhook Delivery</text>
</g>
<!-- SIGN -->
<g id="node2" class="node">
<title>SIGN</title>
<polygon fill="#dbeafe" stroke="black" points="276.95,-370.8 152.95,-370.8 152.95,-334.8 276.95,-334.8 276.95,-370.8"/>
<text text-anchor="middle" x="214.95" y="-356" font-family="Helvetica,sans-Serif" font-size="11.00">HMAC&#45;SHA256 sign</text>
<text text-anchor="middle" x="214.95" y="-344" font-family="Helvetica,sans-Serif" font-size="11.00">(X&#45;AXME&#45;Signature)</text>
</g>
<!-- WH&#45;&gt;SIGN -->
<g id="edge1" class="edge">
<title>WH&#45;&gt;SIGN</title>
<path fill="none" stroke="black" d="M116.22,-352.8C124.78,-352.8 133.68,-352.8 142.49,-352.8"/>
<polygon fill="black" stroke="black" points="142.75,-356.3 152.75,-352.8 142.75,-349.3 142.75,-356.3"/>
</g>
<!-- SEND -->
<g id="node3" class="node">
<title>SEND</title>
<polygon fill="#dbeafe" stroke="black" points="447.45,-370.8 314.45,-370.8 314.45,-334.8 447.45,-334.8 447.45,-370.8"/>
<text text-anchor="middle" x="380.95" y="-350" font-family="Helvetica,sans-Serif" font-size="11.00">POST to webhook_url</text>
</g>
<!-- SIGN&#45;&gt;SEND -->
<g id="edge2" class="edge">
<title>SIGN&#45;&gt;SEND</title>
<path fill="none" stroke="black" d="M277.02,-352.8C285.88,-352.8 295.1,-352.8 304.21,-352.8"/>
<polygon fill="black" stroke="black" points="304.43,-356.3 314.43,-352.8 304.43,-349.3 304.43,-356.3"/>
</g>
<!-- TGT -->
<g id="node4" class="node">
<title>TGT</title>
<polygon fill="#dbeafe" stroke="black" points="579.45,-370.8 484.45,-370.8 484.45,-334.8 579.45,-334.8 579.45,-370.8"/>
<text text-anchor="middle" x="531.95" y="-350" font-family="Helvetica,sans-Serif" font-size="11.00">Target Service</text>
</g>
<!-- SEND&#45;&gt;TGT -->
<g id="edge3" class="edge">
<title>SEND&#45;&gt;TGT</title>
<path fill="none" stroke="black" d="M447.74,-352.8C456.49,-352.8 465.41,-352.8 474,-352.8"/>
<polygon fill="black" stroke="black" points="474.28,-356.3 484.28,-352.8 474.28,-349.3 474.28,-356.3"/>
</g>
<!-- EXTR -->
<g id="node5" class="node">
<title>EXTR</title>
<polygon fill="#dbeafe" stroke="black" points="777.95,-589.8 623.95,-589.8 623.95,-553.8 777.95,-553.8 777.95,-589.8"/>
<text text-anchor="middle" x="700.95" y="-569" font-family="Helvetica,sans-Serif" font-size="11.00">extract header signature</text>
</g>
<!-- TGT&#45;&gt;EXTR -->
<g id="edge4" class="edge">
<title>TGT&#45;&gt;EXTR</title>
<path fill="none" stroke="black" d="M546.9,-371.1C576.5,-409.92 645.71,-500.67 679.98,-545.62"/>
<polygon fill="black" stroke="black" points="677.31,-547.88 686.15,-553.71 682.87,-543.64 677.31,-547.88"/>
</g>
<!-- RBLD -->
<g id="node6" class="node">
<title>RBLD</title>
<polygon fill="#dbeafe" stroke="black" points="785.45,-166.8 616.45,-166.8 616.45,-130.8 785.45,-130.8 785.45,-166.8"/>
<text text-anchor="middle" x="700.95" y="-152" font-family="Helvetica,sans-Serif" font-size="11.00">rebuild expected signature</text>
<text text-anchor="middle" x="700.95" y="-140" font-family="Helvetica,sans-Serif" font-size="11.00">(shared secret + raw body)</text>
</g>
<!-- TGT&#45;&gt;RBLD -->
<g id="edge5" class="edge">
<title>TGT&#45;&gt;RBLD</title>
<path fill="none" stroke="black" d="M547.77,-334.7C577.48,-298.41 644.41,-216.65 678.75,-174.7"/>
<polygon fill="black" stroke="black" points="681.53,-176.82 685.16,-166.87 676.12,-172.39 681.53,-176.82"/>
</g>
<!-- CMP -->
<g id="node7" class="node">
<title>CMP</title>
<polygon fill="#fef3c7" stroke="black" points="870.95,-370.8 822.5,-352.8 870.95,-334.8 919.4,-352.8 870.95,-370.8"/>
<text text-anchor="middle" x="870.95" y="-350" font-family="Helvetica,sans-Serif" font-size="11.00">match?</text>
</g>
<!-- EXTR&#45;&gt;CMP -->
<g id="edge6" class="edge">
<title>EXTR&#45;&gt;CMP</title>
<path fill="none" stroke="black" d="M715.98,-553.51C746.75,-513.4 820.02,-417.89 853.16,-374.69"/>
<polygon fill="black" stroke="black" points="856.1,-376.61 859.41,-366.54 850.55,-372.34 856.1,-376.61"/>
</g>
<!-- RBLD&#45;&gt;CMP -->
<g id="edge7" class="edge">
<title>RBLD&#45;&gt;CMP</title>
<path fill="none" stroke="black" d="M716.86,-166.91C747.82,-204.5 818.97,-290.9 852.22,-331.27"/>
<polygon fill="black" stroke="black" points="849.65,-333.66 858.71,-339.16 855.05,-329.21 849.65,-333.66"/>
</g>
<!-- ACC -->
<g id="node8" class="node">
<title>ACC</title>
<polygon fill="#dcfce7" stroke="black" points="1070.45,-581.8 975.45,-581.8 975.45,-545.8 1070.45,-545.8 1070.45,-581.8"/>
<text text-anchor="middle" x="1022.95" y="-561" font-family="Helvetica,sans-Serif" font-size="11.00">process event</text>
</g>
<!-- CMP&#45;&gt;ACC -->
<g id="edge8" class="edge">
<title>CMP&#45;&gt;ACC</title>
<path fill="none" stroke="black" d="M882.02,-366.97C906.78,-401.8 970.9,-492 1003.03,-537.19"/>
<polygon fill="black" stroke="black" points="1000.36,-539.47 1009,-545.59 1006.06,-535.42 1000.36,-539.47"/>
<text text-anchor="middle" x="945.95" y="-466.8" font-family="Helvetica,sans-Serif" font-size="10.00">yes</text>
</g>
<!-- REJ -->
<g id="node9" class="node">
<title>REJ</title>
<polygon fill="#fee2e2" stroke="black" points="1072.95,-158.8 972.95,-158.8 972.95,-122.8 1072.95,-122.8 1072.95,-158.8"/>
<text text-anchor="middle" x="1022.95" y="-138" font-family="Helvetica,sans-Serif" font-size="11.00">reject 403 / log</text>
</g>
<!-- CMP&#45;&gt;REJ -->
<g id="edge9" class="edge">
<title>CMP&#45;&gt;REJ</title>
<path fill="none" stroke="black" d="M882.02,-338.56C906.83,-303.5 971.17,-212.57 1003.23,-167.26"/>
<polygon fill="black" stroke="black" points="1006.08,-169.28 1009,-159.1 1000.37,-165.24 1006.08,-169.28"/>
<text text-anchor="middle" x="945.95" y="-261.8" font-family="Helvetica,sans-Serif" font-size="10.00">no</text>
</g>
<!-- ACK -->
<g id="node10" class="node">
<title>ACK</title>
<polygon fill="#dcfce7" stroke="black" points="1255.95,-581.8 1121.95,-581.8 1121.95,-545.8 1255.95,-545.8 1255.95,-581.8"/>
<text text-anchor="middle" x="1188.95" y="-561" font-family="Helvetica,sans-Serif" font-size="11.00">200 OK → DELIVERED</text>
</g>
<!-- ACC&#45;&gt;ACK -->
<g id="edge10" class="edge">
<title>ACC&#45;&gt;ACK</title>
<path fill="none" stroke="black" d="M1070.51,-563.8C1083.31,-563.8 1097.54,-563.8 1111.55,-563.8"/>
<polygon fill="black" stroke="black" points="1111.69,-567.3 1121.69,-563.8 1111.69,-560.3 1111.69,-567.3"/>
</g>
<!-- RETRY -->
<g id="node11" class="node">
<title>RETRY</title>
<polygon fill="#dbeafe" stroke="black" points="1267.95,-158.8 1109.95,-158.8 1109.95,-122.8 1267.95,-122.8 1267.95,-158.8"/>
<text text-anchor="middle" x="1188.95" y="-138" font-family="Helvetica,sans-Serif" font-size="11.00">AXME retries with backoff</text>
</g>
<!-- REJ&#45;&gt;RETRY -->
<g id="edge11" class="edge">
<title>REJ&#45;&gt;RETRY</title>
<path fill="none" stroke="black" d="M1073.15,-140.8C1081.59,-140.8 1090.57,-140.8 1099.66,-140.8"/>
<polygon fill="black" stroke="black" points="1099.94,-144.3 1109.94,-140.8 1099.94,-137.3 1099.94,-144.3"/>
</g>
</g>
</svg>
