<?xml version="1.0" encoding="UTF-8" standalone="no"?>
<!DOCTYPE svg PUBLIC "-//W3C//DTD SVG 1.1//EN"
 "http://www.w3.org/Graphics/SVG/1.1/DTD/svg11.dtd">
<!-- Generated by graphviz version 2.43.0 (0)
 -->
<!-- Title: stride Pages: 1 -->
<svg width="1111pt" height="648pt"
 viewBox="0.00 0.00 1110.86 648.00" xmlns="http://www.w3.org/2000/svg" xmlns:xlink="http://www.w3.org/1999/xlink">
<g id="graph0" class="graph" transform="scale(0.92 0.92) rotate(0) translate(28.8 676.8)">
<title>stride</title>
<polygon fill="white" stroke="transparent" points="-28.8,28.8 -28.8,-676.8 1180.8,-676.8 1180.8,28.8 -28.8,28.8"/>
<!-- THR -->
<g id="node1" class="node">
<title>THR</title>
<polygon fill="#1e40af" stroke="black" points="100,-342.12 46,-342.12 46,-306.12 100,-306.12 100,-342.12"/>
<text text-anchor="middle" x="73" y="-321.32" font-family="Helvetica,sans-Serif" font-size="11.00" fill="white">Threat</text>
</g>
<!-- S -->
<g id="node2" class="node">
<title>S</title>
<polygon fill="#dbeafe" stroke="black" points="490.5,-628.12 363.5,-628.12 363.5,-592.12 490.5,-592.12 490.5,-628.12"/>
<text text-anchor="middle" x="427" y="-613.32" font-family="Helvetica,sans-Serif" font-size="11.00">Spoofing</text>
<text text-anchor="middle" x="427" y="-601.32" font-family="Helvetica,sans-Serif" font-size="11.00">(forged from_agent)</text>
</g>
<!-- THR&#45;&gt;S -->
<g id="edge1" class="edge">
<title>THR&#45;&gt;S</title>
<path fill="none" stroke="black" d="M96.29,-342.23C157.13,-391.66 326.18,-529.01 395.62,-585.44"/>
<polygon fill="black" stroke="black" points="393.62,-588.32 403.58,-591.91 398.03,-582.88 393.62,-588.32"/>
</g>
<!-- T -->
<g id="node3" class="node">
<title>T</title>
<polygon fill="#dbeafe" stroke="black" points="487,-513.12 367,-513.12 367,-477.12 487,-477.12 487,-513.12"/>
<text text-anchor="middle" x="427" y="-498.32" font-family="Helvetica,sans-Serif" font-size="11.00">Tampering</text>
<text text-anchor="middle" x="427" y="-486.32" font-family="Helvetica,sans-Serif" font-size="11.00">(payload modified)</text>
</g>
<!-- THR&#45;&gt;T -->
<g id="edge2" class="edge">
<title>THR&#45;&gt;T</title>
<path fill="none" stroke="black" d="M100.17,-336.83C159.45,-365.63 304.65,-436.17 379.58,-472.57"/>
<polygon fill="black" stroke="black" points="378.28,-475.82 388.8,-477.05 381.34,-469.53 378.28,-475.82"/>
</g>
<!-- R -->
<g id="node4" class="node">
<title>R</title>
<polygon fill="#dbeafe" stroke="black" points="494.5,-399.12 359.5,-399.12 359.5,-363.12 494.5,-363.12 494.5,-399.12"/>
<text text-anchor="middle" x="427" y="-384.32" font-family="Helvetica,sans-Serif" font-size="11.00">Repudiation</text>
<text text-anchor="middle" x="427" y="-372.32" font-family="Helvetica,sans-Serif" font-size="11.00">(deny sending intent)</text>
</g>
<!-- THR&#45;&gt;R -->
<g id="edge3" class="edge">
<title>THR&#45;&gt;R</title>
<path fill="none" stroke="black" d="M100.17,-328.36C152.27,-336.79 270.74,-355.98 349.54,-368.74"/>
<polygon fill="black" stroke="black" points="348.99,-372.19 359.42,-370.34 350.11,-365.28 348.99,-372.19"/>
</g>
<!-- I -->
<g id="node5" class="node">
<title>I</title>
<polygon fill="#dbeafe" stroke="black" points="481.5,-285.12 372.5,-285.12 372.5,-249.12 481.5,-249.12 481.5,-285.12"/>
<text text-anchor="middle" x="427" y="-270.32" font-family="Helvetica,sans-Serif" font-size="11.00">Info Disclosure</text>
<text text-anchor="middle" x="427" y="-258.32" font-family="Helvetica,sans-Serif" font-size="11.00">(payload leaked)</text>
</g>
<!-- THR&#45;&gt;I -->
<g id="edge4" class="edge">
<title>THR&#45;&gt;I</title>
<path fill="none" stroke="black" d="M100.17,-319.88C155.14,-310.98 283.98,-290.12 362.17,-277.45"/>
<polygon fill="black" stroke="black" points="363.07,-280.85 372.39,-275.8 361.95,-273.94 363.07,-280.85"/>
</g>
<!-- D -->
<g id="node6" class="node">
<title>D</title>
<polygon fill="#dbeafe" stroke="black" points="482,-170.12 372,-170.12 372,-134.12 482,-134.12 482,-170.12"/>
<text text-anchor="middle" x="427" y="-155.32" font-family="Helvetica,sans-Serif" font-size="11.00">Denial of Service</text>
<text text-anchor="middle" x="427" y="-143.32" font-family="Helvetica,sans-Serif" font-size="11.00">(flood intents)</text>
</g>
<!-- THR&#45;&gt;D -->
<g id="edge5" class="edge">
<title>THR&#45;&gt;D</title>
<path fill="none" stroke="black" d="M100.17,-311.33C159.53,-282.32 305.03,-211.23 379.87,-174.66"/>
<polygon fill="black" stroke="black" points="381.63,-177.69 389.08,-170.16 378.56,-171.41 381.63,-177.69"/>
</g>
<!-- E -->
<g id="node7" class="node">
<title>E</title>
<polygon fill="#dbeafe" stroke="black" points="493.5,-56.12 360.5,-56.12 360.5,-20.12 493.5,-20.12 493.5,-56.12"/>
<text text-anchor="middle" x="427" y="-41.32" font-family="Helvetica,sans-Serif" font-size="11.00">Elevation of Privilege</text>
<text text-anchor="middle" x="427" y="-29.32" font-family="Helvetica,sans-Serif" font-size="11.00">(forge grants)</text>
</g>
<!-- THR&#45;&gt;E -->
<g id="edge6" class="edge">
<title>THR&#45;&gt;E</title>
<path fill="none" stroke="black" d="M96.29,-306.01C157.13,-256.57 326.18,-119.22 395.62,-62.8"/>
<polygon fill="black" stroke="black" points="398.03,-65.35 403.58,-56.33 393.62,-59.92 398.03,-65.35"/>
</g>
<!-- M1 -->
<g id="node8" class="node">
<title>M1</title>
<polygon fill="#dcfce7" stroke="black" points="981.5,-628.12 878.5,-628.12 878.5,-592.12 981.5,-592.12 981.5,-628.12"/>
<text text-anchor="middle" x="930" y="-613.32" font-family="Helvetica,sans-Serif" font-size="11.00">JWT + mTLS</text>
<text text-anchor="middle" x="930" y="-601.32" font-family="Helvetica,sans-Serif" font-size="11.00">(verify identity)</text>
</g>
<!-- S&#45;&gt;M1 -->
<g id="edge7" class="edge">
<title>S&#45;&gt;M1</title>
<path fill="none" stroke="black" d="M490.69,-610.12C587.59,-610.12 772.53,-610.12 868.24,-610.12"/>
<polygon fill="black" stroke="black" points="868.34,-613.62 878.34,-610.12 868.34,-606.62 868.34,-613.62"/>
</g>
<!-- M2 -->
<g id="node9" class="node">
<title>M2</title>
<polygon fill="#dcfce7" stroke="black" points="1009,-513.12 851,-513.12 851,-477.12 1009,-477.12 1009,-513.12"/>
<text text-anchor="middle" x="930" y="-498.32" font-family="Helvetica,sans-Serif" font-size="11.00">HMAC webhook signature</text>
<text text-anchor="middle" x="930" y="-486.32" font-family="Helvetica,sans-Serif" font-size="11.00">+ DB integrity</text>
</g>
<!-- T&#45;&gt;M2 -->
<g id="edge8" class="edge">
<title>T&#45;&gt;M2</title>
<path fill="none" stroke="black" d="M487.44,-495.12C574.9,-495.12 738.85,-495.12 840.49,-495.12"/>
<polygon fill="black" stroke="black" points="840.74,-498.62 850.74,-495.12 840.74,-491.62 840.74,-498.62"/>
</g>
<!-- M3 -->
<g id="node10" class="node">
<title>M3</title>
<polygon fill="#dcfce7" stroke="black" points="995,-399.12 865,-399.12 865,-363.12 995,-363.12 995,-399.12"/>
<text text-anchor="middle" x="930" y="-384.32" font-family="Helvetica,sans-Serif" font-size="11.00">immutable audit log</text>
<text text-anchor="middle" x="930" y="-372.32" font-family="Helvetica,sans-Serif" font-size="11.00">(actor + timestamp)</text>
</g>
<!-- R&#45;&gt;M3 -->
<g id="edge9" class="edge">
<title>R&#45;&gt;M3</title>
<path fill="none" stroke="black" d="M494.53,-381.12C587.98,-381.12 757.55,-381.12 854.91,-381.12"/>
<polygon fill="black" stroke="black" points="854.97,-384.62 864.97,-381.12 854.97,-377.62 854.97,-384.62"/>
</g>
<!-- M4 -->
<g id="node11" class="node">
<title>M4</title>
<polygon fill="#dcfce7" stroke="black" points="985,-285.12 875,-285.12 875,-249.12 985,-249.12 985,-285.12"/>
<text text-anchor="middle" x="930" y="-270.32" font-family="Helvetica,sans-Serif" font-size="11.00">AES&#45;256 at rest</text>
<text text-anchor="middle" x="930" y="-258.32" font-family="Helvetica,sans-Serif" font-size="11.00">TLS 1.3 in transit</text>
</g>
<!-- I&#45;&gt;M4 -->
<g id="edge10" class="edge">
<title>I&#45;&gt;M4</title>
<path fill="none" stroke="black" d="M481.62,-267.12C574.38,-267.12 764.47,-267.12 864.37,-267.12"/>
<polygon fill="black" stroke="black" points="864.63,-270.62 874.63,-267.12 864.63,-263.62 864.63,-270.62"/>
</g>
<!-- M5 -->
<g id="node12" class="node">
<title>M5</title>
<polygon fill="#dcfce7" stroke="black" points="983.5,-170.12 876.5,-170.12 876.5,-134.12 983.5,-134.12 983.5,-170.12"/>
<text text-anchor="middle" x="930" y="-155.32" font-family="Helvetica,sans-Serif" font-size="11.00">rate limits</text>
<text text-anchor="middle" x="930" y="-143.32" font-family="Helvetica,sans-Serif" font-size="11.00">+ quota buckets</text>
</g>
<!-- D&#45;&gt;M5 -->
<g id="edge11" class="edge">
<title>D&#45;&gt;M5</title>
<path fill="none" stroke="black" d="M482.09,-152.12C575.57,-152.12 766.82,-152.12 866.08,-152.12"/>
<polygon fill="black" stroke="black" points="866.27,-155.62 876.27,-152.12 866.27,-148.62 866.27,-155.62"/>
</g>
<!-- M6 -->
<g id="node13" class="node">
<title>M6</title>
<polygon fill="#dcfce7" stroke="black" points="1012,-56.12 848,-56.12 848,-20.12 1012,-20.12 1012,-56.12"/>
<text text-anchor="middle" x="930" y="-41.32" font-family="Helvetica,sans-Serif" font-size="11.00">grants CAS + RBAC</text>
<text text-anchor="middle" x="930" y="-29.32" font-family="Helvetica,sans-Serif" font-size="11.00">(scoped to org/workspace)</text>
</g>
<!-- E&#45;&gt;M6 -->
<g id="edge12" class="edge">
<title>E&#45;&gt;M6</title>
<path fill="none" stroke="black" d="M493.75,-38.12C581.79,-38.12 738.37,-38.12 837.77,-38.12"/>
<polygon fill="black" stroke="black" points="837.81,-41.62 847.81,-38.12 837.81,-34.62 837.81,-41.62"/>
</g>
</g>
</svg>
