<?xml version="1.0" encoding="UTF-8" standalone="no"?>
<!DOCTYPE svg PUBLIC "-//W3C//DTD SVG 1.1//EN"
 "http://www.w3.org/Graphics/SVG/1.1/DTD/svg11.dtd">
<!-- Generated by graphviz version 2.43.0 (0)
 -->
<!-- Title: data_class Pages: 1 -->
<svg width="1112pt" height="648pt"
 viewBox="0.00 0.00 1111.80 648.00" xmlns="http://www.w3.org/2000/svg" xmlns:xlink="http://www.w3.org/1999/xlink">
<g id="graph0" class="graph" transform="scale(0.92 0.92) rotate(0) translate(28.8 676.8)">
<title>data_class</title>
<polygon fill="white" stroke="transparent" points="-28.8,28.8 -28.8,-676.8 1181.82,-676.8 1181.82,28.8 -28.8,28.8"/>
<!-- DATA -->
<g id="node1" class="node">
<title>DATA</title>
<polygon fill="#1e40af" stroke="black" points="96.52,-369.54 19.52,-369.54 19.52,-333.54 96.52,-333.54 96.52,-369.54"/>
<text text-anchor="middle" x="58.02" y="-348.74" font-family="Helvetica,sans-Serif" font-size="11.00" fill="white">Data Asset</text>
</g>
<!-- CLS -->
<g id="node2" class="node">
<title>CLS</title>
<polygon fill="#fef3c7" stroke="black" points="287.02,-369.54 212.35,-351.54 287.02,-333.54 361.7,-351.54 287.02,-369.54"/>
<text text-anchor="middle" x="287.02" y="-348.74" font-family="Helvetica,sans-Serif" font-size="11.00">classification</text>
</g>
<!-- DATA&#45;&gt;CLS -->
<g id="edge1" class="edge">
<title>DATA&#45;&gt;CLS</title>
<path fill="none" stroke="black" d="M96.76,-351.54C125.34,-351.54 165.71,-351.54 201.84,-351.54"/>
<polygon fill="black" stroke="black" points="201.9,-355.04 211.9,-351.54 201.9,-348.04 201.9,-355.04"/>
</g>
<!-- PUB -->
<g id="node3" class="node">
<title>PUB</title>
<polygon fill="#dcfce7" stroke="black" points="766.52,-616.54 615.52,-616.54 615.52,-580.54 766.52,-580.54 766.52,-616.54"/>
<text text-anchor="middle" x="691.02" y="-601.74" font-family="Helvetica,sans-Serif" font-size="11.00">PUBLIC</text>
<text text-anchor="middle" x="691.02" y="-589.74" font-family="Helvetica,sans-Serif" font-size="11.00">(no encryption required)</text>
</g>
<!-- CLS&#45;&gt;PUB -->
<g id="edge2" class="edge">
<title>CLS&#45;&gt;PUB</title>
<path fill="none" stroke="black" d="M308.79,-364.3C372.94,-403.71 568.6,-523.93 651.86,-575.09"/>
<polygon fill="black" stroke="black" points="650.15,-578.15 660.51,-580.4 653.82,-572.18 650.15,-578.15"/>
<text text-anchor="middle" x="484.02" y="-492.54" font-family="Helvetica,sans-Serif" font-size="10.00">PUBLIC</text>
</g>
<!-- INT -->
<g id="node4" class="node">
<title>INT</title>
<polygon fill="#dbeafe" stroke="black" points="744.52,-459.54 637.52,-459.54 637.52,-415.54 744.52,-415.54 744.52,-459.54"/>
<text text-anchor="middle" x="691.02" y="-446.74" font-family="Helvetica,sans-Serif" font-size="11.00">INTERNAL</text>
<text text-anchor="middle" x="691.02" y="-434.74" font-family="Helvetica,sans-Serif" font-size="11.00">(TLS in transit</text>
<text text-anchor="middle" x="691.02" y="-422.74" font-family="Helvetica,sans-Serif" font-size="11.00">AES&#45;256 at rest)</text>
</g>
<!-- CLS&#45;&gt;INT -->
<g id="edge3" class="edge">
<title>CLS&#45;&gt;INT</title>
<path fill="none" stroke="black" d="M327.3,-359.94C397.17,-374.89 543.55,-406.2 627.43,-424.15"/>
<polygon fill="black" stroke="black" points="626.83,-427.6 637.34,-426.27 628.29,-420.75 626.83,-427.6"/>
<text text-anchor="middle" x="484.02" y="-402.54" font-family="Helvetica,sans-Serif" font-size="10.00">INTERNAL</text>
</g>
<!-- CONF -->
<g id="node5" class="node">
<title>CONF</title>
<polygon fill="#fef3c7" stroke="black" points="773.02,-287.54 609.02,-287.54 609.02,-243.54 773.02,-243.54 773.02,-287.54"/>
<text text-anchor="middle" x="691.02" y="-274.74" font-family="Helvetica,sans-Serif" font-size="11.00">CONFIDENTIAL</text>
<text text-anchor="middle" x="691.02" y="-262.74" font-family="Helvetica,sans-Serif" font-size="11.00">(TLS + payload encryption</text>
<text text-anchor="middle" x="691.02" y="-250.74" font-family="Helvetica,sans-Serif" font-size="11.00">field&#45;level masking in logs)</text>
</g>
<!-- CLS&#45;&gt;CONF -->
<g id="edge4" class="edge">
<title>CLS&#45;&gt;CONF</title>
<path fill="none" stroke="black" d="M327.3,-343.14C389.73,-329.78 513.26,-303.35 598.69,-285.08"/>
<polygon fill="black" stroke="black" points="599.61,-288.46 608.66,-282.95 598.14,-281.62 599.61,-288.46"/>
<text text-anchor="middle" x="484.02" y="-318.54" font-family="Helvetica,sans-Serif" font-size="10.00">CONFIDENTIAL</text>
</g>
<!-- RESTR -->
<g id="node6" class="node">
<title>RESTR</title>
<polygon fill="#fee2e2" stroke="black" points="753.52,-105.54 628.52,-105.54 628.52,-49.54 753.52,-49.54 753.52,-105.54"/>
<text text-anchor="middle" x="691.02" y="-92.74" font-family="Helvetica,sans-Serif" font-size="11.00">RESTRICTED</text>
<text text-anchor="middle" x="691.02" y="-80.74" font-family="Helvetica,sans-Serif" font-size="11.00">(E2E encryption</text>
<text text-anchor="middle" x="691.02" y="-68.74" font-family="Helvetica,sans-Serif" font-size="11.00">HSM key mgmt</text>
<text text-anchor="middle" x="691.02" y="-56.74" font-family="Helvetica,sans-Serif" font-size="11.00">zero&#45;retention logs)</text>
</g>
<!-- CLS&#45;&gt;RESTR -->
<g id="edge5" class="edge">
<title>CLS&#45;&gt;RESTR</title>
<path fill="none" stroke="black" d="M307.41,-338.32C367.43,-297.42 551.45,-171.99 640.6,-111.23"/>
<polygon fill="black" stroke="black" points="642.63,-114.08 648.92,-105.55 638.69,-108.29 642.63,-114.08"/>
<text text-anchor="middle" x="484.02" y="-241.54" font-family="Helvetica,sans-Serif" font-size="10.00">RESTRICTED</text>
</g>
<!-- AUD -->
<g id="node7" class="node">
<title>AUD</title>
<polygon fill="#dbeafe" stroke="black" points="1104.52,-186.54 919.52,-186.54 919.52,-150.54 1104.52,-150.54 1104.52,-186.54"/>
<text text-anchor="middle" x="1012.02" y="-165.74" font-family="Helvetica,sans-Serif" font-size="11.00">every access logged + alerted</text>
</g>
<!-- CONF&#45;&gt;AUD -->
<g id="edge6" class="edge">
<title>CONF&#45;&gt;AUD</title>
<path fill="none" stroke="black" d="M764.41,-243.53C817.6,-227.35 889.44,-205.51 941.85,-189.57"/>
<polygon fill="black" stroke="black" points="943.19,-192.82 951.74,-186.57 941.15,-186.13 943.19,-192.82"/>
</g>
<!-- RESTR&#45;&gt;AUD -->
<g id="edge7" class="edge">
<title>RESTR&#45;&gt;AUD</title>
<path fill="none" stroke="black" d="M753.53,-95.08C806.22,-110.11 882.21,-131.79 937.98,-147.7"/>
<polygon fill="black" stroke="black" points="937.22,-151.12 947.8,-150.5 939.14,-144.39 937.22,-151.12"/>
</g>
</g>
</svg>
