<?xml version="1.0" encoding="UTF-8" standalone="no"?>
<!DOCTYPE svg PUBLIC "-//W3C//DTD SVG 1.1//EN"
 "http://www.w3.org/Graphics/SVG/1.1/DTD/svg11.dtd">
<!-- Generated by graphviz version 2.43.0 (0)
 -->
<!-- Title: release_flow Pages: 1 -->
<svg width="1112pt" height="648pt"
 viewBox="0.00 0.00 1111.72 648.00" xmlns="http://www.w3.org/2000/svg" xmlns:xlink="http://www.w3.org/1999/xlink">
<g id="graph0" class="graph" transform="scale(0.9 0.9) rotate(0) translate(28.8 691.99)">
<title>release_flow</title>
<polygon fill="white" stroke="transparent" points="-28.8,28.8 -28.8,-691.99 1207.8,-691.99 1207.8,28.8 -28.8,28.8"/>
<!-- DEPLOY -->
<g id="node1" class="node">
<title>DEPLOY</title>
<polygon fill="#1e40af" stroke="black" points="94.5,-446.09 -0.5,-446.09 -0.5,-410.09 94.5,-410.09 94.5,-446.09"/>
<text text-anchor="middle" x="47" y="-425.29" font-family="Helvetica,sans-Serif" font-size="11.00" fill="white">Deploy trigger</text>
</g>
<!-- BUILD -->
<g id="node2" class="node">
<title>BUILD</title>
<polygon fill="#dbeafe" stroke="black" points="212.5,-446.09 131.5,-446.09 131.5,-410.09 212.5,-410.09 212.5,-446.09"/>
<text text-anchor="middle" x="172" y="-425.29" font-family="Helvetica,sans-Serif" font-size="11.00">build + test</text>
</g>
<!-- DEPLOY&#45;&gt;BUILD -->
<g id="edge1" class="edge">
<title>DEPLOY&#45;&gt;BUILD</title>
<path fill="none" stroke="black" d="M94.5,-428.09C103.2,-428.09 112.34,-428.09 121.14,-428.09"/>
<polygon fill="black" stroke="black" points="121.27,-431.59 131.27,-428.09 121.27,-424.59 121.27,-431.59"/>
</g>
<!-- HALT -->
<g id="node3" class="node">
<title>HALT</title>
<polygon fill="#fee2e2" stroke="black" points="371,-587.09 285,-587.09 285,-551.09 371,-551.09 371,-587.09"/>
<text text-anchor="middle" x="328" y="-566.29" font-family="Helvetica,sans-Serif" font-size="11.00">halt + notify</text>
</g>
<!-- BUILD&#45;&gt;HALT -->
<g id="edge2" class="edge">
<title>BUILD&#45;&gt;HALT</title>
<path fill="none" stroke="black" d="M192.82,-446.23C219.96,-471.09 268.83,-515.82 299.5,-543.91"/>
<polygon fill="black" stroke="black" points="297.52,-546.84 307.26,-551.01 302.25,-541.68 297.52,-546.84"/>
<text text-anchor="middle" x="242" y="-501.09" font-family="Helvetica,sans-Serif" font-size="10.00">fail</text>
</g>
<!-- STAGE -->
<g id="node4" class="node">
<title>STAGE</title>
<polygon fill="#dbeafe" stroke="black" points="384.5,-305.09 271.5,-305.09 271.5,-269.09 384.5,-269.09 384.5,-305.09"/>
<text text-anchor="middle" x="328" y="-284.29" font-family="Helvetica,sans-Serif" font-size="11.00">deploy to staging</text>
</g>
<!-- BUILD&#45;&gt;STAGE -->
<g id="edge3" class="edge">
<title>BUILD&#45;&gt;STAGE</title>
<path fill="none" stroke="black" d="M192.82,-409.94C219.96,-385.09 268.83,-340.35 299.5,-312.27"/>
<polygon fill="black" stroke="black" points="302.25,-314.5 307.26,-305.16 297.52,-309.33 302.25,-314.5"/>
<text text-anchor="middle" x="242" y="-378.09" font-family="Helvetica,sans-Serif" font-size="10.00">pass</text>
</g>
<!-- SMOKE -->
<g id="node5" class="node">
<title>SMOKE</title>
<polygon fill="#dbeafe" stroke="black" points="506,-305.09 422,-305.09 422,-269.09 506,-269.09 506,-305.09"/>
<text text-anchor="middle" x="464" y="-284.29" font-family="Helvetica,sans-Serif" font-size="11.00">smoke tests</text>
</g>
<!-- STAGE&#45;&gt;SMOKE -->
<g id="edge4" class="edge">
<title>STAGE&#45;&gt;SMOKE</title>
<path fill="none" stroke="black" d="M384.66,-287.09C393.55,-287.09 402.72,-287.09 411.5,-287.09"/>
<polygon fill="black" stroke="black" points="411.61,-290.59 421.61,-287.09 411.61,-283.59 411.61,-290.59"/>
</g>
<!-- ROLLBACK -->
<g id="node6" class="node">
<title>ROLLBACK</title>
<polygon fill="#fee2e2" stroke="black" points="1059.5,-410.09 934.5,-410.09 934.5,-374.09 1059.5,-374.09 1059.5,-410.09"/>
<text text-anchor="middle" x="997" y="-389.29" font-family="Helvetica,sans-Serif" font-size="11.00">rollback to previous</text>
</g>
<!-- SMOKE&#45;&gt;ROLLBACK -->
<g id="edge5" class="edge">
<title>SMOKE&#45;&gt;ROLLBACK</title>
<path fill="none" stroke="black" d="M506.22,-295.24C596.34,-313.06 811.82,-355.67 924.53,-377.96"/>
<polygon fill="black" stroke="black" points="923.96,-381.41 934.45,-379.92 925.32,-374.54 923.96,-381.41"/>
<text text-anchor="middle" x="695" y="-337.09" font-family="Helvetica,sans-Serif" font-size="10.00">fail</text>
</g>
<!-- CANARY -->
<g id="node7" class="node">
<title>CANARY</title>
<polygon fill="#dbeafe" stroke="black" points="669,-185.09 565,-185.09 565,-149.09 669,-149.09 669,-185.09"/>
<text text-anchor="middle" x="617" y="-164.29" font-family="Helvetica,sans-Serif" font-size="11.00">canary slice 5%</text>
</g>
<!-- SMOKE&#45;&gt;CANARY -->
<g id="edge6" class="edge">
<title>SMOKE&#45;&gt;CANARY</title>
<path fill="none" stroke="black" d="M487.93,-268.86C513.92,-248.21 556.38,-214.46 585.23,-191.54"/>
<polygon fill="black" stroke="black" points="587.69,-194.05 593.35,-185.09 583.34,-188.57 587.69,-194.05"/>
<text text-anchor="middle" x="535" y="-241.09" font-family="Helvetica,sans-Serif" font-size="10.00">pass</text>
</g>
<!-- ALERT -->
<g id="node10" class="node">
<title>ALERT</title>
<polygon fill="#dbeafe" stroke="black" points="1179,-410.09 1097,-410.09 1097,-374.09 1179,-374.09 1179,-410.09"/>
<text text-anchor="middle" x="1138" y="-389.29" font-family="Helvetica,sans-Serif" font-size="11.00">alert on&#45;call</text>
</g>
<!-- ROLLBACK&#45;&gt;ALERT -->
<g id="edge10" class="edge">
<title>ROLLBACK&#45;&gt;ALERT</title>
<path fill="none" stroke="black" d="M1059.78,-392.09C1068.84,-392.09 1078.09,-392.09 1086.89,-392.09"/>
<polygon fill="black" stroke="black" points="1086.97,-395.59 1096.97,-392.09 1086.97,-388.59 1086.97,-395.59"/>
</g>
<!-- MON -->
<g id="node8" class="node">
<title>MON</title>
<polygon fill="#dbeafe" stroke="black" points="853,-185.09 721,-185.09 721,-149.09 853,-149.09 853,-185.09"/>
<text text-anchor="middle" x="787" y="-164.29" font-family="Helvetica,sans-Serif" font-size="11.00">monitor SLOs 10 min</text>
</g>
<!-- CANARY&#45;&gt;MON -->
<g id="edge7" class="edge">
<title>CANARY&#45;&gt;MON</title>
<path fill="none" stroke="black" d="M669.32,-167.09C682.36,-167.09 696.65,-167.09 710.62,-167.09"/>
<polygon fill="black" stroke="black" points="710.72,-170.59 720.72,-167.09 710.72,-163.59 710.72,-170.59"/>
</g>
<!-- MON&#45;&gt;ROLLBACK -->
<g id="edge8" class="edge">
<title>MON&#45;&gt;ROLLBACK</title>
<path fill="none" stroke="black" d="M804.67,-185.12C841.49,-224.95 929.83,-320.51 972.35,-366.51"/>
<polygon fill="black" stroke="black" points="969.89,-369 979.25,-373.97 975.03,-364.25 969.89,-369"/>
<text text-anchor="middle" x="894" y="-310.09" font-family="Helvetica,sans-Serif" font-size="10.00">degraded</text>
</g>
<!-- PROMOTE -->
<g id="node9" class="node">
<title>PROMOTE</title>
<polygon fill="#dcfce7" stroke="black" points="1046,-112.09 948,-112.09 948,-76.09 1046,-76.09 1046,-112.09"/>
<text text-anchor="middle" x="997" y="-91.29" font-family="Helvetica,sans-Serif" font-size="11.00">promote 100%</text>
</g>
<!-- MON&#45;&gt;PROMOTE -->
<g id="edge9" class="edge">
<title>MON&#45;&gt;PROMOTE</title>
<path fill="none" stroke="black" d="M839.42,-149.04C869.27,-138.57 906.96,-125.34 937.89,-114.48"/>
<polygon fill="black" stroke="black" points="939.4,-117.66 947.67,-111.05 937.08,-111.06 939.4,-117.66"/>
<text text-anchor="middle" x="894" y="-141.09" font-family="Helvetica,sans-Serif" font-size="10.00">healthy</text>
</g>
</g>
</svg>
