<?xml version="1.0" encoding="UTF-8" standalone="no"?>
<!DOCTYPE svg PUBLIC "-//W3C//DTD SVG 1.1//EN"
 "http://www.w3.org/Graphics/SVG/1.1/DTD/svg11.dtd">
<!-- Generated by graphviz version 2.43.0 (0)
 -->
<!-- Title: dr_flow Pages: 1 -->
<svg width="1117pt" height="648pt"
 viewBox="0.00 0.00 1117.49 648.00" xmlns="http://www.w3.org/2000/svg" xmlns:xlink="http://www.w3.org/1999/xlink">
<g id="graph0" class="graph" transform="scale(0.77 0.77) rotate(0) translate(28.8 812.36)">
<title>dr_flow</title>
<polygon fill="white" stroke="transparent" points="-28.8,28.8 -28.8,-812.36 1421.8,-812.36 1421.8,28.8 -28.8,28.8"/>
<!-- SCHED -->
<g id="node1" class="node">
<title>SCHED</title>
<polygon fill="#1e40af" stroke="black" points="114,-500.55 0,-500.55 0,-464.55 114,-464.55 114,-500.55"/>
<text text-anchor="middle" x="57" y="-479.75" font-family="Helvetica,sans-Serif" font-size="11.00" fill="white">Backup Scheduler</text>
</g>
<!-- SNAP -->
<g id="node2" class="node">
<title>SNAP</title>
<polygon fill="#dbeafe" stroke="black" points="299,-500.55 151,-500.55 151,-464.55 299,-464.55 299,-500.55"/>
<text text-anchor="middle" x="225" y="-479.75" font-family="Helvetica,sans-Serif" font-size="11.00">WAL / snapshot capture</text>
</g>
<!-- SCHED&#45;&gt;SNAP -->
<g id="edge1" class="edge">
<title>SCHED&#45;&gt;SNAP</title>
<path fill="none" stroke="black" d="M114.2,-482.55C122.74,-482.55 131.71,-482.55 140.68,-482.55"/>
<polygon fill="black" stroke="black" points="140.79,-486.05 150.79,-482.55 140.79,-479.05 140.79,-486.05"/>
</g>
<!-- ENC -->
<g id="node3" class="node">
<title>ENC</title>
<polygon fill="#dbeafe" stroke="black" points="436.5,-500.55 335.5,-500.55 335.5,-464.55 436.5,-464.55 436.5,-500.55"/>
<text text-anchor="middle" x="386" y="-479.75" font-family="Helvetica,sans-Serif" font-size="11.00">encrypt backup</text>
</g>
<!-- SNAP&#45;&gt;ENC -->
<g id="edge2" class="edge">
<title>SNAP&#45;&gt;ENC</title>
<path fill="none" stroke="black" d="M299.45,-482.55C308.13,-482.55 316.9,-482.55 325.35,-482.55"/>
<polygon fill="black" stroke="black" points="325.48,-486.05 335.48,-482.55 325.48,-479.05 325.48,-486.05"/>
</g>
<!-- OBJ -->
<g id="node4" class="node">
<title>OBJ</title>
<path fill="#e0e7ff" stroke="black" d="M560,-500.55C560,-502.76 540.73,-504.55 517,-504.55 493.27,-504.55 474,-502.76 474,-500.55 474,-500.55 474,-464.55 474,-464.55 474,-462.34 493.27,-460.55 517,-460.55 540.73,-460.55 560,-462.34 560,-464.55 560,-464.55 560,-500.55 560,-500.55"/>
<path fill="none" stroke="black" d="M560,-500.55C560,-498.34 540.73,-496.55 517,-496.55 493.27,-496.55 474,-498.34 474,-500.55"/>
<text text-anchor="middle" x="517" y="-485.75" font-family="Helvetica,sans-Serif" font-size="11.00">Object Store</text>
<text text-anchor="middle" x="517" y="-473.75" font-family="Helvetica,sans-Serif" font-size="11.00">(S3 / GCS)</text>
</g>
<!-- ENC&#45;&gt;OBJ -->
<g id="edge3" class="edge">
<title>ENC&#45;&gt;OBJ</title>
<path fill="none" stroke="black" d="M436.51,-482.55C445.49,-482.55 454.88,-482.55 463.94,-482.55"/>
<polygon fill="black" stroke="black" points="463.97,-486.05 473.97,-482.55 463.97,-479.05 463.97,-486.05"/>
</g>
<!-- XREG -->
<g id="node5" class="node">
<title>XREG</title>
<polygon fill="#dbeafe" stroke="black" points="711,-680.55 597,-680.55 597,-644.55 711,-644.55 711,-680.55"/>
<text text-anchor="middle" x="654" y="-659.75" font-family="Helvetica,sans-Serif" font-size="11.00">cross&#45;region copy</text>
</g>
<!-- OBJ&#45;&gt;XREG -->
<g id="edge4" class="edge">
<title>OBJ&#45;&gt;XREG</title>
<path fill="none" stroke="black" d="M534.55,-504.62C559.41,-537.77 606.31,-600.3 633.03,-635.93"/>
<polygon fill="black" stroke="black" points="630.57,-638.47 639.37,-644.37 636.17,-634.27 630.57,-638.47"/>
</g>
<!-- REST -->
<g id="node6" class="node">
<title>REST</title>
<polygon fill="#fef3c7" stroke="black" points="702.5,-319.55 605.5,-319.55 605.5,-283.55 702.5,-283.55 702.5,-319.55"/>
<text text-anchor="middle" x="654" y="-298.75" font-family="Helvetica,sans-Serif" font-size="11.00">restore trigger</text>
</g>
<!-- OBJ&#45;&gt;REST -->
<g id="edge5" class="edge">
<title>OBJ&#45;&gt;REST</title>
<path fill="none" stroke="black" d="M534.55,-460.35C559.58,-426.8 606.96,-363.28 633.58,-327.58"/>
<polygon fill="black" stroke="black" points="636.39,-329.67 639.56,-319.56 630.78,-325.49 636.39,-329.67"/>
</g>
<!-- DEC -->
<g id="node7" class="node">
<title>DEC</title>
<polygon fill="#dbeafe" stroke="black" points="890,-319.55 748,-319.55 748,-283.55 890,-283.55 890,-319.55"/>
<text text-anchor="middle" x="819" y="-298.75" font-family="Helvetica,sans-Serif" font-size="11.00">decrypt + decompress</text>
</g>
<!-- REST&#45;&gt;DEC -->
<g id="edge6" class="edge">
<title>REST&#45;&gt;DEC</title>
<path fill="none" stroke="black" d="M702.58,-301.55C713.67,-301.55 725.77,-301.55 737.84,-301.55"/>
<polygon fill="black" stroke="black" points="737.94,-305.05 747.94,-301.55 737.94,-298.05 737.94,-305.05"/>
</g>
<!-- LOAD -->
<g id="node8" class="node">
<title>LOAD</title>
<polygon fill="#dbeafe" stroke="black" points="1039,-319.55 927,-319.55 927,-283.55 1039,-283.55 1039,-319.55"/>
<text text-anchor="middle" x="983" y="-298.75" font-family="Helvetica,sans-Serif" font-size="11.00">load to target DB</text>
</g>
<!-- DEC&#45;&gt;LOAD -->
<g id="edge7" class="edge">
<title>DEC&#45;&gt;LOAD</title>
<path fill="none" stroke="black" d="M890.11,-301.55C898.96,-301.55 907.99,-301.55 916.76,-301.55"/>
<polygon fill="black" stroke="black" points="916.91,-305.05 926.91,-301.55 916.91,-298.05 916.91,-305.05"/>
</g>
<!-- VER -->
<g id="node9" class="node">
<title>VER</title>
<polygon fill="#dbeafe" stroke="black" points="1188.5,-319.55 1075.5,-319.55 1075.5,-283.55 1188.5,-283.55 1188.5,-319.55"/>
<text text-anchor="middle" x="1132" y="-298.75" font-family="Helvetica,sans-Serif" font-size="11.00">verify checksums</text>
</g>
<!-- LOAD&#45;&gt;VER -->
<g id="edge8" class="edge">
<title>LOAD&#45;&gt;VER</title>
<path fill="none" stroke="black" d="M1039.16,-301.55C1047.59,-301.55 1056.36,-301.55 1065,-301.55"/>
<polygon fill="black" stroke="black" points="1065.05,-305.05 1075.05,-301.55 1065.05,-298.05 1065.05,-305.05"/>
</g>
<!-- ALERT -->
<g id="node10" class="node">
<title>ALERT</title>
<polygon fill="#fee2e2" stroke="black" points="1363,-500.55 1277,-500.55 1277,-464.55 1363,-464.55 1363,-500.55"/>
<text text-anchor="middle" x="1320" y="-479.75" font-family="Helvetica,sans-Serif" font-size="11.00">alert + retry</text>
</g>
<!-- VER&#45;&gt;ALERT -->
<g id="edge9" class="edge">
<title>VER&#45;&gt;ALERT</title>
<path fill="none" stroke="black" d="M1151.51,-319.56C1184.71,-351.87 1254.46,-419.74 1292.64,-456.9"/>
<polygon fill="black" stroke="black" points="1290.68,-459.87 1300.28,-464.34 1295.56,-454.85 1290.68,-459.87"/>
<text text-anchor="middle" x="1218" y="-394.55" font-family="Helvetica,sans-Serif" font-size="10.00">fail</text>
</g>
<!-- LIVE -->
<g id="node11" class="node">
<title>LIVE</title>
<polygon fill="#dcfce7" stroke="black" points="1392.5,-138.55 1247.5,-138.55 1247.5,-102.55 1392.5,-102.55 1392.5,-138.55"/>
<text text-anchor="middle" x="1320" y="-117.75" font-family="Helvetica,sans-Serif" font-size="11.00">service live on standby</text>
</g>
<!-- VER&#45;&gt;LIVE -->
<g id="edge10" class="edge">
<title>VER&#45;&gt;LIVE</title>
<path fill="none" stroke="black" d="M1151.51,-283.53C1184.71,-251.22 1254.46,-183.35 1292.64,-146.2"/>
<polygon fill="black" stroke="black" points="1295.56,-148.24 1300.28,-138.76 1290.68,-143.23 1295.56,-148.24"/>
<text text-anchor="middle" x="1218" y="-229.55" font-family="Helvetica,sans-Serif" font-size="10.00">pass</text>
</g>
</g>
</svg>
