<?xml version="1.0" encoding="UTF-8" standalone="no"?>
<!DOCTYPE svg PUBLIC "-//W3C//DTD SVG 1.1//EN"
 "http://www.w3.org/Graphics/SVG/1.1/DTD/svg11.dtd">
<!-- Generated by graphviz version 2.43.0 (0)
 -->
<!-- Title: capacity Pages: 1 -->
<svg width="1112pt" height="648pt"
 viewBox="0.00 0.00 1111.72 648.00" xmlns="http://www.w3.org/2000/svg" xmlns:xlink="http://www.w3.org/1999/xlink">
<g id="graph0" class="graph" transform="scale(0.92 0.92) rotate(0) translate(28.8 676.8)">
<title>capacity</title>
<polygon fill="white" stroke="transparent" points="-28.8,28.8 -28.8,-676.8 1181.74,-676.8 1181.74,28.8 -28.8,28.8"/>
<!-- LOAD -->
<g id="node1" class="node">
<title>LOAD</title>
<polygon fill="#1e40af" stroke="black" points="80.94,-342 0.94,-342 0.94,-306 80.94,-306 80.94,-342"/>
<text text-anchor="middle" x="40.94" y="-321.2" font-family="Helvetica,sans-Serif" font-size="11.00" fill="white">Traffic Load</text>
</g>
<!-- P50 -->
<g id="node2" class="node">
<title>P50</title>
<polygon fill="#dbeafe" stroke="black" points="203.44,-585 122.44,-585 122.44,-549 203.44,-549 203.44,-585"/>
<text text-anchor="middle" x="162.94" y="-564.2" font-family="Helvetica,sans-Serif" font-size="11.00">p50 latency</text>
</g>
<!-- LOAD&#45;&gt;P50 -->
<g id="edge1" class="edge">
<title>LOAD&#45;&gt;P50</title>
<path fill="none" stroke="black" d="M50.96,-342.26C71.86,-384.59 123.7,-489.56 148.41,-539.61"/>
<polygon fill="black" stroke="black" points="145.41,-541.44 152.98,-548.86 151.69,-538.34 145.41,-541.44"/>
</g>
<!-- P99 -->
<g id="node3" class="node">
<title>P99</title>
<polygon fill="#dbeafe" stroke="black" points="203.44,-342 122.44,-342 122.44,-306 203.44,-306 203.44,-342"/>
<text text-anchor="middle" x="162.94" y="-321.2" font-family="Helvetica,sans-Serif" font-size="11.00">p99 latency</text>
</g>
<!-- LOAD&#45;&gt;P99 -->
<g id="edge2" class="edge">
<title>LOAD&#45;&gt;P99</title>
<path fill="none" stroke="black" d="M81.23,-324C91.07,-324 101.76,-324 112.05,-324"/>
<polygon fill="black" stroke="black" points="112.15,-327.5 122.15,-324 112.15,-320.5 112.15,-327.5"/>
</g>
<!-- ERR -->
<g id="node4" class="node">
<title>ERR</title>
<polygon fill="#dbeafe" stroke="black" points="204.94,-99 120.94,-99 120.94,-63 204.94,-63 204.94,-99"/>
<text text-anchor="middle" x="162.94" y="-78.2" font-family="Helvetica,sans-Serif" font-size="11.00">error rate %</text>
</g>
<!-- LOAD&#45;&gt;ERR -->
<g id="edge3" class="edge">
<title>LOAD&#45;&gt;ERR</title>
<path fill="none" stroke="black" d="M50.96,-305.74C71.86,-263.41 123.7,-158.44 148.41,-108.39"/>
<polygon fill="black" stroke="black" points="151.69,-109.66 152.98,-99.14 145.41,-106.56 151.69,-109.66"/>
</g>
<!-- BUD -->
<g id="node5" class="node">
<title>BUD</title>
<polygon fill="#fef3c7" stroke="black" points="361.94,-342 248.03,-324 361.94,-306 475.85,-324 361.94,-342"/>
<text text-anchor="middle" x="361.94" y="-321.2" font-family="Helvetica,sans-Serif" font-size="11.00">latency budget check</text>
</g>
<!-- P50&#45;&gt;BUD -->
<g id="edge4" class="edge">
<title>P50&#45;&gt;BUD</title>
<path fill="none" stroke="black" d="M178.74,-548.74C213.86,-505.42 302.18,-396.48 341.52,-347.96"/>
<polygon fill="black" stroke="black" points="344.47,-349.87 348.05,-339.9 339.03,-345.46 344.47,-349.87"/>
</g>
<!-- P99&#45;&gt;BUD -->
<g id="edge5" class="edge">
<title>P99&#45;&gt;BUD</title>
<path fill="none" stroke="black" d="M203.8,-324C213.99,-324 225.5,-324 237.53,-324"/>
<polygon fill="black" stroke="black" points="237.75,-327.5 247.75,-324 237.75,-320.5 237.75,-327.5"/>
</g>
<!-- ERR&#45;&gt;BUD -->
<g id="edge6" class="edge">
<title>ERR&#45;&gt;BUD</title>
<path fill="none" stroke="black" d="M178.74,-99.26C213.86,-142.58 302.18,-251.52 341.52,-300.04"/>
<polygon fill="black" stroke="black" points="339.03,-302.54 348.05,-308.1 344.47,-298.13 339.03,-302.54"/>
</g>
<!-- OK -->
<g id="node6" class="node">
<title>OK</title>
<polygon fill="#dcfce7" stroke="black" points="675.94,-464 617.94,-464 617.94,-428 675.94,-428 675.94,-464"/>
<text text-anchor="middle" x="646.94" y="-443.2" font-family="Helvetica,sans-Serif" font-size="11.00">healthy</text>
</g>
<!-- BUD&#45;&gt;OK -->
<g id="edge7" class="edge">
<title>BUD&#45;&gt;OK</title>
<path fill="none" stroke="black" d="M393.49,-337.17C445.64,-359.65 551.68,-405.37 608.31,-429.78"/>
<polygon fill="black" stroke="black" points="607.05,-433.05 617.62,-433.79 609.82,-426.62 607.05,-433.05"/>
<text text-anchor="middle" x="531.94" y="-412" font-family="Helvetica,sans-Serif" font-size="10.00">within budget</text>
</g>
<!-- THR -->
<g id="node7" class="node">
<title>THR</title>
<polygon fill="#fee2e2" stroke="black" points="707.94,-221 585.94,-221 585.94,-185 707.94,-185 707.94,-221"/>
<text text-anchor="middle" x="646.94" y="-200.2" font-family="Helvetica,sans-Serif" font-size="11.00">throttle / shed load</text>
</g>
<!-- BUD&#45;&gt;THR -->
<g id="edge8" class="edge">
<title>BUD&#45;&gt;THR</title>
<path fill="none" stroke="black" d="M393.49,-310.94C441.56,-290.39 535.38,-250.27 594.13,-225.15"/>
<polygon fill="black" stroke="black" points="595.78,-228.25 603.6,-221.1 593.03,-221.82 595.78,-228.25"/>
<text text-anchor="middle" x="531.94" y="-266" font-family="Helvetica,sans-Serif" font-size="10.00">exhausted</text>
</g>
<!-- SCALE -->
<g id="node8" class="node">
<title>SCALE</title>
<polygon fill="#dbeafe" stroke="black" points="859.94,-221 749.94,-221 749.94,-185 859.94,-185 859.94,-221"/>
<text text-anchor="middle" x="804.94" y="-200.2" font-family="Helvetica,sans-Serif" font-size="11.00">trigger autoscale</text>
</g>
<!-- THR&#45;&gt;SCALE -->
<g id="edge9" class="edge">
<title>THR&#45;&gt;SCALE</title>
<path fill="none" stroke="black" d="M708.25,-203C718.54,-203 729.26,-203 739.65,-203"/>
<polygon fill="black" stroke="black" points="739.9,-206.5 749.9,-203 739.9,-199.5 739.9,-206.5"/>
</g>
<!-- CAP -->
<g id="node9" class="node">
<title>CAP</title>
<polygon fill="#dcfce7" stroke="black" points="1001.44,-221 900.44,-221 900.44,-185 1001.44,-185 1001.44,-221"/>
<text text-anchor="middle" x="950.94" y="-200.2" font-family="Helvetica,sans-Serif" font-size="11.00">capacity added</text>
</g>
<!-- SCALE&#45;&gt;CAP -->
<g id="edge10" class="edge">
<title>SCALE&#45;&gt;CAP</title>
<path fill="none" stroke="black" d="M859.97,-203C869.8,-203 880.11,-203 890.1,-203"/>
<polygon fill="black" stroke="black" points="890.36,-206.5 900.36,-203 890.36,-199.5 890.36,-206.5"/>
</g>
<!-- REC -->
<g id="node10" class="node">
<title>REC</title>
<polygon fill="#dcfce7" stroke="black" points="1151.44,-221 1042.44,-221 1042.44,-185 1151.44,-185 1151.44,-221"/>
<text text-anchor="middle" x="1096.94" y="-200.2" font-family="Helvetica,sans-Serif" font-size="11.00">latency recovers</text>
</g>
<!-- CAP&#45;&gt;REC -->
<g id="edge11" class="edge">
<title>CAP&#45;&gt;REC</title>
<path fill="none" stroke="black" d="M1001.49,-203C1011.38,-203 1021.89,-203 1032.18,-203"/>
<polygon fill="black" stroke="black" points="1032.35,-206.5 1042.35,-203 1032.35,-199.5 1032.35,-206.5"/>
</g>
</g>
</svg>
