<?xml version="1.0" encoding="UTF-8" standalone="no"?>
<!DOCTYPE svg PUBLIC "-//W3C//DTD SVG 1.1//EN"
 "http://www.w3.org/Graphics/SVG/1.1/DTD/svg11.dtd">
<!-- Generated by graphviz version 2.43.0 (0)
 -->
<!-- Title: runbook Pages: 1 -->
<svg width="1118pt" height="648pt"
 viewBox="0.00 0.00 1118.17 648.00" xmlns="http://www.w3.org/2000/svg" xmlns:xlink="http://www.w3.org/1999/xlink">
<g id="graph0" class="graph" transform="scale(0.77 0.77) rotate(0) translate(28.8 812.92)">
<title>runbook</title>
<polygon fill="white" stroke="transparent" points="-28.8,28.8 -28.8,-812.92 1423.65,-812.92 1423.65,28.8 -28.8,28.8"/>
<!-- INC -->
<g id="node1" class="node">
<title>INC</title>
<polygon fill="#1e40af" stroke="black" points="59.85,-173.66 -0.15,-173.66 -0.15,-137.66 59.85,-137.66 59.85,-173.66"/>
<text text-anchor="middle" x="29.85" y="-152.86" font-family="Helvetica,sans-Serif" font-size="11.00" fill="white">Incident</text>
</g>
<!-- Q1 -->
<g id="node2" class="node">
<title>Q1</title>
<polygon fill="#fef3c7" stroke="black" points="177.85,-173.66 97.27,-155.66 177.85,-137.66 258.43,-155.66 177.85,-173.66"/>
<text text-anchor="middle" x="177.85" y="-152.86" font-family="Helvetica,sans-Serif" font-size="11.00">service down?</text>
</g>
<!-- INC&#45;&gt;Q1 -->
<g id="edge1" class="edge">
<title>INC&#45;&gt;Q1</title>
<path fill="none" stroke="black" d="M60.04,-155.66C68.14,-155.66 77.37,-155.66 87.01,-155.66"/>
<polygon fill="black" stroke="black" points="87.18,-159.16 97.18,-155.66 87.18,-152.16 87.18,-159.16"/>
</g>
<!-- Q2 -->
<g id="node3" class="node">
<title>Q2</title>
<polygon fill="#fef3c7" stroke="black" points="393.85,-302.66 313.27,-284.66 393.85,-266.66 474.43,-284.66 393.85,-302.66"/>
<text text-anchor="middle" x="393.85" y="-281.86" font-family="Helvetica,sans-Serif" font-size="11.00">latency spike?</text>
</g>
<!-- Q1&#45;&gt;Q2 -->
<g id="edge3" class="edge">
<title>Q1&#45;&gt;Q2</title>
<path fill="none" stroke="black" d="M200.55,-168.74C238.84,-191.82 318.49,-239.84 362.32,-266.25"/>
<polygon fill="black" stroke="black" points="360.72,-269.38 371.1,-271.54 364.34,-263.38 360.72,-269.38"/>
<text text-anchor="middle" x="285.85" y="-226.66" font-family="Helvetica,sans-Serif" font-size="10.00">no</text>
</g>
<!-- RB -->
<g id="node5" class="node">
<title>RB</title>
<polygon fill="#dbeafe" stroke="black" points="609.85,-98.66 491.85,-98.66 491.85,-62.66 609.85,-62.66 609.85,-98.66"/>
<text text-anchor="middle" x="550.85" y="-83.86" font-family="Helvetica,sans-Serif" font-size="11.00">check last deploy</text>
<text text-anchor="middle" x="550.85" y="-71.86" font-family="Helvetica,sans-Serif" font-size="11.00">(rollback if recent)</text>
</g>
<!-- Q1&#45;&gt;RB -->
<g id="edge2" class="edge">
<title>Q1&#45;&gt;RB</title>
<path fill="none" stroke="black" d="M220.69,-147.2C284.16,-134.37 405.47,-109.85 481.77,-94.42"/>
<polygon fill="black" stroke="black" points="482.66,-97.81 491.76,-92.4 481.27,-90.95 482.66,-97.81"/>
<text text-anchor="middle" x="285.85" y="-137.66" font-family="Helvetica,sans-Serif" font-size="10.00">yes</text>
</g>
<!-- Q3 -->
<g id="node4" class="node">
<title>Q3</title>
<polygon fill="#fef3c7" stroke="black" points="719.85,-485.66 628.16,-467.66 719.85,-449.66 811.54,-467.66 719.85,-485.66"/>
<text text-anchor="middle" x="719.85" y="-464.86" font-family="Helvetica,sans-Serif" font-size="11.00">error rate spike?</text>
</g>
<!-- Q2&#45;&gt;Q3 -->
<g id="edge5" class="edge">
<title>Q2&#45;&gt;Q3</title>
<path fill="none" stroke="black" d="M417.63,-297.53C474.06,-329.4 620.47,-412.09 686.14,-449.18"/>
<polygon fill="black" stroke="black" points="684.79,-452.44 695.22,-454.31 688.24,-446.35 684.79,-452.44"/>
<text text-anchor="middle" x="550.85" y="-405.66" font-family="Helvetica,sans-Serif" font-size="10.00">no</text>
</g>
<!-- DB -->
<g id="node6" class="node">
<title>DB</title>
<polygon fill="#dbeafe" stroke="black" points="965.85,-276.66 829.85,-276.66 829.85,-240.66 965.85,-240.66 965.85,-276.66"/>
<text text-anchor="middle" x="897.85" y="-261.86" font-family="Helvetica,sans-Serif" font-size="11.00">check DB query plans</text>
<text text-anchor="middle" x="897.85" y="-249.86" font-family="Helvetica,sans-Serif" font-size="11.00">+ connection pool</text>
</g>
<!-- Q2&#45;&gt;DB -->
<g id="edge4" class="edge">
<title>Q2&#45;&gt;DB</title>
<path fill="none" stroke="black" d="M459.71,-281.3C551.99,-276.52 720.92,-267.77 819.57,-262.66"/>
<polygon fill="black" stroke="black" points="819.97,-266.14 829.78,-262.13 819.61,-259.15 819.97,-266.14"/>
<text text-anchor="middle" x="550.85" y="-281.66" font-family="Helvetica,sans-Serif" font-size="10.00">yes</text>
</g>
<!-- LOG -->
<g id="node7" class="node">
<title>LOG</title>
<polygon fill="#dbeafe" stroke="black" points="1135.85,-721.66 983.85,-721.66 983.85,-685.66 1135.85,-685.66 1135.85,-721.66"/>
<text text-anchor="middle" x="1059.85" y="-700.86" font-family="Helvetica,sans-Serif" font-size="11.00">check logs: 5xx patterns</text>
</g>
<!-- Q3&#45;&gt;LOG -->
<g id="edge6" class="edge">
<title>Q3&#45;&gt;LOG</title>
<path fill="none" stroke="black" d="M740.98,-481.71C796.86,-520.73 954.37,-630.71 1024.47,-679.65"/>
<polygon fill="black" stroke="black" points="1022.76,-682.73 1032.97,-685.59 1026.77,-676.99 1022.76,-682.73"/>
<text text-anchor="middle" x="897.85" y="-636.66" font-family="Helvetica,sans-Serif" font-size="10.00">yes</text>
</g>
<!-- ESC -->
<g id="node8" class="node">
<title>ESC</title>
<polygon fill="#fef3c7" stroke="black" points="1129.85,-481.66 989.85,-481.66 989.85,-445.66 1129.85,-445.66 1129.85,-481.66"/>
<text text-anchor="middle" x="1059.85" y="-460.86" font-family="Helvetica,sans-Serif" font-size="11.00">escalate to senior eng</text>
</g>
<!-- Q3&#45;&gt;ESC -->
<g id="edge7" class="edge">
<title>Q3&#45;&gt;ESC</title>
<path fill="none" stroke="black" d="M806.58,-466.64C859.75,-466.01 927.59,-465.21 979.52,-464.6"/>
<polygon fill="black" stroke="black" points="979.73,-468.09 989.68,-464.48 979.64,-461.09 979.73,-468.09"/>
<text text-anchor="middle" x="897.85" y="-468.66" font-family="Helvetica,sans-Serif" font-size="10.00">no</text>
</g>
<!-- RES -->
<g id="node9" class="node">
<title>RES</title>
<polygon fill="#dcfce7" stroke="black" points="1229.35,-276.66 1172.35,-276.66 1172.35,-240.66 1229.35,-240.66 1229.35,-276.66"/>
<text text-anchor="middle" x="1200.85" y="-255.86" font-family="Helvetica,sans-Serif" font-size="11.00">resolve</text>
</g>
<!-- RB&#45;&gt;RES -->
<g id="edge8" class="edge">
<title>RB&#45;&gt;RES</title>
<path fill="none" stroke="black" d="M609.93,-96.61C740.53,-132.49 1054.44,-218.71 1162.53,-248.41"/>
<polygon fill="black" stroke="black" points="1161.77,-251.83 1172.34,-251.1 1163.62,-245.08 1161.77,-251.83"/>
</g>
<!-- DB&#45;&gt;RES -->
<g id="edge9" class="edge">
<title>DB&#45;&gt;RES</title>
<path fill="none" stroke="black" d="M966.03,-258.66C1026.4,-258.66 1112.89,-258.66 1161.99,-258.66"/>
<polygon fill="black" stroke="black" points="1162.17,-262.16 1172.17,-258.66 1162.17,-255.16 1162.17,-262.16"/>
</g>
<!-- LOG&#45;&gt;RES -->
<g id="edge10" class="edge">
<title>LOG&#45;&gt;RES</title>
<path fill="none" stroke="black" d="M1067.7,-685.57C1081.43,-649.01 1112.98,-563.6 1135.85,-490.66 1158.72,-417.73 1181.58,-330.57 1192.77,-286.75"/>
<polygon fill="black" stroke="black" points="1196.22,-287.39 1195.3,-276.83 1189.44,-285.66 1196.22,-287.39"/>
</g>
<!-- PIR -->
<g id="node10" class="node">
<title>PIR</title>
<polygon fill="#dbeafe" stroke="black" points="1394.85,-276.66 1266.85,-276.66 1266.85,-240.66 1394.85,-240.66 1394.85,-276.66"/>
<text text-anchor="middle" x="1330.85" y="-255.86" font-family="Helvetica,sans-Serif" font-size="11.00">post&#45;incident review</text>
</g>
<!-- RES&#45;&gt;PIR -->
<g id="edge11" class="edge">
<title>RES&#45;&gt;PIR</title>
<path fill="none" stroke="black" d="M1229.62,-258.66C1237.76,-258.66 1247.05,-258.66 1256.63,-258.66"/>
<polygon fill="black" stroke="black" points="1256.67,-262.16 1266.67,-258.66 1256.67,-255.16 1256.67,-262.16"/>
</g>
</g>
</svg>
