<?xml version="1.0" encoding="UTF-8" standalone="no"?>
<!DOCTYPE svg PUBLIC "-//W3C//DTD SVG 1.1//EN"
 "http://www.w3.org/Graphics/SVG/1.1/DTD/svg11.dtd">
<!-- Generated by graphviz version 2.43.0 (0)
 -->
<!-- Title: change_mgmt Pages: 1 -->
<svg width="1120pt" height="648pt"
 viewBox="0.00 0.00 1120.41 648.00" xmlns="http://www.w3.org/2000/svg" xmlns:xlink="http://www.w3.org/1999/xlink">
<g id="graph0" class="graph" transform="scale(0.71 0.71) rotate(0) translate(28.8 884.92)">
<title>change_mgmt</title>
<polygon fill="white" stroke="transparent" points="-28.8,28.8 -28.8,-884.92 1551.05,-884.92 1551.05,28.8 -28.8,28.8"/>
<!-- CHG -->
<g id="node1" class="node">
<title>CHG</title>
<polygon fill="#1e40af" stroke="black" points="106.75,-396.66 -0.25,-396.66 -0.25,-360.66 106.75,-360.66 106.75,-396.66"/>
<text text-anchor="middle" x="53.25" y="-375.86" font-family="Helvetica,sans-Serif" font-size="11.00" fill="white">Change Request</text>
</g>
<!-- RFC -->
<g id="node2" class="node">
<title>RFC</title>
<polygon fill="#dbeafe" stroke="black" points="268.75,-396.66 143.75,-396.66 143.75,-360.66 268.75,-360.66 268.75,-396.66"/>
<text text-anchor="middle" x="206.25" y="-375.86" font-family="Helvetica,sans-Serif" font-size="11.00">RFC / ticket created</text>
</g>
<!-- CHG&#45;&gt;RFC -->
<g id="edge1" class="edge">
<title>CHG&#45;&gt;RFC</title>
<path fill="none" stroke="black" d="M107.07,-378.66C115.66,-378.66 124.68,-378.66 133.62,-378.66"/>
<polygon fill="black" stroke="black" points="133.67,-382.16 143.67,-378.66 133.67,-375.16 133.67,-382.16"/>
</g>
<!-- REV -->
<g id="node3" class="node">
<title>REV</title>
<polygon fill="#fef3c7" stroke="black" points="398.25,-396.66 305.36,-378.66 398.25,-360.66 491.15,-378.66 398.25,-396.66"/>
<text text-anchor="middle" x="398.25" y="-375.86" font-family="Helvetica,sans-Serif" font-size="11.00">review required?</text>
</g>
<!-- RFC&#45;&gt;REV -->
<g id="edge2" class="edge">
<title>RFC&#45;&gt;REV</title>
<path fill="none" stroke="black" d="M268.94,-378.66C277.44,-378.66 286.35,-378.66 295.35,-378.66"/>
<polygon fill="black" stroke="black" points="295.52,-382.16 305.52,-378.66 295.52,-375.16 295.52,-382.16"/>
</g>
<!-- ASYNC -->
<g id="node4" class="node">
<title>ASYNC</title>
<polygon fill="#dbeafe" stroke="black" points="709.75,-754.66 570.75,-754.66 570.75,-718.66 709.75,-718.66 709.75,-754.66"/>
<text text-anchor="middle" x="640.25" y="-733.86" font-family="Helvetica,sans-Serif" font-size="11.00">async approval via PR</text>
</g>
<!-- REV&#45;&gt;ASYNC -->
<g id="edge3" class="edge">
<title>REV&#45;&gt;ASYNC</title>
<path fill="none" stroke="black" d="M409.88,-394.5C447.46,-450.56 574.4,-639.91 621.48,-710.15"/>
<polygon fill="black" stroke="black" points="618.6,-712.13 627.07,-718.49 624.41,-708.23 618.6,-712.13"/>
<text text-anchor="middle" x="531.25" y="-602.66" font-family="Helvetica,sans-Serif" font-size="10.00">low risk</text>
</g>
<!-- SYNC -->
<g id="node5" class="node">
<title>SYNC</title>
<polygon fill="#dbeafe" stroke="black" points="690.75,-396.66 589.75,-396.66 589.75,-360.66 690.75,-360.66 690.75,-396.66"/>
<text text-anchor="middle" x="640.25" y="-381.86" font-family="Helvetica,sans-Serif" font-size="11.00">sync review:</text>
<text text-anchor="middle" x="640.25" y="-369.86" font-family="Helvetica,sans-Serif" font-size="11.00">arch + security</text>
</g>
<!-- REV&#45;&gt;SYNC -->
<g id="edge4" class="edge">
<title>REV&#45;&gt;SYNC</title>
<path fill="none" stroke="black" d="M491.01,-378.66C520.57,-378.66 552.55,-378.66 579.21,-378.66"/>
<polygon fill="black" stroke="black" points="579.53,-382.16 589.53,-378.66 579.53,-375.16 579.53,-382.16"/>
<text text-anchor="middle" x="531.25" y="-381.66" font-family="Helvetica,sans-Serif" font-size="10.00">high risk</text>
</g>
<!-- APP -->
<g id="node6" class="node">
<title>APP</title>
<polygon fill="#fef3c7" stroke="black" points="809.25,-495.66 746.39,-477.66 809.25,-459.66 872.12,-477.66 809.25,-495.66"/>
<text text-anchor="middle" x="809.25" y="-474.86" font-family="Helvetica,sans-Serif" font-size="11.00">approved?</text>
</g>
<!-- ASYNC&#45;&gt;APP -->
<g id="edge5" class="edge">
<title>ASYNC&#45;&gt;APP</title>
<path fill="none" stroke="black" d="M653,-718.44C682.55,-672.61 760.01,-552.48 793.01,-501.3"/>
<polygon fill="black" stroke="black" points="795.98,-503.16 798.45,-492.86 790.09,-499.37 795.98,-503.16"/>
</g>
<!-- SYNC&#45;&gt;APP -->
<g id="edge6" class="edge">
<title>SYNC&#45;&gt;APP</title>
<path fill="none" stroke="black" d="M671.88,-396.82C702.43,-414.93 749.02,-442.54 779.06,-460.35"/>
<polygon fill="black" stroke="black" points="777.43,-463.45 787.81,-465.54 781,-457.43 777.43,-463.45"/>
</g>
<!-- REVIS -->
<g id="node7" class="node">
<title>REVIS</title>
<polygon fill="#dbeafe" stroke="black" points="1051.75,-137.66 950.75,-137.66 950.75,-101.66 1051.75,-101.66 1051.75,-137.66"/>
<text text-anchor="middle" x="1001.25" y="-116.86" font-family="Helvetica,sans-Serif" font-size="11.00">revise proposal</text>
</g>
<!-- APP&#45;&gt;REVIS -->
<g id="edge7" class="edge">
<title>APP&#45;&gt;REVIS</title>
<path fill="none" stroke="black" d="M818.42,-462.27C847.72,-407.05 947.88,-218.34 985.67,-147.14"/>
<polygon fill="black" stroke="black" points="988.97,-148.38 990.57,-137.9 982.79,-145.09 988.97,-148.38"/>
<text text-anchor="middle" x="899.25" y="-323.66" font-family="Helvetica,sans-Serif" font-size="10.00">no</text>
</g>
<!-- SCHED -->
<g id="node8" class="node">
<title>SCHED</title>
<polygon fill="#dbeafe" stroke="black" points="1076.75,-535.66 925.75,-535.66 925.75,-499.66 1076.75,-499.66 1076.75,-535.66"/>
<text text-anchor="middle" x="1001.25" y="-514.86" font-family="Helvetica,sans-Serif" font-size="11.00">schedule deploy window</text>
</g>
<!-- APP&#45;&gt;SCHED -->
<g id="edge8" class="edge">
<title>APP&#45;&gt;SCHED</title>
<path fill="none" stroke="black" d="M845.99,-485.18C865.74,-489.34 891.17,-494.69 915.67,-499.85"/>
<polygon fill="black" stroke="black" points="915.22,-503.33 925.73,-501.97 916.66,-496.48 915.22,-503.33"/>
<text text-anchor="middle" x="899.25" y="-500.66" font-family="Helvetica,sans-Serif" font-size="10.00">yes</text>
</g>
<!-- REVIS&#45;&gt;REV -->
<g id="edge9" class="edge">
<title>REVIS&#45;&gt;REV</title>
<path fill="none" stroke="black" d="M958.08,-137.83C846.36,-185.98 544.06,-316.25 437.26,-362.28"/>
<polygon fill="black" stroke="black" points="435.64,-359.17 427.84,-366.34 438.41,-365.6 435.64,-359.17"/>
</g>
<!-- DEP -->
<g id="node9" class="node">
<title>DEP</title>
<polygon fill="#dbeafe" stroke="black" points="1168.25,-535.66 1114.25,-535.66 1114.25,-499.66 1168.25,-499.66 1168.25,-535.66"/>
<text text-anchor="middle" x="1141.25" y="-514.86" font-family="Helvetica,sans-Serif" font-size="11.00">deploy</text>
</g>
<!-- SCHED&#45;&gt;DEP -->
<g id="edge10" class="edge">
<title>SCHED&#45;&gt;DEP</title>
<path fill="none" stroke="black" d="M1076.91,-517.66C1086.29,-517.66 1095.52,-517.66 1103.92,-517.66"/>
<polygon fill="black" stroke="black" points="1104.06,-521.16 1114.06,-517.66 1104.06,-514.16 1104.06,-521.16"/>
</g>
<!-- VER -->
<g id="node10" class="node">
<title>VER</title>
<polygon fill="#dbeafe" stroke="black" points="1351.25,-535.66 1205.25,-535.66 1205.25,-499.66 1351.25,-499.66 1351.25,-535.66"/>
<text text-anchor="middle" x="1278.25" y="-514.86" font-family="Helvetica,sans-Serif" font-size="11.00">post&#45;deploy verification</text>
</g>
<!-- DEP&#45;&gt;VER -->
<g id="edge11" class="edge">
<title>DEP&#45;&gt;VER</title>
<path fill="none" stroke="black" d="M1168.28,-517.66C1176.19,-517.66 1185.33,-517.66 1194.89,-517.66"/>
<polygon fill="black" stroke="black" points="1194.97,-521.16 1204.97,-517.66 1194.97,-514.16 1194.97,-521.16"/>
</g>
<!-- CLS -->
<g id="node11" class="node">
<title>CLS</title>
<polygon fill="#dcfce7" stroke="black" points="1502.25,-714.66 1422.25,-714.66 1422.25,-678.66 1502.25,-678.66 1502.25,-714.66"/>
<text text-anchor="middle" x="1462.25" y="-693.86" font-family="Helvetica,sans-Serif" font-size="11.00">close ticket</text>
</g>
<!-- VER&#45;&gt;CLS -->
<g id="edge12" class="edge">
<title>VER&#45;&gt;CLS</title>
<path fill="none" stroke="black" d="M1297.71,-535.81C1330.27,-567.84 1398.02,-634.46 1435.29,-671.12"/>
<polygon fill="black" stroke="black" points="1433.17,-673.94 1442.75,-678.46 1438.08,-668.95 1433.17,-673.94"/>
<text text-anchor="middle" x="1377.25" y="-620.66" font-family="Helvetica,sans-Serif" font-size="10.00">ok</text>
</g>
<!-- RB -->
<g id="node12" class="node">
<title>RB</title>
<polygon fill="#fee2e2" stroke="black" points="1521.75,-356.66 1402.75,-356.66 1402.75,-320.66 1521.75,-320.66 1521.75,-356.66"/>
<text text-anchor="middle" x="1462.25" y="-335.86" font-family="Helvetica,sans-Serif" font-size="11.00">rollback + incident</text>
</g>
<!-- VER&#45;&gt;RB -->
<g id="edge13" class="edge">
<title>VER&#45;&gt;RB</title>
<path fill="none" stroke="black" d="M1297.71,-499.51C1330.27,-467.48 1398.02,-400.85 1435.29,-364.2"/>
<polygon fill="black" stroke="black" points="1438.08,-366.36 1442.75,-356.85 1433.17,-361.37 1438.08,-366.36"/>
<text text-anchor="middle" x="1377.25" y="-431.66" font-family="Helvetica,sans-Serif" font-size="10.00">fail</text>
</g>
</g>
</svg>
